<svg width="80" height="94" viewBox="0 0 80 94" fill="none" xmlns="http://www.w3.org/2000/svg">
<g clip-path="url(#clip0_41_339)">
<path fill-rule="evenodd" clip-rule="evenodd" d="M79.2956 47.1264H79.1712C79.0563 46.8105 78.848 46.5356 78.5731 46.3367C78.2915 46.1413 77.9528 46.0415 77.6082 46.0524C77.1934 46.0417 76.7905 46.1887 76.4836 46.4629C76.3326 46.5919 76.213 46.7527 76.1334 46.9331C76.0538 47.1134 76.0163 47.3088 76.0237 47.5052C76.03 47.8188 76.1299 48.1238 76.3109 48.382C76.4919 48.6403 76.7462 48.8407 77.0422 48.9583L78.9536 49.7796C79.271 49.9404 79.536 50.1854 79.7184 50.487C79.9007 50.7886 79.9931 51.1345 79.9849 51.4851C80.0014 51.8738 79.9285 52.2612 79.7716 52.6184C79.6148 52.9757 79.3781 53.2936 79.0791 53.5487C78.4673 54.0602 77.682 54.327 76.8792 54.2962C76.4941 54.2855 76.1129 54.2181 75.7482 54.0962C75.4026 54.0037 75.0868 53.8262 74.8306 53.5803C74.8852 53.4185 74.9282 53.2532 74.9592 53.0855C74.986 52.9276 75.0139 52.738 75.0439 52.4853H75.1715C75.3828 52.8497 75.6668 53.1685 76.0066 53.4225C76.3676 53.6524 76.791 53.7699 77.2212 53.7595C77.4572 53.767 77.6921 53.7237 77.9093 53.6328C78.1265 53.5418 78.3208 53.4055 78.4787 53.233C78.6431 53.0633 78.7719 52.8633 78.8576 52.6447C78.9433 52.4261 78.9843 52.193 78.9783 51.9589C78.9725 51.6454 78.873 51.3407 78.6921 51.0823C78.5112 50.824 78.2569 50.6235 77.9609 50.506C77.3241 50.2323 76.6913 49.9585 76.0623 49.6848C75.7416 49.507 75.4769 49.246 75.2973 48.9303C75.1177 48.6146 75.03 48.2563 75.0439 47.8949C75.0285 47.5551 75.0956 47.2165 75.2397 46.9071C75.3838 46.5977 75.6007 46.3265 75.8726 46.1157C76.4398 45.7068 77.1314 45.4988 77.8344 45.526C78.167 45.5274 78.4975 45.5769 78.8153 45.6733C79.1141 45.7676 79.3915 45.9179 79.6322 46.1157C79.5743 46.2525 79.5239 46.3787 79.4811 46.4945C79.4757 46.5156 79.4135 46.7263 79.2956 47.1264ZM73.6031 60.0975C73.7421 60.117 73.8757 60.1638 73.9959 60.2353C74.116 60.3067 74.2202 60.4014 74.3022 60.5134C74.3842 60.6254 74.4423 60.7525 74.473 60.8872C74.5036 61.0218 74.5063 61.1612 74.4808 61.2969C74.4552 61.4325 74.4021 61.5616 74.3244 61.6765C74.2468 61.7915 74.1462 61.8899 74.0289 61.9657C73.9116 62.0416 73.7799 62.0933 73.6416 62.1179C73.5034 62.1425 73.3616 62.1393 73.2246 62.1086C72.8917 62.1098 72.5641 62.0264 72.2737 61.8665L72.4281 61.4136C72.6726 61.5599 72.9523 61.6401 73.2386 61.6454C73.3157 61.6621 73.3955 61.662 73.4726 61.6452C73.5496 61.6284 73.622 61.5951 73.6847 61.548C73.7474 61.5009 73.7988 61.4409 73.8354 61.3722C73.8721 61.3035 73.893 61.2278 73.8968 61.1504C73.8793 60.9929 73.807 60.8462 73.6922 60.735C73.5774 60.6237 73.427 60.5549 73.2664 60.5399C73.0333 60.5016 72.8194 60.3892 72.6577 60.2199C72.4959 60.0506 72.3953 59.8336 72.3713 59.6027C72.3771 59.4612 72.4126 59.3226 72.4756 59.1953C72.5386 59.0679 72.6277 58.9546 72.7373 58.8626C72.8469 58.7707 72.9746 58.702 73.1126 58.6609C73.2505 58.6197 73.3956 58.6071 73.5387 58.6236C73.8309 58.6191 74.119 58.6918 74.3728 58.8341L74.2184 59.266C74.0082 59.145 73.7695 59.0795 73.5259 59.0763C73.4579 59.0665 73.3886 59.0709 73.3224 59.0888C73.2561 59.1068 73.1944 59.1378 73.1411 59.1804C73.0878 59.2229 73.0441 59.2759 73.0127 59.3359C72.9813 59.3959 72.9629 59.4618 72.9588 59.5292C72.9874 59.6804 73.066 59.8181 73.1825 59.9209C73.2991 60.0237 73.4469 60.0857 73.6031 60.0975ZM72.8408 46.3578C72.367 46.3157 71.8835 46.3051 71.3882 46.3051V54.17L70.8361 54.1384L70.283 54.1805V46.3051C69.629 46.3051 69.1637 46.3156 68.8893 46.3262C68.6149 46.3367 68.1603 46.3892 67.5321 46.4524L67.5696 46.084L67.5321 45.7154H74.0179L73.9793 46.084L74.0179 46.4524C73.7092 46.4208 73.3168 46.3894 72.8408 46.3578ZM63.4069 18.5303C61.9854 18.3364 60.627 17.8296 59.4331 17.0474C58.2393 16.2653 57.2409 15.2282 56.5126 14.0137C56.5126 14.0137 59.3653 17.7513 63.26 18.0882C67.0583 18.4146 68.438 17.8987 68.438 17.8987C67.1848 17.5014 66.065 16.7772 65.1983 15.8036C64.5381 15.0068 63.7224 14.3477 62.7991 13.8649C61.8759 13.3821 60.8636 13.0853 59.822 12.9922C59.3105 12.933 58.7928 12.9508 58.2868 13.0449C57.1494 13.2765 56.8278 13.624 55.3441 13.0449C55.2154 12.9923 55.1039 12.9503 55.001 12.9082C43.1185 7.98075 30.4609 9.61255 20.2669 15.1296C9.57434 20.9098 6.03982 28.2274 6.03982 28.2274L5.04389 27.6272C5.04389 27.6272 7.80869 22.2366 16.6005 16.3721C25.3923 10.5077 34.2302 9.66534 42.5675 9.7601C47.0134 9.83648 51.3828 10.9096 55.3419 12.8976C55.6835 13.0614 56.0571 13.1507 56.4371 13.1598C56.8171 13.1689 57.1946 13.0975 57.5439 12.9503C58.2255 12.6095 58.9703 12.4077 59.7334 12.3571C60.4965 12.3064 61.2622 12.4079 61.9843 12.6555C65.3076 13.6557 66.2724 16.0877 67.828 16.9826C68.6938 17.5032 69.6961 17.763 70.7107 17.7301C70.7107 17.7301 68.4776 19.3937 63.408 18.5303H63.4069ZM52.9427 10.1706C51.2816 10.3028 49.6112 10.271 47.9566 10.0758C50.1981 10.2994 52.4609 9.97015 54.54 9.11774C56.3076 8.30892 57.9089 7.18847 59.2645 5.81185C59.2645 5.81185 50.3977 3.87448 46.31 9.66525C46.31 9.66525 47.8033 6.05392 53.0756 4.92735C55.9298 4.195 58.9491 4.3946 61.6777 5.49594C60.4784 5.85294 59.3808 6.48028 58.4723 7.32792C56.9561 8.79146 55.0322 9.78066 52.9438 10.1706H52.9427ZM47.9566 10.0758C47.6704 10.0547 47.4999 10.0339 47.4999 10.0339C47.4999 10.0339 47.6758 10.0547 47.9577 10.0758H47.9566ZM44.2656 3.4429C43.7924 4.53534 43.1035 5.52475 42.2386 6.35422C41.3738 7.18369 40.3502 7.83663 39.227 8.27539C37.5435 8.98346 35.7514 9.41068 33.9247 9.53904C35.8331 9.1391 37.6882 8.52413 39.4532 7.70681C41.2586 6.56078 42.6739 4.91083 43.5173 2.9689C43.7885 2.34771 43.8754 2.16893 43.9011 2.12681C42.1084 1.80461 40.2574 2.09443 38.6556 2.94808C35.1404 4.75901 33.8164 6.71722 32.4571 10.1917C32.6789 9.22969 33.0327 8.30185 33.5087 7.43331C34.9578 4.79869 37.3183 2.75954 40.164 1.68443C42.0508 0.999616 44.0361 0.61245 46.0462 0.536973C45.262 1.37962 44.657 2.36758 44.2667 3.4429H44.2656ZM24.9914 11.5499C23.3833 12.3396 22.3917 12.8239 22.3917 12.8239C23.6082 12.1255 24.7853 11.3629 25.9176 10.5392C27.6951 9.15917 29.0484 7.32235 29.8273 5.23272C30.096 4.26544 30.2666 3.27437 30.3366 2.2741C28.1676 2.82693 26.1995 3.96494 24.6547 5.55917C20.1071 10.1076 22.5814 10.9707 20.864 13.4976C21.281 12.6087 21.4653 11.6315 21.4 10.6549C21.3325 9.13876 22.7626 6.01182 25.6485 3.89556C28.5345 1.77929 29.7362 1.66358 30.3387 1.10556C30.6822 0.80461 30.9444 0.424749 31.102 0C31.6051 2.18206 31.2683 4.4696 30.1564 6.42234C28.2847 9.92839 26.5994 10.7708 24.9914 11.5499ZM12.1269 19.0778C12.1269 19.0778 16.28 14.5401 16.683 11.5815C16.9608 10.0278 16.872 8.43197 16.4236 6.91715C14.5836 8.12579 13.0742 9.76006 12.0282 11.6761C8.83142 17.2353 11.5426 19.12 10.4266 20.7625C10.6385 19.9632 10.5682 19.1169 10.2272 18.3619C9.52824 16.4668 9.87558 13.4766 11.9232 10.3917C13.9708 7.30677 15.8801 6.65417 16.415 5.84347C16.5598 5.68995 16.6709 5.50878 16.7416 5.31138C16.8122 5.11397 16.8408 4.90445 16.8256 4.69575C17.7263 7.01025 17.9036 9.5359 17.3348 11.9499C16.2714 15.3822 12.1269 19.0778 12.1269 19.0778ZM10.1522 52.0748V45.7154L10.5038 45.747L10.8554 45.7154V54.17H10.4781L9.81877 53.4119L4.39424 47.5052H4.26881V54.1594L3.91718 54.1173L3.56448 54.17V45.7154L4.05762 45.7049L10.0203 52.0748H10.1522ZM0.00744629 54.1594V45.7154L0.56169 45.747L1.11379 45.7154V54.17L0.56169 54.1173L0.00744629 54.1594ZM8.16568 57.3918H8.73922V62.0243H8.12815L6.6273 59.6765C6.30107 59.1789 6.0064 58.662 5.74501 58.1288L5.72464 58.1393C5.76002 58.7184 5.77395 59.2765 5.77395 60.0451V62.0243H5.20149V57.3918H5.86615L7.3788 59.7397C7.6949 60.2225 7.97783 60.7254 8.22571 61.2452L8.24072 61.2347C8.1839 60.6135 8.16996 60.0554 8.16996 59.3289V57.3918H8.16568ZM67.9738 62.0243H67.3574V58.6974H67.9802V62.0243H67.9738ZM68.0435 57.7707C68.0435 57.8701 68.0033 57.9654 67.9317 58.0357C67.8601 58.106 67.763 58.1455 67.6618 58.1455C67.5606 58.1455 67.4635 58.106 67.3919 58.0357C67.3204 57.9654 67.2802 57.8701 67.2802 57.7707C67.2781 57.7205 67.2866 57.6705 67.3051 57.6237C67.3237 57.5768 67.352 57.5341 67.3881 57.4985C67.4243 57.4629 67.4676 57.4351 67.5152 57.4168C67.5629 57.3984 67.6139 57.3899 67.665 57.3918C67.7163 57.3889 67.7677 57.3966 67.8157 57.4147C67.8637 57.4327 67.9073 57.4606 67.9435 57.4964C67.9797 57.5323 68.0077 57.5753 68.0257 57.6227C68.0437 57.67 68.0512 57.7203 68.0477 57.7707H68.0435ZM66.2424 61.6033C66.363 61.61 66.4839 61.5957 66.5994 61.5611L66.6284 62.0138C66.4545 62.0814 66.2685 62.1137 66.0816 62.1086C65.9582 62.1129 65.8353 62.0918 65.7208 62.0464C65.6063 62.0011 65.5028 61.9326 65.417 61.8454C65.2282 61.594 65.1432 61.2818 65.179 60.9715V59.1606H64.6569V58.6974H65.1822V58.0866L65.7825 57.8972V58.6974H66.6659V59.1606H65.7825V60.9504C65.7836 61.3715 65.9047 61.6033 66.2467 61.6033H66.2424ZM62.5803 62.0243V59.7397C62.5803 59.3501 62.5739 59.0132 62.5514 58.6974H63.0874L63.1089 59.35H63.1356C63.1945 59.1475 63.3168 58.9684 63.4851 58.838C63.6535 58.7076 63.8594 58.6325 64.0737 58.6236C64.1325 58.6244 64.1911 58.6314 64.2484 58.6447V59.2133C64.1799 59.1999 64.1103 59.1929 64.0405 59.1922C63.8297 59.2009 63.6295 59.285 63.4773 59.4284C63.3251 59.5719 63.2315 59.7649 63.2139 59.9713C63.1963 60.0651 63.1866 60.1602 63.185 60.2556V62.0243H62.5771H62.5803ZM60.5756 61.6244C60.8969 61.6342 61.2167 61.5766 61.5136 61.4557L61.6209 61.8876C61.2676 62.0444 60.8827 62.1199 60.4952 62.1086C60.2687 62.1216 60.042 62.0863 59.8305 62.0056C59.619 61.9248 59.4277 61.8004 59.2696 61.6406C59.1114 61.4808 58.9902 61.2893 58.914 61.0794C58.8379 60.8695 58.8086 60.646 58.8282 60.424C58.8021 60.2015 58.8234 59.9763 58.8907 59.7623C58.958 59.5483 59.0698 59.3504 59.2191 59.1811C59.3683 59.0118 59.5518 58.8748 59.7578 58.7789C59.9639 58.6829 60.188 58.63 60.4159 58.6236C60.6158 58.6273 60.8128 58.6719 60.9941 58.7547C61.1755 58.8374 61.3372 58.9566 61.4691 59.1043C61.601 59.2519 61.7 59.4248 61.7599 59.6122C61.8198 59.7996 61.8393 59.9972 61.817 60.1924C61.8159 60.2874 61.8091 60.3824 61.7967 60.4767H59.4157C59.4029 60.6305 59.4243 60.7852 59.4784 60.9301C59.5326 61.0749 59.6181 61.2065 59.7292 61.3157C59.8402 61.4248 59.9741 61.5089 60.1216 61.5622C60.269 61.6155 60.4265 61.6368 60.5831 61.6244H60.5756ZM61.2188 60.0451C61.2367 59.9234 61.2279 59.7994 61.1932 59.6813C61.1585 59.5633 61.0985 59.4536 61.0174 59.36C60.9363 59.2664 60.8359 59.1907 60.7227 59.1382C60.6096 59.0857 60.4863 59.0574 60.3612 59.0552C60.1065 59.0748 59.8685 59.1872 59.6937 59.3703C59.519 59.5534 59.4202 59.7942 59.4167 60.0451H61.2264H61.2188ZM65.3366 52.0748V45.7154L65.6882 45.747L66.042 45.7154V54.17H65.6635L65.0042 53.4119L59.5797 47.5052H59.4543V54.1594L59.1026 54.1173L58.7499 54.17V45.7154L59.2431 45.7049L65.2047 52.0748H65.3366ZM61.2071 34.1444C61.5602 34.244 61.8984 34.389 62.2126 34.576C62.179 34.6708 62.1351 34.8078 62.0808 34.9868C62.0261 35.1658 61.9736 35.3448 61.9232 35.5237H61.7849C61.436 35.1409 61.0051 34.8388 60.5231 34.6392C60.0282 34.433 59.4955 34.3291 58.9579 34.3339C58.4713 34.3118 57.9854 34.3906 57.5316 34.5647C57.0779 34.7388 56.6664 35.0044 56.3239 35.3446C55.6275 36.1322 55.2734 37.1568 55.3376 38.1981C55.2716 39.2551 55.6165 40.2974 56.3025 41.1145C56.6649 41.4759 57.1026 41.7562 57.5855 41.9361C58.0684 42.116 58.5852 42.1913 59.1005 42.1569C59.4489 42.159 59.7965 42.1236 60.1372 42.0515C60.4584 41.9894 60.7692 41.883 61.0602 41.7356V38.577L61.6144 38.6191L62.1676 38.577V42.062C61.0682 42.4385 59.9121 42.6307 58.7478 42.6306C58.1068 42.6716 57.4641 42.5815 56.8605 42.3658C56.2569 42.1502 55.7054 41.8137 55.2411 41.3777C54.8529 40.9571 54.5531 40.4651 54.359 39.9303C54.1649 39.3955 54.0803 38.8281 54.1101 38.261C54.077 37.6475 54.185 37.0345 54.4263 36.4676C54.6676 35.9007 55.0359 35.3946 55.5038 34.9868C56.4937 34.2031 57.7414 33.8023 59.0115 33.8601C59.7553 33.8496 60.4967 33.9454 61.2124 34.1444H61.2071ZM47.2437 11.0024C49.4457 11.2001 51.506 12.1546 53.0617 13.6978C55.373 16.1931 55.2883 17.7933 56.2178 19.6043C56.8059 20.714 57.6379 21.6816 58.6534 22.4367C56.2641 21.9818 53.9928 21.0578 51.9757 19.7202C48.498 17.4671 47.7851 12.0026 47.7851 12.0026C48.2954 13.795 49.0977 15.4946 50.1607 17.0353C51.9757 19.7201 56.4719 21.1836 56.4719 21.1836C55.7574 20.1352 55.1489 19.021 54.6547 17.8566C54.0126 16.2141 53.0788 13.224 47.2491 11.0024H47.2437ZM36.4258 11.3499C37.4537 11.0859 38.5291 11.0528 39.5718 11.2533C40.6146 11.4538 41.5978 11.8826 42.4485 12.5079C44.8627 14.3715 45.8683 16.6035 46.9886 17.4564C48.1089 18.3092 48.7038 18.7516 48.7038 18.7516C45.9962 19.204 43.2126 18.8368 40.7225 17.6988C39.4861 17.23 38.3679 16.5032 37.4451 15.5689C36.5222 14.6346 35.8168 13.5149 35.3773 12.2869C36.0765 13.5418 36.9706 14.682 38.0274 15.6665C39.5949 16.8765 41.504 17.5826 43.4948 17.6882C44.3763 17.7942 45.2657 17.8222 46.1524 17.7723C46.1524 17.7723 45.3215 16.7089 43.8325 15.1085C42.0358 13.1442 39.5434 11.9278 36.8642 11.7078C36.4133 11.749 35.9586 11.6994 35.5279 11.5618C35.0973 11.4241 34.6998 11.2015 34.3599 10.9076C34.9846 11.2681 35.7104 11.4232 36.4311 11.3499H36.4258ZM12.2191 34.0496V41.8726C12.4871 41.8726 12.9255 41.862 13.5323 41.8515C14.1391 41.841 14.4607 41.8199 14.4972 41.8199C14.7447 41.8191 14.992 41.805 15.2379 41.7777C15.3867 41.7425 15.5385 41.7213 15.6914 41.7145L15.6528 42.0831L15.6914 42.4514H11.1191V34.0496L11.6712 34.0812L12.2191 34.0496ZM11.1642 62.1086C10.9396 62.1109 10.717 62.0669 10.5107 61.9799C10.3043 61.8928 10.1187 61.7645 9.96576 61.603C9.8128 61.4415 9.69584 61.2503 9.62235 61.0419C9.54886 60.8335 9.52046 60.6122 9.53896 60.3923C9.51845 60.165 9.54691 59.936 9.62249 59.7202C9.69808 59.5043 9.8191 59.3066 9.97767 59.1397C10.1362 58.9729 10.3288 58.8408 10.5428 58.7519C10.7569 58.6629 10.9876 58.6192 11.2199 58.6236C11.4452 58.6197 11.6689 58.6624 11.8763 58.7488C12.0838 58.8352 12.2705 58.9633 12.4242 59.1251C12.578 59.2869 12.6954 59.4788 12.7688 59.688C12.8422 59.8973 12.8701 60.1194 12.8505 60.3399C12.8707 60.5672 12.842 60.7959 12.7663 61.0116C12.6905 61.2272 12.5695 61.4249 12.411 61.5917C12.2525 61.7585 12.0601 61.8908 11.8462 61.9799C11.6323 62.0689 11.4018 62.1128 11.1695 62.1086H11.1642ZM11.206 59.0763C10.9337 59.0078 10.6464 59.0246 10.3843 59.1243C10.1222 59.224 9.89838 59.4017 9.74412 59.6325C9.58987 59.8633 9.51288 60.1358 9.52393 60.4116C9.53498 60.6875 9.6335 60.953 9.80575 61.1712C9.97799 61.3893 10.2153 61.549 10.4846 61.6282C10.7539 61.7074 11.0416 61.7021 11.3076 61.6128C11.5736 61.5235 11.8045 61.3548 11.9681 61.1303C12.1317 60.9058 12.2199 60.6368 12.2201 60.3607C12.2419 60.211 12.2329 60.0587 12.1937 59.9124C12.1545 59.7662 12.0859 59.6291 11.9918 59.5094C11.8978 59.3896 11.7803 59.2897 11.6462 59.2153C11.5122 59.1409 11.3643 59.0936 11.2114 59.0763H11.206ZM17.3992 34.0496H21.861L21.8235 34.4182L21.861 34.7868C21.6581 34.7334 21.4523 34.6911 21.2446 34.6603C21.0736 34.6385 20.9013 34.628 20.7289 34.6287H18.5044V37.7241H20.4534C20.6121 37.7241 20.8233 37.7138 21.0881 37.7032C21.3528 37.6927 21.5169 37.6716 21.5715 37.6716L21.534 37.9978L21.5715 38.3454C21.3618 38.3434 21.1524 38.3293 20.9444 38.3032C20.6753 38.2821 20.5156 38.2716 20.4534 38.2716H18.5044V41.8726C18.7725 41.8726 19.2109 41.862 19.8177 41.8515C20.4245 41.841 20.7461 41.8199 20.7825 41.8199C21.0162 41.8199 21.1888 41.8199 21.2982 41.8093C21.4075 41.7988 21.6198 41.7566 21.9414 41.7145L21.9028 42.0831L21.9414 42.4514H17.4035V34.0496H17.3992ZM21.5909 45.7154H26.0634L26.0248 46.084L26.0634 46.4524C25.8115 46.3892 25.6056 46.3578 25.4459 46.3262C25.2749 46.3043 25.1027 46.2938 24.9303 46.2946H22.7058V49.3899H24.6547C24.8134 49.3899 25.0257 49.3794 25.2894 49.3688C25.5531 49.3583 25.7182 49.3372 25.7739 49.3372L25.7354 49.6637L25.7739 50.0112C25.6228 50.0112 25.4127 49.9901 25.1447 49.9691C24.8767 49.948 24.7159 49.9374 24.6547 49.9374H22.7058V53.5382C22.9738 53.5382 23.4122 53.5276 24.0201 53.5171C24.6279 53.5066 24.9485 53.4857 24.9849 53.4857C25.2197 53.4857 25.3912 53.4857 25.5006 53.4752C25.6099 53.4647 25.8222 53.4224 26.1438 53.3803L26.1052 53.7489L26.1438 54.1173H21.6059V45.7154H21.5909ZM26.9511 42.4514L26.6873 42.5041C26.3014 41.7145 25.804 40.6407 25.1918 39.2615C24.7223 38.1981 24.2592 37.1452 23.7982 36.0923C23.3372 35.0395 23.0295 34.3549 22.8612 34.0496L23.4648 34.0812L24.0801 34.0496L24.5465 35.2394L25.388 37.4084L26.935 41.1459H27.0422C27.2094 40.8195 27.3306 40.5669 27.4067 40.4089C27.5325 40.162 27.6455 39.909 27.7454 39.6509L29.0662 36.3029L29.8166 34.2393L29.9045 34.0496L30.3687 34.0812L30.8222 34.0496C30.6714 34.3233 30.3319 35.0604 29.8038 36.2607C29.2256 37.5557 28.706 38.7559 28.245 39.8614C27.6833 41.188 27.3316 42.0619 27.1891 42.5041L26.9511 42.4514ZM28.2375 54.0962C27.8916 54.0037 27.5754 53.8262 27.3188 53.5803C27.3742 53.4187 27.4176 53.2533 27.4485 53.0855C27.4753 52.9276 27.5021 52.738 27.5332 52.4853H27.6715C27.8831 52.8494 28.1671 53.1682 28.5066 53.4225C28.8679 53.6519 29.2911 53.7694 29.7212 53.7595C29.9574 53.767 30.1923 53.7237 30.4097 53.6328C30.6271 53.5418 30.8217 53.4055 30.9798 53.233C31.1444 53.0634 31.2734 52.8635 31.3593 52.6449C31.4452 52.4263 31.4863 52.1931 31.4804 51.9589C31.4744 51.6453 31.3747 51.3404 31.1936 51.0821C31.0125 50.8237 30.7581 50.6235 30.462 50.506C29.8238 50.2323 29.1909 49.9585 28.5634 49.6848C28.2429 49.5068 27.9783 49.2457 27.7987 48.9301C27.6191 48.6144 27.5313 48.2563 27.545 47.8949C27.5295 47.555 27.5967 47.2163 27.741 46.9068C27.8853 46.5974 28.1025 46.3263 28.3747 46.1157C28.9416 45.707 29.6328 45.4991 30.3355 45.526C30.6681 45.5274 30.9986 45.5769 31.3164 45.6733C31.6152 45.7682 31.8929 45.9184 32.1344 46.1157C32.0743 46.2525 32.0272 46.3787 31.9832 46.4945C31.9732 46.5156 31.91 46.7263 31.7935 47.1264H31.668C31.5542 46.8102 31.3462 46.5351 31.0709 46.3367C30.7894 46.1413 30.4506 46.0414 30.1061 46.0524C29.6906 46.0411 29.2868 46.1882 28.9794 46.4629C28.8289 46.5923 28.7096 46.753 28.6302 46.9333C28.5508 47.1136 28.5134 47.3089 28.5205 47.5052C28.5265 47.8188 28.6263 48.1237 28.8073 48.382C28.9884 48.6404 29.2428 48.8409 29.539 48.9583L31.4504 49.7796C31.7677 49.9406 32.0325 50.1857 32.2148 50.4873C32.3972 50.7888 32.4896 51.1345 32.4817 51.4851C32.4979 51.8738 32.4249 52.261 32.2681 52.6182C32.1113 52.9754 31.8747 53.2934 31.5758 53.5487C30.964 54.0601 30.1788 54.3269 29.376 54.2962C28.9913 54.2854 28.6104 54.218 28.2461 54.0962H28.2375ZM32.0658 42.4514V34.0496H36.5287L36.4912 34.4182L36.5287 34.7868C36.3254 34.7334 36.1192 34.6911 35.9112 34.6603C35.7409 34.6386 35.5694 34.628 35.3977 34.6287H33.171V37.7241H35.1211C35.2797 37.7241 35.4909 37.7138 35.7557 37.7032C36.0205 37.6927 36.1792 37.6716 36.2392 37.6716L36.2017 37.9978L36.2392 38.3454C36.0292 38.3434 35.8194 38.3293 35.611 38.3032C35.343 38.2821 35.1822 38.2716 35.1211 38.2716H33.171V41.8726C33.4391 41.8726 33.8775 41.862 34.4854 41.8515C35.0932 41.841 35.4137 41.8199 35.4502 41.8199C35.685 41.8199 35.8565 41.8199 35.9658 41.8093C36.0752 41.7988 36.2875 41.7566 36.6091 41.7145L36.5705 42.0831L36.6091 42.4514H32.0711H32.0658ZM39.5604 61.4874H39.5465C39.4317 61.6784 39.2677 61.8364 39.0711 61.9454C38.8744 62.0545 38.652 62.1108 38.4262 62.1086C38.2445 62.1065 38.0656 62.0643 37.9027 61.9853C37.7397 61.9062 37.5969 61.7923 37.4848 61.6519C37.3727 61.5114 37.2941 61.348 37.2547 61.1738C37.2154 60.9995 37.2164 60.8188 37.2577 60.645V58.6974H37.8741V60.5399C37.8741 61.1716 38.0703 61.6033 38.6245 61.6033C38.7996 61.6 38.9699 61.5464 39.1143 61.4491C39.2587 61.3518 39.371 61.215 39.4371 61.0558C39.4749 60.9546 39.4941 60.8476 39.4939 60.7399V58.6974H40.1093V61.119C40.1093 61.4665 40.1157 61.7716 40.1361 62.0243H39.5915L39.5604 61.4874ZM39.4693 38.3664V42.4936L38.9172 42.4514L38.364 42.4936V34.0496H41.0291C41.7641 33.9931 42.4994 34.1547 43.1399 34.513C43.3664 34.6716 43.5477 34.8845 43.6665 35.1315C43.7853 35.3785 43.8376 35.6512 43.8185 35.9237C43.8248 36.2387 43.7553 36.5508 43.6156 36.8344C43.4759 37.118 43.2699 37.3651 43.0145 37.5557C42.4895 37.9281 41.8823 38.1733 41.2424 38.2716L43.8207 41.4934L44.4328 42.1882L44.674 42.5041L43.9408 42.4514L43.2214 42.4936L42.4313 41.4196L40.9583 39.5247L39.9528 38.3664H39.4693ZM40.6303 37.8822C40.7875 37.8807 40.9442 37.863 41.0977 37.8295C41.5376 37.7421 41.9417 37.5297 42.2598 37.2187C42.409 37.0643 42.5257 36.8828 42.6033 36.6841C42.6809 36.4853 42.7179 36.2735 42.7122 36.0607C42.7284 35.8689 42.705 35.6757 42.6434 35.4929C42.5819 35.3101 42.4834 35.1416 42.3539 34.9971C42.2243 34.8525 42.0665 34.735 41.8897 34.6518C41.7129 34.5687 41.5208 34.5216 41.325 34.513C41.1071 34.4899 40.888 34.4793 40.6689 34.4814H39.4693V37.8927H40.1125C40.3065 37.8927 40.4781 37.8927 40.6432 37.8822H40.6303ZM47.263 39.1561C46.7774 40.3458 46.5051 41.0301 46.4472 41.1986C46.3221 41.525 46.1792 41.9566 46.0184 42.4936L45.5531 42.4514L45.1125 42.4936L49.0351 33.8601H49.3245L53.096 42.5041L52.442 42.4514L51.7752 42.4936C51.4736 41.6408 51.2185 40.9565 51.0098 40.4405C50.8747 40.1142 50.6882 39.6825 50.4556 39.1561H47.2619H47.263ZM48.8711 35.4921L47.4946 38.6402H50.2583L48.8711 35.4921ZM52.6104 62.1086C52.3858 62.1109 52.1632 62.0669 51.9568 61.9799C51.7505 61.8928 51.5649 61.7645 51.4119 61.603C51.259 61.4415 51.142 61.2503 51.0685 61.0419C50.995 60.8335 50.9666 60.6122 50.9851 60.3923C50.9645 60.165 50.9928 59.936 51.0682 59.7202C51.1437 59.5043 51.2646 59.3066 51.4231 59.1397C51.5816 58.9729 51.7741 58.8408 51.9881 58.7519C52.2021 58.6629 52.4327 58.6191 52.665 58.6236C52.8904 58.6195 53.1142 58.6619 53.3218 58.7483C53.5294 58.8346 53.7162 58.963 53.87 59.1248C54.0239 59.2867 54.1414 59.4785 54.2149 59.6878C54.2884 59.8971 54.3163 60.1193 54.2967 60.3399C54.3168 60.5666 54.2882 60.7948 54.2129 61.01C54.1376 61.2253 54.0171 61.4227 53.8593 61.5894C53.7015 61.7561 53.5099 61.8884 53.2968 61.9778C53.0837 62.0672 52.8539 62.1119 52.6222 62.1086H52.6104ZM52.6522 59.0763C52.3799 59.0076 52.0925 59.0243 51.8303 59.1238C51.5681 59.2234 51.3442 59.4008 51.1897 59.6315C51.0353 59.8622 50.9581 60.1347 50.969 60.4106C50.9799 60.6865 51.0783 60.9519 51.2504 61.1702C51.4226 61.3884 51.6599 61.5486 51.9291 61.628C52.1984 61.7073 52.4862 61.702 52.7522 61.6128C53.0183 61.5236 53.2493 61.355 53.413 61.1306C53.5767 60.9061 53.6649 60.6368 53.6652 60.3607C53.6869 60.2116 53.6781 60.06 53.6393 59.9142C53.6005 59.7685 53.5325 59.6318 53.4392 59.5122C53.346 59.3926 53.2294 59.2925 53.0963 59.2176C52.9632 59.1428 52.8162 59.0946 52.664 59.0763H52.6522ZM52.3284 45.7154H56.7924L56.7538 46.084L56.7924 46.4524C56.5394 46.3892 56.3346 46.3578 56.1749 46.3262C56.0039 46.3043 55.8316 46.2938 55.6592 46.2946H53.4348V49.3899H55.3837C55.5424 49.3899 55.7546 49.3794 56.0173 49.3688C56.2799 49.3583 56.4461 49.3372 56.5029 49.3372L56.4643 49.6637L56.5029 50.0112C56.3518 50.0112 56.1417 49.9901 55.8737 49.9691C55.6056 49.948 55.4448 49.9374 55.3837 49.9374H53.4348V53.5382C53.7028 53.5382 54.1402 53.5276 54.7491 53.5171C55.358 53.5066 55.6775 53.4857 55.7139 53.4857C55.9498 53.4857 56.1202 53.4857 56.2296 53.4752C56.3389 53.4647 56.5512 53.4224 56.8728 53.3803L56.8353 53.7489L56.8728 54.1173H52.3284V45.7154ZM55.0846 63.3931V59.7818C55.0846 59.3607 55.0718 59.0132 55.0568 58.6974H55.6099L55.6389 59.266H55.6517C55.7752 59.0623 55.9523 58.8952 56.1643 58.7822C56.3764 58.6692 56.6156 58.6143 56.8567 58.6236C57.0667 58.636 57.2718 58.6904 57.4594 58.7837C57.6471 58.877 57.8133 59.0071 57.9477 59.166C58.0821 59.3248 58.1819 59.5093 58.241 59.7076C58.3001 59.9058 58.3171 60.1138 58.2911 60.3188C58.3212 60.5376 58.3043 60.76 58.2414 60.972C58.1785 61.1839 58.071 61.3806 57.926 61.5493C57.7809 61.718 57.6014 61.855 57.3992 61.9513C57.1969 62.0477 56.9763 62.1012 56.7517 62.1086C56.5463 62.1157 56.3426 62.071 56.1598 61.9788C55.9771 61.8867 55.8213 61.7502 55.7075 61.5822H55.6946V63.3931H55.0846ZM55.7225 60.9188C55.7736 61.1209 55.8924 61.3003 56.0598 61.4282C56.2272 61.5562 56.4334 61.6253 56.6455 61.6244C56.9361 61.5615 57.1964 61.4036 57.3838 61.1766C57.5711 60.9496 57.6745 60.6668 57.677 60.3746C57.6795 60.0824 57.581 59.7978 57.3975 59.5677C57.214 59.3377 56.9564 59.1755 56.667 59.1079C56.4494 59.1136 56.24 59.1903 56.0716 59.3256C55.9032 59.4609 55.7853 59.6471 55.7364 59.8554C55.7118 59.9375 55.6977 60.0224 55.6946 60.108V60.6766C55.6969 60.7582 55.7074 60.8392 55.7257 60.9188H55.7225ZM49.0179 62.0243V59.7397C49.0179 59.3501 49.0115 59.0132 48.9901 58.6974H49.5261L49.5475 59.35H49.5765C49.635 59.1473 49.7572 58.9679 49.9257 58.8375C50.0941 58.707 50.3002 58.6322 50.5145 58.6236C50.5733 58.6247 50.6319 58.6318 50.6893 58.6447V59.2133C50.6186 59.1997 50.5468 59.1926 50.4748 59.1922C50.2642 59.201 50.0641 59.2849 49.9121 59.4284C49.7601 59.5719 49.6667 59.7649 49.6494 59.9713C49.6312 60.065 49.6216 60.1602 49.6204 60.2556V62.0243H49.0115H49.0179ZM45.4245 62.0243V57.4548C45.8106 57.3887 46.2021 57.3572 46.5941 57.3602C47.0687 57.3234 47.5402 57.4623 47.9159 57.7496C48.0543 57.8703 48.1634 58.0202 48.235 58.1879C48.3066 58.3556 48.339 58.5369 48.3297 58.7184C48.3461 59.0827 48.215 59.4384 47.9652 59.7081C47.7719 59.8834 47.5446 60.0186 47.2968 60.1055C47.049 60.1923 46.7859 60.229 46.5233 60.2134C46.3589 60.217 46.1946 60.2028 46.0334 60.1713V62.0243H45.4245ZM46.5373 59.7292C46.6832 59.7543 46.8331 59.7475 46.9761 59.7091C47.1191 59.6707 47.2516 59.6016 47.3643 59.5071C47.477 59.4125 47.567 59.2948 47.6279 59.1621C47.6888 59.0294 47.719 58.8851 47.7165 58.7395C47.7171 58.6038 47.6871 58.4695 47.6286 58.3465C47.5701 58.2235 47.4845 58.1149 47.3781 58.0283C47.2717 57.9417 47.147 57.8794 47.0131 57.8458C46.8792 57.8122 46.7394 57.8081 46.6037 57.8339C46.411 57.8274 46.2183 57.8451 46.0302 57.8866V59.687C46.1977 59.7201 46.3686 59.7343 46.5394 59.7292H46.5373ZM41.2789 49.5899C41.563 47.621 41.7345 46.3261 41.7945 45.7154H42.1161C42.5525 46.5472 42.9073 47.242 43.1882 47.7685C43.5216 48.4107 43.9204 49.1373 44.3814 49.9585C44.8842 50.8535 45.3162 51.6011 45.6764 52.1802C46.8828 50.0218 48.0896 47.8668 49.2967 45.7154H49.5604C49.7362 47.3474 49.8456 48.3582 49.8874 48.7267C50.0214 49.9375 50.1318 50.885 50.2197 51.5484C50.3076 52.2117 50.4277 53.0961 50.5788 54.17L49.9871 54.1173L49.3975 54.1594C49.3224 53.3382 49.2527 52.5486 49.1884 51.801C49.1241 51.0535 49.0555 50.3058 48.974 49.5794C48.8925 48.8529 48.8196 48.2423 48.7531 47.7895C48.2407 48.695 47.7965 49.4847 47.4206 50.1585C46.9854 50.9481 46.6209 51.6325 46.3261 52.201C46.0044 52.8432 45.7193 53.4436 45.4588 54.0227H45.3205L44.6301 52.6223C44.3278 52.0116 44.0598 51.4747 43.8261 51.0219C43.5923 50.5692 43.3018 50.0322 42.9577 49.3899C42.664 48.853 42.3745 48.316 42.0904 47.7895C41.9478 48.9582 41.8095 50.1481 41.6745 51.3484C41.5596 52.2815 41.4927 53.2197 41.474 54.1594L41.0334 54.1173L40.5821 54.1594C40.7664 53.0855 40.9969 51.5693 41.2864 49.5899H41.2789ZM42.2362 60.0975C42.3755 60.1166 42.5094 60.1632 42.6299 60.2345C42.7504 60.3058 42.8549 60.4003 42.9372 60.5124C43.0195 60.6244 43.0778 60.7519 43.1087 60.8866C43.1395 61.0214 43.1423 61.1608 43.1168 61.2966C43.0913 61.4325 43.0381 61.562 42.9603 61.6771C42.8826 61.7922 42.7819 61.8906 42.6644 61.9665C42.5468 62.0424 42.4148 62.094 42.2764 62.1184C42.138 62.1429 41.9959 62.1396 41.8588 62.1086C41.5252 62.1098 41.197 62.0264 40.9058 61.8665L41.0602 61.4136C41.3054 61.56 41.5858 61.6402 41.8728 61.6454C41.9498 61.6621 42.0296 61.662 42.1066 61.6452C42.1836 61.6284 42.256 61.5952 42.3186 61.548C42.3812 61.5009 42.4325 61.4409 42.469 61.3722C42.5055 61.3035 42.5263 61.2278 42.53 61.1504C42.5123 60.9931 42.4401 60.8467 42.3255 60.7355C42.211 60.6243 42.061 60.5554 41.9007 60.5399C41.6673 60.5015 41.4533 60.3891 41.2912 60.2199C41.1291 60.0506 41.028 59.8338 41.0034 59.6027C41.0093 59.4611 41.045 59.3224 41.1081 59.195C41.1713 59.0676 41.2606 58.9543 41.3704 58.8624C41.4802 58.7705 41.6082 58.7017 41.7463 58.6606C41.8844 58.6195 42.0297 58.6069 42.173 58.6236C42.4645 58.6191 42.7519 58.6918 43.0049 58.8341L42.8526 59.266C42.6419 59.1452 42.403 59.0797 42.159 59.0763C42.0911 59.0667 42.0219 59.0711 41.9557 59.0891C41.8895 59.1071 41.8279 59.1383 41.7746 59.1809C41.7213 59.2234 41.6776 59.2762 41.6462 59.3361C41.6147 59.3961 41.5963 59.4619 41.5919 59.5292C41.6208 59.6808 41.7 59.8188 41.8172 59.9217C41.9343 60.0245 42.0828 60.0862 42.2394 60.0975H42.2362ZM33.2965 46.4524L33.334 46.084L33.2965 45.7154H39.7855L39.7469 46.084L39.7855 46.4524C39.4746 46.4208 39.0833 46.3894 38.6063 46.3578C38.1292 46.3262 37.649 46.3051 37.1537 46.3051V54.17L36.6016 54.1384L36.0484 54.1805V46.3051C35.3955 46.3051 34.9292 46.3156 34.6548 46.3262C34.3803 46.3367 33.9279 46.3892 33.2997 46.4524H33.2965ZM34.9935 62.0243V59.7397C34.9935 59.3501 34.9871 59.0132 34.9646 58.6974H35.5006L35.522 59.35H35.551C35.6094 59.1472 35.7315 58.9679 35.9 58.8375C36.0685 58.707 36.2746 58.6321 36.489 58.6236C36.5471 58.6245 36.605 58.6316 36.6616 58.6447V59.2133C36.5931 59.2 36.5235 59.1929 36.4536 59.1922C36.243 59.2012 36.0428 59.2853 35.8907 59.4287C35.7386 59.5721 35.6449 59.7649 35.6271 59.9713C35.6095 60.0651 35.5998 60.1602 35.5981 60.2556V62.0243H34.9903H34.9935ZM31.0066 63.3931V59.7818C31.0066 59.3607 30.9927 59.0132 30.9787 58.6974H31.5308L31.5576 59.266H31.5726C31.6958 59.0624 31.8727 58.895 32.0846 58.7819C32.2965 58.6689 32.5356 58.6143 32.7765 58.6236C32.9865 58.6358 33.1917 58.6902 33.3795 58.7835C33.5672 58.8767 33.7334 59.0068 33.8679 59.1657C34.0023 59.3246 34.1022 59.509 34.1612 59.7073C34.2202 59.9056 34.2371 60.1138 34.2109 60.3188C34.241 60.5376 34.2241 60.76 34.1612 60.972C34.0983 61.1839 33.9908 61.3806 33.8458 61.5493C33.7007 61.718 33.5213 61.855 33.319 61.9513C33.1167 62.0477 32.8961 62.1012 32.6715 62.1086C32.4662 62.116 32.2625 62.0715 32.0799 61.9794C31.8972 61.8872 31.7417 61.7504 31.6284 61.5822H31.6144V63.3931H31.0055H31.0066ZM31.6444 60.9188C31.6953 61.1211 31.814 61.3008 31.9814 61.4288C32.1489 61.5567 32.3553 61.6257 32.5675 61.6244C32.8581 61.5615 33.1184 61.4036 33.3057 61.1766C33.4931 60.9496 33.5965 60.6668 33.599 60.3746C33.6015 60.0824 33.5029 59.7978 33.3194 59.5677C33.136 59.3377 32.8784 59.1755 32.5889 59.1079C32.3713 59.1137 32.1618 59.1903 31.9933 59.3256C31.8247 59.4609 31.7066 59.6471 31.6573 59.8554C31.6327 59.9375 31.6186 60.0224 31.6155 60.108V60.6766C31.6182 60.7582 31.6289 60.8393 31.6477 60.9188H31.6444ZM27.2587 58.6974H27.932L28.6728 60.6661C28.751 60.8872 28.8346 61.1506 28.8872 61.3506H28.9011C28.9643 61.1506 29.034 60.8977 29.1155 60.6556L29.7877 58.6974H30.4384L29.5154 61.0769C29.3031 61.8498 28.9045 62.5612 28.3533 63.151C28.1396 63.3446 27.8796 63.4821 27.5975 63.5509L27.4431 63.035C27.6415 62.9763 27.8245 62.8757 27.9791 62.7402C28.2049 62.5602 28.3826 62.3291 28.4969 62.0665C28.5202 62.0236 28.5365 61.9773 28.5452 61.9295C28.5413 61.8748 28.5271 61.8213 28.5034 61.7717L27.2587 58.6974ZM25.9819 61.5928C26.323 61.5981 26.6615 61.5333 26.9757 61.403L27.1011 61.877C26.7089 62.044 26.2837 62.1231 25.8565 62.1086C25.5395 62.1266 25.2223 62.0773 24.9264 61.9642C24.6305 61.851 24.3629 61.6767 24.1417 61.4529C23.9205 61.2292 23.7509 60.9614 23.6444 60.6676C23.538 60.3738 23.4972 60.0609 23.5248 59.7502C23.506 59.4269 23.5568 59.1032 23.6739 58.8004C23.791 58.4977 23.9717 58.2226 24.2044 57.9931C24.4371 57.7635 24.7164 57.5847 25.0242 57.4684C25.3319 57.3521 25.6612 57.3009 25.9905 57.318C26.3755 57.3022 26.759 57.3742 27.1108 57.5286L26.9629 58.0128C26.6646 57.8787 26.3388 57.8139 26.0109 57.8234C25.7568 57.8094 25.5026 57.8499 25.266 57.9422C25.0294 58.0344 24.8161 58.1762 24.641 58.3575C24.4658 58.5389 24.3329 58.7553 24.2516 58.9922C24.1703 59.2291 24.1425 59.4807 24.1702 59.7292C24.1431 59.9734 24.1707 60.2206 24.2512 60.4533C24.3316 60.6859 24.4629 60.8985 24.6358 61.0761C24.8088 61.2536 25.0191 61.3917 25.2522 61.4809C25.4853 61.5702 25.7355 61.6085 25.9851 61.5928H25.9819ZM18.4112 62.0243V57.1497H19.0265V59.2238H19.0405C19.1441 59.0452 19.2973 58.899 19.4821 58.8025C19.6723 58.6888 19.8899 58.6271 20.1125 58.6236C20.2899 58.6276 20.4643 58.6693 20.6237 58.7459C20.7831 58.8225 20.9237 58.9322 21.0357 59.0673C21.1478 59.2024 21.2288 59.3599 21.273 59.5287C21.3172 59.6974 21.3236 59.8736 21.2917 60.0451V62.0243H20.6764V60.1186C20.702 60.0018 20.7012 59.8809 20.6742 59.7644C20.6471 59.6479 20.5943 59.5387 20.5196 59.4443C20.4449 59.35 20.3501 59.2729 20.2418 59.2184C20.1335 59.1639 20.0143 59.1333 19.8927 59.1289C19.7085 59.1319 19.5298 59.1915 19.3816 59.2991C19.2334 59.4067 19.1231 59.557 19.0662 59.7292C19.0324 59.8237 19.0178 59.9239 19.0233 60.024V62.0243H18.408H18.4112ZM17.2963 61.6033C17.4168 61.6098 17.5377 61.5955 17.6532 61.5611L17.68 62.0138C17.507 62.0815 17.3217 62.1138 17.1354 62.1086C17.0119 62.113 16.8888 62.0918 16.7741 62.0464C16.6594 62.0011 16.5557 61.9326 16.4697 61.8454C16.2815 61.5938 16.1965 61.2818 16.2317 60.9715V59.1606H15.7064V58.6974H16.2317V58.0866L16.8342 57.8972V58.6974H17.7154V59.1606H16.8342V60.9504C16.8374 61.3715 16.9564 61.6033 17.2995 61.6033H17.2963ZM12.3906 45.7154L12.9942 45.747L13.6106 45.7154L14.0748 46.9053L14.9174 49.074L16.4633 52.8117H16.5769C16.7442 52.4854 16.8664 52.2327 16.9414 52.0748C17.0672 51.8278 17.1803 51.5749 17.2802 51.3168L18.6009 47.9687L19.3514 45.9049L19.4403 45.7154L19.9056 45.747L20.3569 45.7154C20.2068 45.9892 19.8677 46.7263 19.3396 47.9266C18.7614 49.2216 18.2414 50.4218 17.7797 51.5273C17.2191 52.8539 16.8674 53.7278 16.7249 54.17L16.4729 54.1173L16.2092 54.17C15.8233 53.3803 15.3248 52.3063 14.7137 50.9271C14.2441 49.8637 13.78 48.8108 13.3201 47.7579C12.8602 46.7051 12.561 46.0208 12.3938 45.7154H12.3906ZM13.6331 62.0243V59.7397C13.6331 59.3501 13.6267 59.0132 13.6052 58.6974H14.1412L14.1627 59.35H14.1916C14.2501 59.1473 14.3724 58.9679 14.5408 58.8375C14.7092 58.707 14.9153 58.6322 15.1297 58.6236C15.1885 58.6246 15.2471 58.6317 15.3044 58.6447V59.2133C15.2338 59.1998 15.162 59.1927 15.09 59.1922C14.8793 59.2012 14.6792 59.2853 14.5271 59.4287C14.375 59.5721 14.2812 59.7649 14.2634 59.9713C14.2462 60.0651 14.2369 60.1602 14.2356 60.2556V62.0243H13.6267H13.6331ZM18.2986 18.6252C16.4764 18.7353 14.7309 19.385 13.2922 20.4888C14.507 19.2466 16.0979 18.4231 17.828 18.1409C20.022 17.9338 22.2327 18.3007 24.2356 19.2043C25.1561 19.5713 26.1369 19.7712 27.1301 19.794C25.5826 21.3696 23.6224 22.4952 21.4654 23.0472C19.1432 23.5837 16.7 23.2298 14.6344 22.0575C13.8546 21.6201 12.9995 21.3273 12.1119 21.1941C14.5647 20.8572 14.9646 22.6681 19.4704 22.4786C23.5441 22.3206 25.3376 20.3834 25.3376 20.3834C24.6948 20.3232 24.0664 20.1596 23.4776 19.8991C21.8791 19.0789 20.1053 18.6423 18.3018 18.6252H18.2986ZM30.0332 13.9083C28.171 13.2134 24.2313 13.8346 24.2313 13.8346C24.2313 13.8346 27.6618 12.7082 29.6387 13.203C31.6155 13.6978 33.9118 15.4982 35.1168 16.2878C35.9601 16.8216 36.8584 17.2662 37.7969 17.6145C35.6647 18.4721 33.3571 18.8255 31.0602 18.6462C28.5765 18.3226 26.2745 17.1922 24.5207 15.4349C23.9972 14.9422 23.3927 14.5401 22.7326 14.2453C24.8295 14.5507 26.9371 16.93 30.4598 17.5618C33.9826 18.1935 35.6003 17.4774 35.6003 17.4774C35.6003 17.4774 34.9238 17.0669 34.1648 16.4984C32.9315 15.4329 31.5392 14.5594 30.0364 13.9083H30.0332ZM64.2023 42.4514V34.0496H68.6642L68.6267 34.4182L68.6642 34.7868C68.4616 34.7335 68.2562 34.6912 68.0488 34.6603C67.8778 34.6386 67.7056 34.628 67.5332 34.6287H65.3087V37.7241H67.2566C67.4163 37.7241 67.6264 37.7138 67.8912 37.7032C68.156 37.6927 68.32 37.6716 68.3747 37.6716L68.3383 37.9978L68.3747 38.3454C68.1647 38.3434 67.9549 38.3293 67.7465 38.3032C67.4785 38.2821 67.3177 38.2716 67.2566 38.2716H65.3087V41.8726C65.5756 41.8726 66.0141 41.862 66.6209 41.8515C67.2276 41.841 67.5492 41.8199 67.5857 41.8199C67.8205 41.8199 67.9931 41.8199 68.1013 41.8093C68.2096 41.7988 68.423 41.7566 68.7446 41.7145L68.706 42.0831L68.7446 42.4514H64.2077H64.2023ZM27.9931 86.1246C27.655 86.0249 27.3657 85.8069 27.1801 85.5121C26.9944 85.2172 26.9251 84.8659 26.9854 84.5242C27.0057 83.1134 28.7842 82.9238 29.4071 82.8817C29.808 82.8606 29.8145 83.6188 29.9217 84.5242C30.0289 85.4297 30.1168 86.2193 30.1168 86.6194C30.1168 87.0195 29.1434 86.6615 28.9643 86.5984C28.7853 86.5352 28.7767 86.3876 28.9408 86.4192C29.2144 86.4822 29.4991 86.4822 29.7727 86.4192C29.8051 85.5971 29.7421 84.7743 29.5851 83.9662C29.4982 83.1976 29.3621 83.2396 28.7671 83.3133C28.3979 83.3042 28.0383 83.4294 27.7571 83.6644C27.4758 83.8995 27.2927 84.2279 27.2427 84.5872C27.2036 84.8872 27.2536 85.192 27.3867 85.4648C27.5198 85.7375 27.7304 85.9667 27.9931 86.1246ZM37.2126 82.9868C37.1645 83.3417 36.981 83.6654 36.6991 83.8924C36.7312 83.5846 36.7452 83.2754 36.7409 82.966C36.7309 82.5772 36.6126 82.1985 36.399 81.871C36.6178 81.9759 36.8063 82.1331 36.9473 82.328C37.0883 82.523 37.1773 82.7494 37.2062 82.9868H37.2126ZM9.01795 69.6576C9.67501 69.7522 10.3146 69.9402 10.9165 70.2157C11.0411 69.9344 11.2398 69.691 11.4922 69.5103C12.1601 68.9628 14.0105 69.3208 16.0184 70.2894C17.3911 71.0052 18.7111 71.8144 19.9689 72.7111C20.0307 72.5804 20.1123 72.4596 20.2111 72.353C20.5445 72.0936 20.9445 71.9297 21.3667 71.8795C21.789 71.8294 22.2172 71.8949 22.6039 72.0687C24.5672 72.8641 26.4104 73.9197 28.0821 75.2063C28.1785 75.2694 28.2761 75.3431 28.3737 75.4062C28.5939 75.2306 28.8591 75.1179 29.1402 75.08C30.2446 74.9638 31.3565 75.2199 32.293 75.8065C33.7261 76.5772 35.0649 77.5061 36.2832 78.5754C36.8085 78.3227 37.3456 78.0386 37.9384 77.7017C41.2834 75.5876 44.7869 73.7256 48.4187 72.132C52.6854 70.4684 56.2864 70.1105 60.4255 71.8793C64.5647 73.6481 71.2424 69.1944 71.2424 69.1944L71.311 69.4049C71.311 69.4049 65.5413 74.5115 58.8604 72.4268C54.9688 71.2055 50.908 71.816 46.2103 74.1534C41.5126 76.4908 36.6938 79.3545 32.6414 80.6284C28.5891 81.9024 26.4032 82.5659 26.2982 84.5453C26.1931 86.5247 27.9695 87.7248 31.0152 87.2405C34.0608 86.7561 36.0312 85.6402 38.6888 84.9453C40.4302 84.4059 42.2855 84.326 44.0683 84.7137C41.9338 84.4983 39.7775 84.7723 37.769 85.5139C34.7888 86.7352 30.6935 88.3565 28.036 87.4721C27.4883 87.3278 26.9929 87.0353 26.6065 86.6277C26.2201 86.22 25.9583 85.7139 25.8508 85.1671C25.7434 84.6203 25.7947 84.0547 25.9989 83.5351C26.2031 83.0156 26.552 82.5629 27.0057 82.2288C27.975 81.6453 29.0068 81.1688 30.0825 80.8076C29.9817 80.7444 29.8381 80.6602 29.6537 80.5444C29.2667 80.3022 27.5096 79.0808 25.462 77.5331C23.4144 75.9853 21.1824 74.2903 18.7521 72.6057C16.3218 70.9211 14.0137 69.7735 12.7101 69.7209C12.432 69.6656 12.1431 69.7028 11.889 69.8268C11.6348 69.9507 11.43 70.1541 11.3068 70.4051C13.5254 71.7024 15.6082 73.2119 17.5246 74.9114C19.8474 76.8995 22.2896 78.7488 24.8381 80.4495C25.6926 80.9651 26.5861 81.4157 27.5107 81.7972C27.5107 81.7972 25.581 81.7236 21.3475 78.4386C17.114 75.1537 12.2898 70.7841 9.28275 70.1314C6.27567 69.4786 5.08678 71.6266 6.38824 72.9322C7.6897 74.2377 10.2476 76.5118 14.0726 79.9758C17.8977 83.4397 21.1256 86.6405 24.9496 88.9778C28.7735 91.3152 35.5295 94.1578 41.0237 92.5153C45.9255 90.9331 50.7417 89.1058 55.4534 87.0405C59.3621 85.4506 65.1522 82.429 65.1522 82.429L65.2272 82.6396C65.2272 82.6396 58.4155 86.5246 52.8816 88.883C49.0876 90.5044 41.0966 94.3686 36.9082 94.0106C32.4372 93.822 28.1231 92.3383 24.5089 89.7464C20.6148 86.8246 16.9194 83.6557 13.4466 80.2601C9.69441 76.7961 8.39724 75.4485 7.28446 74.4693C6.17168 73.4901 5.24758 72.7952 5.20577 71.8477C5.12215 70.0262 6.90067 69.3312 9.01795 69.6576ZM35.5488 78.9124C35.3226 78.7544 34.8038 78.3543 34.1755 77.8384C33.0216 76.9234 31.7335 76.185 30.3548 75.6484C30.104 75.545 29.8333 75.4961 29.5615 75.5052C29.2896 75.5143 29.023 75.5811 28.78 75.7011C30.8801 77.2277 33.2622 79.2071 33.7628 79.6177C34.4071 79.3966 34.9849 79.1651 35.5467 78.9124H35.5488ZM23.0059 74.8376C25.2454 76.3959 30.3194 80.1653 30.8318 80.5444C31.4365 80.3549 32.0604 80.1653 32.7218 79.9547C32.7861 79.9422 32.8492 79.9245 32.9105 79.902C32.7947 79.8072 32.5889 79.6179 32.2148 79.2494C31.5801 78.6282 28.0756 76.0169 26.6316 74.8903C25.0991 73.6978 23.3295 72.8335 21.4365 72.353C21.1994 72.3002 20.9514 72.3214 20.7272 72.4139C20.5031 72.5065 20.314 72.6656 20.1865 72.8689C21.132 73.5217 22.0915 74.2059 23.0081 74.8376H23.0059ZM70.5049 61.6244C70.8262 61.6342 71.1459 61.5766 71.4429 61.4557L71.5501 61.8876C71.1962 62.0445 70.8105 62.12 70.4223 62.1086C70.1959 62.1214 69.9693 62.0861 69.758 62.0053C69.5466 61.9245 69.3554 61.7998 69.1974 61.64C69.0394 61.4803 68.9182 61.289 68.8421 61.0792C68.766 60.8693 68.7368 60.6459 68.7564 60.424C68.7304 60.2014 68.7519 59.976 68.8193 59.7621C68.8867 59.5481 68.9986 59.3501 69.148 59.1809C69.2973 59.0116 69.4809 58.8748 69.687 58.7789C69.893 58.6829 70.1172 58.63 70.3451 58.6236C70.5451 58.6273 70.742 58.6719 70.9234 58.7547C71.1047 58.8374 71.2665 58.9566 71.3984 59.1043C71.5302 59.2519 71.6293 59.4248 71.6892 59.6122C71.7491 59.7996 71.7686 59.9972 71.7463 60.1924C71.7449 60.2874 71.7377 60.3824 71.7249 60.4767H69.3449C69.3322 60.63 69.3535 60.7841 69.4074 60.9285C69.4612 61.073 69.5462 61.2043 69.6567 61.3133C69.7671 61.4224 69.9003 61.5067 70.0471 61.5604C70.1939 61.614 70.3508 61.636 70.507 61.6244H70.5049ZM71.1481 60.0451C71.1661 59.9234 71.1575 59.7992 71.1228 59.6811C71.0882 59.5629 71.0282 59.4534 70.9471 59.3598C70.8659 59.2661 70.7654 59.1904 70.6522 59.1379C70.539 59.0855 70.4156 59.0572 70.2905 59.0552C70.0358 59.0748 69.7977 59.1872 69.623 59.3703C69.4483 59.5534 69.3495 59.7942 69.346 60.0451H71.1449H71.1481Z" fill="#377B71"/>
</g>
<defs>
<clipPath id="clip0_41_339">
<rect width="80" height="94" fill="white"/>
</clipPath>
</defs>
</svg>
