<svg width="80" height="80" viewBox="0 0 80 80" fill="none" xmlns="http://www.w3.org/2000/svg">
<circle cx="40" cy="48" r="9" fill="#FFC861"/>
<path fill-rule="evenodd" clip-rule="evenodd" d="M38.8807 10.2958C38.3186 10.4475 27.0463 16.609 26.6121 17.002C26.1208 17.4467 26.5216 18.441 27.1922 18.441C27.3884 18.441 29.7457 17.2014 33.3739 15.1905L39.2383 11.9399L40.7637 11.9371L51.3682 17.8152C57.2007 21.0482 62.8158 24.1595 63.8465 24.7293L65.7203 25.7652L52.8602 25.795C45.7871 25.8114 34.2186 25.8114 27.1525 25.795L14.3049 25.7652L19.2347 23.0324C21.9461 21.5294 24.2295 20.2215 24.3088 20.1258C24.7122 19.6397 24.2716 18.7512 23.6296 18.756C23.2836 18.7586 10.7555 25.6314 10.2637 26.0884C10.0134 26.3209 10 26.4206 10 28.0496C10 30.1772 10.1395 30.7188 10.907 31.5725C11.5546 32.2928 12.3487 32.7003 13.3185 32.81L14.0004 32.8872L17.0226 37.1324L17.0312 58.726L13.935 63.0895H12.7841C11.5057 63.0895 11.0556 63.2232 10.5641 63.7489C10.067 64.2804 10 64.6213 10 66.6174C10 68.5996 10.1018 69.0497 10.6656 69.5596C11.3233 70.1543 9.56594 70.1207 40 70.1207C65.1571 70.1207 68.2969 70.101 68.6812 69.9405C69.7926 69.4761 69.9941 68.9622 69.9974 66.5834C70.0001 64.6217 69.9325 64.28 69.4359 63.7489C68.9444 63.2232 68.4943 63.0895 67.2159 63.0895H66.065L62.9688 58.726L62.9774 37.1324L66.002 32.8837L66.5655 32.8047C67.7008 32.6453 68.2662 32.3811 68.963 31.6843C69.8593 30.788 70 30.2985 70 28.0788C70 26.3935 69.9996 26.3914 69.6777 26.0741C69.5005 25.8994 68.6436 25.3665 67.7734 24.8899C66.9033 24.4131 60.6893 20.9724 53.9648 17.2436C45.6579 12.6377 41.5267 10.4091 41.0787 10.2924C40.2776 10.0838 39.6633 10.0847 38.8807 10.2958ZM39.2889 15.5124C38.1277 15.7089 36.9243 16.6229 36.3584 17.7379C35.9522 18.5383 35.9058 20.0258 36.2579 20.9597C36.6166 21.9115 37.576 22.8768 38.5111 23.2266C39.4209 23.567 40.5791 23.567 41.4889 23.2266C42.424 22.8768 43.3834 21.9115 43.7421 20.9597C44.0941 20.026 44.0479 18.5335 43.6429 17.7506C42.8036 16.128 41.0322 15.2174 39.2889 15.5124ZM41.0472 17.4821C41.2686 17.5906 41.609 17.879 41.8036 18.1231C42.0932 18.4864 42.166 18.7007 42.2044 19.3047C42.2958 20.7409 41.4016 21.7223 40.0012 21.7223C38.6916 21.7223 37.7734 20.8021 37.7734 19.49C37.7734 17.7397 39.4606 16.7049 41.0472 17.4821ZM68.2422 28.5815C68.2422 29.7789 68.0739 30.2424 67.4727 30.7009L67.03 31.0387H12.9469L12.6232 30.797C11.9372 30.2849 11.8196 29.9998 11.7761 28.7453L11.7359 27.5816H68.2422V28.5815ZM24.5117 36.0191H18.3638L17.3167 34.5333C16.7407 33.7162 16.252 33.0043 16.2305 32.9513C16.2089 32.8984 18.5665 32.8551 21.4695 32.8551H26.7476L24.5117 36.0191ZM54.1797 37.2013V42.6672C54.1797 48.1177 54.1804 48.1338 54.4345 48.4042C54.7455 48.7352 55.2276 48.7547 55.6022 48.4515L55.8789 48.2275L55.9445 37.777H61.2109V58.1676H55.9375V55.009C55.9375 51.6623 55.8975 51.3797 55.3918 51.1492C54.9902 50.9663 54.8407 50.9849 54.4885 51.2621L54.1797 51.5049L54.1795 58.6949L51.0742 63.0786H28.9258L25.8205 58.6949L25.8203 37.2013L28.9036 32.8551H51.0964L54.1797 37.2013ZM63.7695 32.9513C63.748 33.0043 63.2593 33.7162 62.6833 34.5333L61.6362 36.0191H55.4883L53.2524 32.8551H58.5305C61.4335 32.8551 63.7911 32.8984 63.7695 32.9513ZM24.0625 58.1676H18.7891V37.777H24.0625V58.1676ZM37.9492 38.0809C34.3802 38.8737 31.5351 41.4569 30.4109 44.9254C29.0419 49.149 30.7129 53.8417 34.4757 56.3408C36.1225 57.4345 37.9311 57.9668 40 57.9668C42.0673 57.9668 43.8745 57.4353 45.5243 56.342C49.277 53.8554 50.9555 49.1411 49.5891 44.9254C48.5324 41.6651 45.9704 39.181 42.6953 38.241C41.5139 37.9019 39.1187 37.8211 37.9492 38.0809ZM41.7933 39.8383C44.7755 40.4972 47.2362 42.8686 48.0487 45.8666C48.2998 46.7933 48.3284 48.9139 48.1022 49.8473C47.8643 50.8297 47.0015 52.5248 46.368 53.2546C44.6554 55.2276 42.5267 56.2175 40 56.2159C36.7534 56.2141 33.9767 54.4723 32.5561 51.5465C31.4082 49.1825 31.4085 46.6566 32.5571 44.2809C34.1869 40.9095 38.1072 39.0238 41.7933 39.8383ZM39.3885 41.1461C39.29 41.2588 39.1748 41.5445 39.1325 41.7809C39.0627 42.1702 39.0126 42.2179 38.5994 42.2877C37.8446 42.4152 37.1458 42.9411 36.7946 43.6458C36.5165 44.2039 36.4844 44.3998 36.4844 45.5381C36.4844 46.3389 36.5427 46.9472 36.6423 47.185C37.0064 48.0538 37.955 48.7926 38.7063 48.7926H39.0625V50.316C39.0625 51.7554 39.0497 51.8395 38.8308 51.8395C38.5472 51.8395 38.294 51.4574 38.192 50.8761C37.9938 49.7446 36.4832 49.8779 36.4851 51.0266C36.4871 52.3183 37.5872 53.5973 38.6959 53.5973C39.0081 53.5973 39.0496 53.643 39.121 54.0656C39.2039 54.5563 39.623 55.0035 40 55.0035C40.377 55.0035 40.7961 54.5563 40.879 54.0656C40.9479 53.6574 40.9981 53.5969 41.2701 53.5947C41.7513 53.5907 42.4936 53.2041 42.8644 52.7643C43.4103 52.1168 43.5156 51.7253 43.5156 50.3427C43.5156 49.2045 43.4835 49.0086 43.2054 48.4505C42.8537 47.7447 42.1553 47.2199 41.3971 47.0918L40.9375 47.0141V45.501C40.9375 44.3226 40.9718 43.9879 41.0929 43.9879C41.3501 43.9879 41.7578 44.5094 41.7578 44.8386C41.7578 45.3092 42.2288 45.7847 42.6951 45.7847C43.5318 45.7847 43.7712 44.7813 43.2054 43.6458C42.8542 42.9411 42.1554 42.4152 41.4006 42.2877C40.9874 42.2179 40.9373 42.1702 40.8675 41.7809C40.7596 41.1779 40.5149 40.941 40 40.941C39.7346 40.941 39.4984 41.0202 39.3885 41.1461ZM39.0625 45.5113C39.0625 46.7874 39.0339 47.0348 38.8867 47.0348C38.79 47.0348 38.6055 46.9293 38.4766 46.8004C38.2782 46.602 38.2422 46.4098 38.2422 45.5481C38.2422 44.6644 38.2757 44.4946 38.497 44.2591C38.9991 43.7247 39.0625 43.8652 39.0625 45.5113ZM41.449 49.0355C41.7404 49.2646 41.7578 49.336 41.7578 50.2984C41.7578 51.3998 41.5887 51.8395 41.1652 51.8395C40.9514 51.8395 40.9375 51.7465 40.9375 50.316C40.9375 49.4781 40.9831 48.7926 41.0389 48.7926C41.0946 48.7926 41.2792 48.9019 41.449 49.0355ZM26.7618 63.0309L24.0564 63.0624C22.5685 63.0796 20.1752 63.0796 18.7379 63.0624L16.1245 63.0309L18.3463 59.9216L24.5768 59.984L26.7618 63.0309ZM63.8755 63.0309L61.1875 63.0624C59.7092 63.0796 57.3154 63.0796 55.8681 63.0624L53.2367 63.0309L54.0743 61.859C54.535 61.2145 55.04 60.5158 55.1963 60.3063L55.4807 59.9254H61.6564L63.8755 63.0309ZM68.1836 68.3043H11.8164L11.7836 66.7281C11.7654 65.8613 11.777 65.0834 11.8093 64.9994C11.8572 64.8745 16.9812 64.8522 40.0257 64.8763L68.1836 64.9059V68.3043Z" fill="#1E2831"/>
<path d="M54.1797 45.2769H55.9023V52.5426H54.1797V45.2769Z" fill="#1E2831"/>
<path d="M28.5156 15.8867L29.3293 17.3248L23.0056 20.9026L22.1919 19.4645L28.5156 15.8867Z" fill="#1E2831"/>
</svg>
