<svg width="80" height="80" viewBox="0 0 80 80" fill="none" xmlns="http://www.w3.org/2000/svg">
<path d="M65.0001 48.5L65.5001 60.5L56.5001 64.5L48.0001 60.5V48.5L56.5001 45L65.0001 48.5Z" fill="#FFC861"/>
<path fill-rule="evenodd" clip-rule="evenodd" d="M30.2226 9.18167C28.5626 9.62865 27.0453 10.8268 26.2905 12.2868L25.8631 13.1132L24.4579 13.1136C23.685 13.1139 22.8246 13.1824 22.5459 13.266C21.927 13.4514 20.9854 14.2563 20.765 14.7882L20.6027 15.1799H16.1469C13.0256 15.1799 11.5316 15.2269 11.1594 15.3369C10.4502 15.5465 9.38065 16.616 9.1711 17.3252C8.94297 18.0976 8.94297 68.0383 9.1711 68.8106C9.38065 69.5198 10.4502 70.5894 11.1594 70.7989C11.5669 70.9193 16.3856 70.9553 31.8172 70.9531C51.7861 70.9503 51.9481 70.9482 52.5246 70.6873C52.8441 70.5427 53.2604 70.2764 53.4495 70.0957L53.7935 69.767L55.0484 70.3615C55.7387 70.6884 56.4067 70.9559 56.5331 70.9559C56.6594 70.9559 57.5668 70.5729 58.5493 70.1046C59.5318 69.6364 60.6554 69.1063 61.0459 68.9266C63.9621 67.5846 67.0136 65.996 67.566 65.5319C68.9786 64.3453 69.9956 62.8182 70.6171 60.9498C70.9172 60.0476 70.9178 60.0321 70.9588 51.8802L71 43.7143L70.697 43.4112C70.4168 43.1312 70.2583 43.1027 68.5927 43.0329C66.6758 42.9526 65.5951 42.7659 63.9814 42.2363C62.1439 41.6332 60.821 40.8769 58.3447 39.0133C57.3474 38.2628 56.758 37.9035 56.5241 37.9035C56.3084 37.9035 55.8549 38.1483 55.3197 38.5534L54.4612 39.2032V28.53C54.4612 20.5273 54.422 17.7237 54.3042 17.3252C54.0947 16.616 53.0251 15.5465 52.3159 15.3369C51.9437 15.2269 50.4498 15.1799 47.3285 15.1799H42.8726L42.7103 14.7882C42.4899 14.2563 41.5483 13.4514 40.9295 13.266C40.6507 13.1824 39.7903 13.1139 39.0175 13.1136L37.6122 13.1132L37.1802 12.2776C36.6882 11.3262 35.4752 10.1123 34.5711 9.66687C33.2305 9.0062 31.5641 8.82028 30.2226 9.18167ZM32.992 11.258C34.3185 11.7084 35.2402 12.6492 35.684 14.0062C36.0588 15.152 36.1237 15.1799 38.4171 15.1799C40.3502 15.1799 40.4079 15.1879 40.7167 15.4969C41.0292 15.8092 41.0337 15.846 41.0337 18.0791V20.3444H31.7377H22.4417V18.0791C22.4417 15.846 22.4462 15.8092 22.7586 15.4969C23.0675 15.1879 23.1252 15.1799 25.0582 15.1799C27.3555 15.1799 27.4296 15.1478 27.7928 13.9944C28.4868 11.7905 30.8682 10.5372 32.992 11.258ZM30.7048 12.25C30.0711 12.4497 28.9903 13.5689 28.796 14.2266C28.4384 15.4371 28.6905 16.4022 29.603 17.3146C30.9092 18.6209 32.5662 18.6209 33.8724 17.3146C35.1341 16.053 35.1718 14.448 33.9712 13.1126C33.1356 12.1832 31.9284 11.8643 30.7048 12.25ZM32.4536 14.464C33.0941 15.1044 32.6403 16.2128 31.7377 16.2128C31.4862 16.2128 31.2215 16.0957 31.0218 15.8958C30.3812 15.2554 30.8351 14.147 31.7377 14.147C31.9892 14.147 32.2539 14.2641 32.4536 14.464ZM20.3759 18.2786V19.3115H17.0777H13.7795L13.4626 19.6284L13.1457 19.9453V43.0679V66.1906L13.4626 66.5074L13.7795 66.8244H30.6929H47.6062L49.6135 67.7837C50.7175 68.3114 51.6208 68.7762 51.6208 68.8166C51.6208 68.8571 42.6418 68.8902 31.6673 68.8902H11.7137L11.3969 68.5732L11.0799 68.2564V43.0679V17.8795L11.3969 17.5627L11.7137 17.2457H16.0449H20.3759V18.2786ZM52.0785 17.5627L52.3955 17.8795V29.2973V40.7151L51.3626 41.2525L50.3297 41.7899V30.8676V19.9453L50.0127 19.6284L49.6959 19.3115H46.3976H43.0995V18.2786V17.2457H47.4305H51.7617L52.0785 17.5627ZM20.3759 21.5767C20.3759 21.6865 20.5186 21.9189 20.6929 22.0932L21.0097 22.4101H31.7377H42.4657L42.7825 22.0932C42.9568 21.9189 43.0995 21.6865 43.0995 21.5767C43.0995 21.4035 43.4386 21.3773 45.6817 21.3773H48.2639V31.9438V42.5104L47.5861 42.659C46.3722 42.9251 45.1239 43.0628 43.9006 43.0653C42.8002 43.0677 42.674 43.0943 42.3835 43.3849C42.0782 43.6901 42.0666 43.7659 42.0666 45.4507V47.1995H33.287H24.5074V48.2324V49.2653H33.287H42.0666V51.331V53.3968H33.287H24.5074V54.4297V55.4626H33.2808H42.0543L42.0926 57.5285L42.1311 59.5945L33.3193 59.5943L24.5074 59.5942V60.6271V61.6599L33.5775 61.6605L42.6476 61.6608L43.0978 62.532C43.3454 63.011 43.7964 63.708 44.0999 64.0808L44.6518 64.7586H29.9317H15.2114V43.0679V21.3773H17.7937C20.0367 21.3773 20.3759 21.4035 20.3759 21.5767ZM28.956 24.7929C28.6506 25.0981 28.639 25.1739 28.639 26.8587V28.6075H26.8902C25.2054 28.6075 25.1296 28.6191 24.8244 28.9244C24.51 29.2387 24.5074 29.2613 24.5074 31.7061C24.5074 34.151 24.51 34.1736 24.8244 34.4878C25.1296 34.7932 25.2054 34.8048 26.8902 34.8048H28.639V36.5536C28.639 38.2384 28.6506 38.3142 28.956 38.6194C29.2702 38.9338 29.2928 38.9364 31.7377 38.9364C34.1825 38.9364 34.2051 38.9338 34.5194 38.6194C34.8247 38.3142 34.8363 38.2384 34.8363 36.5536V34.8048H36.5852C38.2699 34.8048 38.3457 34.7932 38.6509 34.4878C38.9653 34.1736 38.9679 34.151 38.9679 31.7061C38.9679 29.2613 38.9653 29.2387 38.6509 28.9244C38.3457 28.6191 38.2699 28.6075 36.5852 28.6075H34.8363V26.8587C34.8363 25.1739 34.8247 25.0981 34.5194 24.7929C34.2051 24.4785 34.1825 24.4759 31.7377 24.4759C29.2928 24.4759 29.2702 24.4785 28.956 24.7929ZM32.7706 28.2905C32.7706 29.9753 32.7822 30.0511 33.0875 30.3563C33.3928 30.6616 33.4685 30.6733 35.1533 30.6733H36.9021V31.7061V32.739H35.1533C33.4685 32.739 33.3928 32.7507 33.0875 33.056C32.7822 33.3612 32.7706 33.437 32.7706 35.1218V36.8706H31.7377H30.7048V35.1218C30.7048 33.437 30.6932 33.3612 30.3878 33.056C30.0826 32.7507 30.0068 32.739 28.322 32.739H26.5732V31.7061V30.6733H28.322C30.0068 30.6733 30.0826 30.6616 30.3878 30.3563C30.6932 30.0511 30.7048 29.9753 30.7048 28.2905V26.5417H31.7377H32.7706V28.2905ZM57.8925 41.244C61.0245 43.5694 63.82 44.6911 67.3401 45.0349L68.9217 45.1895L68.9198 52.1659C68.9177 59.9466 68.9067 60.067 68.0515 61.7112C67.7707 62.251 67.2541 62.9498 66.7956 63.4099C65.9173 64.2912 65.4582 64.5425 59.9801 67.1402L56.5257 68.7784L52.1072 66.6716C49.6769 65.513 47.3575 64.3214 46.9532 64.0237C46.1476 63.4308 45.3797 62.4837 44.8558 61.4365C44.161 60.048 44.1364 59.7304 44.1343 52.1565L44.1323 45.1708L45.3113 45.0818C47.6265 44.907 50.0468 44.2493 52.0062 43.2626C52.9351 42.7947 54.7852 41.5776 55.8169 40.7554C56.172 40.4724 56.4762 40.2379 56.4929 40.2342C56.5097 40.2305 57.1395 40.6849 57.8925 41.244ZM18.3101 42.035V43.0679H20.3759H22.4417V42.035V41.0022H20.3759H18.3101V42.035ZM24.5074 42.035V43.0679H32.2541H40.0008V42.035V41.0022H32.2541H24.5074V42.035ZM55.7451 43.4003C54.7711 44.1283 52.8721 45.1754 51.5463 45.7159C50.3848 46.1892 49.0956 46.5572 47.0087 47.0111C46.8508 47.0455 46.6039 47.2 46.46 47.3545C46.2052 47.6279 46.1981 47.7884 46.1981 53.2649C46.1981 59.3722 46.2378 59.794 46.9209 60.9596C47.6134 62.1417 48.3176 62.6015 52.3955 64.5358C54.4903 65.5293 56.3495 66.3427 56.527 66.3433C56.7046 66.3438 58.5638 65.5373 60.6586 64.5509C64.2228 62.8726 64.5175 62.7077 65.2484 61.9827C66.0487 61.1889 66.4962 60.416 66.7218 59.4381C66.7954 59.119 66.8509 56.4994 66.8528 53.2598C66.8558 47.8079 66.848 47.627 66.5972 47.3578C66.4549 47.205 66.1208 47.0293 65.8548 46.9673C63.4798 46.4136 62.7497 46.2051 61.6269 45.7599C60.2622 45.2188 58.7303 44.3898 57.5711 43.5651C56.7509 42.9816 56.3534 42.9457 55.7451 43.4003ZM57.3985 45.9192C59.2345 47.0786 61.8119 48.1451 64.2468 48.7526L64.8011 48.8908L64.7633 54.0811C64.7295 58.738 64.7023 59.3139 64.4994 59.6849C64.0254 60.552 63.4359 60.9292 60.0506 62.5314C58.2128 63.4014 56.6329 64.1131 56.5398 64.1131C56.4467 64.1131 54.8596 63.4014 53.0127 62.5314C49.3431 60.8029 48.8351 60.4498 48.4682 59.3729C48.2959 58.8674 48.2639 57.9991 48.2639 53.8306V48.8879L48.8126 48.7468C50.1651 48.3991 50.8429 48.1953 51.6854 47.8829C52.7476 47.489 55.0531 46.3405 55.8815 45.7927C56.201 45.5815 56.4852 45.4047 56.5131 45.4002C56.541 45.3957 56.9394 45.6292 57.3985 45.9192ZM18.3101 48.2324V49.2653H20.3759H22.4417V48.2324V47.1995H20.3759H18.3101V48.2324ZM58.1741 54.3959L54.4637 58.1064L53.3302 56.9781C52.7067 56.3576 52.1375 55.8499 52.0653 55.8499C51.8954 55.8499 50.717 57.0443 50.717 57.2165C50.717 57.2885 51.4628 58.0854 52.3743 58.9872C53.8396 60.4371 54.082 60.6271 54.4678 60.6271C54.8683 60.6271 55.251 60.2806 59.137 56.4012C61.4651 54.0771 63.3699 52.1141 63.3699 52.039C63.3699 51.8689 62.1804 50.6855 62.0095 50.6855C61.9408 50.6855 60.2148 52.3552 58.1741 54.3959ZM18.3101 54.4297V55.4626H20.3759H22.4417V54.4297V53.3968H20.3759H18.3101V54.4297ZM18.3101 60.6271V61.6599H20.3759H22.4417V60.6271V59.5942H20.3759H18.3101V60.6271Z" fill="#1E2831"/>
</svg>
