<svg width="80" height="80" viewBox="0 0 80 80" fill="none" xmlns="http://www.w3.org/2000/svg">
<circle cx="23.5" cy="47.5" r="2.5" fill="#FFC861"/>
<path d="M29 56.5C29 55.7777 28.8577 55.0625 28.5813 54.3952C28.3049 53.728 27.8998 53.1216 27.3891 52.6109C26.8784 52.1002 26.272 51.6951 25.6048 51.4187C24.9375 51.1423 24.2223 51 23.5 51C22.7777 51 22.0625 51.1423 21.3952 51.4187C20.728 51.6951 20.1216 52.1002 19.6109 52.6109C19.1002 53.1216 18.6951 53.728 18.4187 54.3952C18.1423 55.0625 18 55.7777 18 56.5L23.5 56.5H29Z" fill="#FFC861"/>
<path fill-rule="evenodd" clip-rule="evenodd" d="M13.7527 10.1694C12.025 10.6501 10.6234 12.0661 10.1628 13.7962C10.0293 14.2974 10.0017 18.0755 10.0006 35.988C9.99904 59.2641 9.9717 58.1811 10.5902 59.3934C11.1961 60.581 12.5484 61.6042 13.9081 61.9037C14.6512 62.0674 16.1963 62.0852 27.1057 62.0564L39.4615 62.0237L39.7447 61.6945C40.0853 61.2985 40.1083 60.8004 39.8035 60.4238L39.5793 60.1469L26.93 60.0882L14.2806 60.0296L13.7237 59.7553C13.4175 59.6045 12.9849 59.2684 12.7624 59.0085C11.9604 58.0716 11.9932 58.575 11.9932 47.2231V36.9803H28.3947H44.796L45.0406 36.7164C45.3235 36.4111 45.388 36.1141 45.2696 35.6628C45.0818 34.9477 46.0521 34.9862 28.2425 34.9862H11.9883L12.0201 24.576L12.0519 14.1657L12.3055 13.6965C12.6045 13.1434 13.1796 12.5776 13.7527 12.2727C14.1474 12.0627 14.7928 12.0543 30.5265 12.0543H46.8897L47.3669 12.3098C47.6294 12.4502 48.0355 12.777 48.2694 13.0358C49.0628 13.9142 49.0597 13.8789 49.0597 22.0395V29.3428L49.3377 29.666C49.6974 30.0841 50.3488 30.1129 50.7338 29.7281L50.9952 29.4667L51.0271 22.0526C51.0486 17.0496 51.0176 14.4387 50.9316 14.0244C50.5378 12.128 48.9603 10.5305 47.0892 10.1334C46.1491 9.93399 14.476 9.96813 13.7527 10.1694ZM15.331 15.3334C14.8018 15.8624 15.0583 16.8058 15.7794 16.9837C15.9228 17.019 18.8291 17.0328 22.2378 17.0144L28.4355 16.9808L28.7185 16.6517C29.0884 16.2217 29.0865 15.7062 28.7136 15.3334L28.4258 15.0454H22.0223H15.6188L15.331 15.3334ZM32.3393 15.3334C31.9154 15.7573 31.9459 16.3433 32.4123 16.7358L32.7731 17.0395H39.0307H45.2882L45.649 16.7358C46.1154 16.3433 46.1459 15.7573 45.722 15.3334L45.4341 15.0454H39.0307H32.6272L32.3393 15.3334ZM15.7468 20.0533C15.0628 20.3093 14.839 21.0885 15.2862 21.657L15.5292 21.9661H21.9775H28.4258L28.7136 21.6781C29.0865 21.3053 29.0884 20.7898 28.7185 20.3598L28.4355 20.0306L22.1791 20.009C18.7382 19.9971 15.8436 20.017 15.7468 20.0533ZM32.7552 20.0533C32.0394 20.3212 31.824 21.1629 32.3393 21.6781L32.6272 21.9661H39.0307H45.4341L45.722 21.6781C46.0949 21.3053 46.0967 20.7898 45.7269 20.3598L45.4439 20.0306L39.1875 20.009C35.7465 19.9971 32.8519 20.017 32.7552 20.0533ZM32.3393 25.3038C32.1405 25.5025 32.0514 25.7221 32.0514 26.0129C32.0514 26.3037 32.1405 26.5232 32.3393 26.7219L32.6272 27.0099H39.0307H45.4341L45.722 26.7219C46.0054 26.4387 46.0937 25.957 45.9371 25.549C45.738 25.0303 45.5483 25.0158 38.9138 25.0158H32.6272L32.3393 25.3038ZM15.331 30.3477C14.8018 30.8767 15.0583 31.8201 15.7794 31.9979C15.9228 32.0332 18.8291 32.0471 22.2378 32.0287L28.4355 31.9951L28.7185 31.666C29.0884 31.236 29.0865 30.7204 28.7136 30.3477L28.4258 30.0597H22.0223H15.6188L15.331 30.3477ZM32.3393 30.3477C31.913 30.7739 31.9457 31.3575 32.4183 31.7551L32.7852 32.064L36.1235 32.0295L39.4618 31.9951L39.7448 31.666C40.1145 31.2358 40.1126 30.7204 39.7397 30.3477L39.4519 30.0597H36.0395H32.6272L32.3393 30.3477ZM50.3509 32.2081C50.1256 32.2799 49.671 32.6044 49.3405 32.9293C48.7998 33.461 48.6679 33.7031 48.02 35.3528C46.9195 38.1551 46.9112 38.1023 49.041 41.8155C49.6964 42.9582 50.2327 43.9214 50.2327 43.9557C50.2327 43.9901 49.1866 44.0183 47.9081 44.0183C45.4143 44.0183 44.7534 44.1238 43.9092 44.6567C43.3232 45.0266 42.6402 45.8102 42.3361 46.4616C42.0817 47.0067 42.0803 47.0516 42.0475 55.6331L42.0146 64.2569L41.6557 64.4157C40.6908 64.8428 40.0913 65.8599 40.0924 67.0675C40.0937 68.283 40.628 69.1592 41.727 69.7479L42.1977 70H55.042C67.3436 70 67.9036 69.9907 68.2968 69.7816C69.4211 69.1835 69.9902 68.2719 69.9915 67.0675C69.9927 65.8582 69.3932 64.8429 68.4247 64.4142L68.0622 64.2538V55.9078C68.0622 47.9004 68.0527 47.5313 67.8281 46.8044C67.5711 45.9721 66.9248 45.1301 66.1838 44.6625C65.3299 44.1234 64.6757 44.0183 62.1759 44.0183C60.8973 44.0183 59.8512 43.9901 59.8512 43.9557C59.8512 43.9214 60.3875 42.9582 61.043 41.8155C63.1728 38.1023 63.1645 38.1551 62.064 35.3528C61.416 33.703 61.2843 33.4612 60.7443 32.931C60.375 32.5684 59.959 32.2867 59.6617 32.1979C59.0232 32.0073 50.9539 32.0161 50.3509 32.2081ZM59.312 34.3118C59.4797 34.4618 59.8061 35.0818 60.0684 35.7487L60.5297 36.9217L57.7858 36.9531C56.2767 36.9705 53.8073 36.9705 52.2981 36.9531L49.5543 36.9217L50.0156 35.7487C50.7376 33.9131 50.3392 34.0479 55.042 34.0479C58.9987 34.0479 59.0184 34.049 59.312 34.3118ZM17.4412 39.0908C16.0978 39.2881 15.0373 40.0644 14.4321 41.2935L14.046 42.0779V48.5343V54.9907L14.4315 55.7737C14.8923 56.7098 15.6143 57.3891 16.5507 57.7677C17.212 58.0351 17.2227 58.0355 23.5472 58.0355H29.8813L30.6193 57.6947C31.546 57.2668 32.407 56.3584 32.7468 55.4501C32.9814 54.8234 32.9898 54.585 32.9898 48.5343C32.9898 42.5001 32.9808 42.2437 32.7488 41.6237C32.2631 40.3255 31.0176 39.3318 29.5846 39.0993C28.7217 38.9593 18.3859 38.952 17.4412 39.0908ZM60.2031 39.1048C60.2031 39.1766 59.5895 40.3115 58.8396 41.6268L57.476 44.0183H55.042H52.6079L51.2443 41.6268C50.4944 40.3115 49.8808 39.1766 49.8808 39.1048C49.8808 39.0111 51.3319 38.9744 55.042 38.9744C58.752 38.9744 60.2031 39.0111 60.2031 39.1048ZM30.0585 41.3497C30.2717 41.4949 30.5566 41.7626 30.6916 41.9447C30.9322 42.2692 30.9376 42.3963 30.9694 48.3512C31 54.1014 30.9584 55.0511 30.676 55.0412C30.6261 55.0394 30.4337 54.6992 30.2487 54.2849C29.7948 53.2685 28.8252 52.124 27.8199 51.418C27.3637 51.0976 26.9335 50.8165 26.8639 50.7933C26.7934 50.7698 26.8992 50.5278 27.1033 50.2463C28.557 48.2394 28.1611 45.427 26.2161 43.9436C25.3597 43.2903 24.528 43.0503 23.3126 43.1058C22.4683 43.1443 22.1226 43.2183 21.5863 43.4754C20.669 43.9154 19.914 44.6831 19.4635 45.6341C19.125 46.3485 19.0898 46.5279 19.0898 47.5372C19.0898 48.5062 19.1317 48.7408 19.4106 49.3364C19.5871 49.7129 19.8659 50.1808 20.0302 50.3762L20.3291 50.7314L19.6088 51.1574C18.5702 51.7719 17.4038 53.0502 16.823 54.2104C16.0493 55.7561 16.0401 55.6886 16.0401 48.5257V42.4177L16.3508 41.9481C16.9362 41.0634 16.7007 41.0914 23.5592 41.0885L29.6707 41.0858L30.0585 41.3497ZM24.8733 45.4554C26.3498 46.4325 26.3512 48.641 24.876 49.6172C24.2233 50.0492 23.1391 50.127 22.4819 49.789C20.5452 48.7933 20.5504 46.3193 22.4915 45.2621C23.0518 44.9569 24.2693 45.0558 24.8733 45.4554ZM64.8364 46.233C65.3945 46.4893 65.6446 46.7509 65.8877 47.3324C66.0441 47.7071 66.0681 48.8461 66.0681 55.9204V64.0764H65.0735H64.0789L64.0471 56.3378L64.0153 48.5994L63.7481 48.3322L63.4809 48.0651H55.042H46.603L46.3358 48.3322L46.0686 48.5994L46.0368 56.3378L46.005 64.0764H45.0104H44.0159V55.9204C44.0159 48.8461 44.0398 47.7071 44.1963 47.3324C44.4393 46.7509 44.6894 46.4893 45.2475 46.233C45.6903 46.0296 46.2414 46.0175 55.042 46.0175C63.8426 46.0175 64.3936 46.0296 64.8364 46.233ZM51.9922 52.5224V55.0444H49.9981H48.004V52.6007C48.004 51.2566 48.0392 50.1217 48.0823 50.0788C48.1252 50.0357 49.0225 50.0005 50.0764 50.0005H51.9922V52.5224ZM56.0707 52.5518L56.1024 55.0444H55.0443H53.9863V52.6007C53.9863 51.2566 54.0235 50.1198 54.0689 50.0744C54.1143 50.0289 54.5761 50.007 55.0952 50.0255L56.039 50.0592L56.0707 52.5518ZM62.0529 52.5518L62.0846 55.0444H60.0882H58.0917V52.5196V49.9949L60.0565 50.027L62.0213 50.0592L62.0529 52.5518ZM24.9548 52.2493C25.7408 52.4481 26.7914 53.0754 27.4383 53.732C28.0056 54.3079 28.767 55.5748 28.767 55.9429C28.767 56.0719 27.8335 56.1001 23.5541 56.1001C20.6476 56.1001 18.3127 56.0541 18.2769 55.996C18.1297 55.7579 19.0434 54.2473 19.7315 53.591C21.1469 52.2409 23.0198 51.7598 24.9548 52.2493ZM62.0541 58.534L62.0213 60.0296H55.042H48.0627L48.0298 58.534L47.997 57.0385H55.042H62.0869L62.0541 58.534ZM62.0799 63.0794V64.0764H55.042H48.004V63.0794V62.0823H55.042H62.0799V63.0794ZM67.6032 66.2209C68.1412 66.634 68.1891 67.2519 67.7193 67.7217L67.3764 68.0646H55.042H42.7075L42.3646 67.7217C41.8949 67.2519 41.9427 66.634 42.4808 66.2209C42.7515 66.013 67.3324 66.013 67.6032 66.2209Z" fill="#1E2831"/>
</svg>
