<svg width="80" height="80" viewBox="0 0 80 80" fill="none" xmlns="http://www.w3.org/2000/svg">
<path d="M20.5 32L35 37.5L52 45H16L20.5 32Z" fill="#FFC861"/>
<path fill-rule="evenodd" clip-rule="evenodd" d="M31.1117 8.21253C29.622 8.61114 28.3954 9.65887 27.6881 11.1371L27.2993 11.9496L27.265 21.1681L27.2306 30.3866H25.3024C22.5862 30.3866 21.4595 30.6818 20.2619 31.7069C19.3639 32.4755 18.9753 33.2108 17.6568 36.6365L16.3818 39.9489L14.4033 40.014C12.2419 40.0852 11.9439 40.1688 11.1325 40.9316C10.442 41.5809 10.1821 42.2006 10.1821 43.1988C10.1821 44.2387 10.455 44.8523 11.2282 45.5508C11.5081 45.8037 11.7372 46.0303 11.7372 46.0544C11.7372 46.0784 11.228 46.5053 10.6057 47.0029C9.35487 48.003 8.75888 48.7263 8.33277 49.7612C8.05515 50.4356 8.04902 50.5567 8.01253 56.1148C7.98028 61.0287 8.00203 61.8729 8.17665 62.4733C8.55014 63.7582 9.334 64.6578 10.5752 65.2261L11.2372 65.5292V67.5579C11.2372 69.4902 11.2526 69.6175 11.5609 70.2363C11.9478 71.0127 12.5765 71.5623 13.3852 71.8308C13.8711 71.9922 14.4834 72.0207 16.7641 71.9881C19.8269 71.9442 19.9663 71.9136 20.8417 71.0905C21.6826 70.2998 21.7917 69.9256 21.8401 67.667L21.8835 65.6358H33.6224H45.3614V67.6113C45.3614 69.4861 45.3779 69.6197 45.6852 70.2363C46.072 71.0127 46.7008 71.5623 47.5094 71.8308C47.9954 71.9922 48.6076 72.0207 50.8883 71.9881C53.9511 71.9442 54.0905 71.9136 54.9659 71.0905C55.8172 70.2901 55.9173 69.9367 55.964 67.5679L56.006 65.4375L56.6163 65.2207C57.7983 64.801 58.8341 63.4711 59.1092 62.0208C59.278 61.1313 59.2732 51.9415 59.1036 50.8862C58.8454 49.2795 58.2409 48.3669 56.4978 46.9515L55.3763 46.041L55.8702 45.644C57.7543 44.1301 57.1863 40.9891 54.8868 40.2057C54.4773 40.0662 53.8203 40.0114 52.555 40.0114H50.7932L50.4093 38.9802L50.0253 37.949L58.9119 37.8865C68.5736 37.8185 68.1043 37.8536 69.3851 37.103C70.0616 36.7065 71.0009 35.7169 71.3498 35.0332C71.9873 33.7834 71.9858 33.8126 71.9858 22.9917C71.9858 15.9952 71.9427 12.6962 71.8453 12.2369C71.4399 10.3267 69.873 8.70064 67.9421 8.18653C66.9478 7.92178 32.1065 7.94641 31.1117 8.21253ZM68.0484 10.4698C68.6378 10.7885 69.2407 11.4013 69.5656 12.0121C69.7872 12.4288 69.7984 12.949 69.7984 22.9493C69.7984 32.9496 69.7872 33.4698 69.5656 33.8866C69.2407 34.4973 68.6378 35.1102 68.0484 35.4288C67.5507 35.6979 67.5082 35.6991 58.3605 35.734L49.1725 35.7691L48.6932 34.5139C47.9047 32.4487 46.9791 31.4324 45.2495 30.7326C44.5519 30.4504 44.5171 30.449 36.9554 30.4125L29.3618 30.3758V21.4685V12.5612L29.6842 11.9143C30.054 11.1721 30.7634 10.5561 31.5234 10.3174C31.9505 10.1831 35.382 10.1566 49.7988 10.1759L67.5484 10.1996L68.0484 10.4698ZM49.9689 11.5016C49.6854 11.7318 49.6738 11.8067 49.6748 13.4078C49.6757 14.902 49.7128 15.1877 50.0336 16.1688C50.2336 16.781 50.605 17.5684 50.8763 17.9557C51.4993 18.845 51.516 19.2709 50.9412 19.61C50.1887 20.054 49.6098 21.0679 49.6126 21.9367C49.6142 22.4714 50.1331 23.5374 50.5519 23.8669C50.7428 24.017 51.1599 24.2325 51.4788 24.3458C51.949 24.5128 52.1286 24.669 52.4288 25.1716C52.8654 25.9031 54.0183 26.9865 54.8038 27.4031C55.3226 27.6782 55.3612 27.7337 55.3612 28.2024C55.3612 29.042 55.1453 29.2185 54.0306 29.2902C53.177 29.3449 53.0322 29.3909 52.7759 29.6888C52.1258 30.4448 52.5967 31.3417 53.7117 31.4711C54.3156 31.5412 54.3955 31.5882 54.6076 31.9986C54.9407 32.6428 55.8214 33.4531 56.5487 33.7842C57.4668 34.2024 58.8052 34.1863 59.7468 33.7458C60.5526 33.3688 61.2498 32.7196 61.6128 32.0082L61.8662 31.5116H62.6991C64.1562 31.5116 65.1138 32.2097 65.5473 33.5879C65.7871 34.3499 66.1024 34.6365 66.7013 34.6365C67.529 34.6365 67.886 33.8901 67.5538 32.8538C67.123 31.5105 66.0629 30.3081 64.8275 29.7615C64.2326 29.4985 62.8671 29.2723 61.833 29.2655C61.3073 29.262 61.2215 29.2212 61.0518 28.8929C60.9469 28.6901 60.8611 28.3384 60.8611 28.1114C60.8611 27.7477 60.9302 27.6621 61.4448 27.3891C62.2304 26.9723 63.2428 26.0284 63.793 25.1994C64.1571 24.6508 64.3462 24.4889 64.7713 24.3618C65.7457 24.0707 66.6127 22.8969 66.6102 21.8723C66.6087 21.2132 66.3172 20.5602 65.7886 20.0316L65.245 19.488L65.3355 18.5312C65.4488 17.3333 65.3256 16.1881 65.0052 15.464C64.674 14.715 63.8159 13.8068 63.0941 13.4409C62.0083 12.8908 61.5212 12.8389 57.3611 12.8315C52.8124 12.8234 52.6494 12.7954 51.7085 11.8594C51.03 11.1846 50.495 11.0745 49.9689 11.5016ZM32.0492 14.538C31.4082 14.9055 31.2867 15.6984 31.7936 16.2051C32.0653 16.477 32.2085 16.512 33.0492 16.512C33.8899 16.512 34.0331 16.477 34.3048 16.2051C34.8207 15.6894 34.6864 14.8841 34.0262 14.5324C33.6774 14.3466 32.3763 14.3504 32.0492 14.538ZM37.3874 14.5156C37.053 14.6525 36.7031 15.3964 36.819 15.7237C36.8629 15.8478 37.0127 16.0761 37.152 16.2307L37.4052 16.512H42.1221H46.8391L47.1739 16.1142C47.5587 15.6567 47.533 15.1281 47.105 14.6999C46.8646 14.4594 46.6726 14.4485 42.2644 14.4239C39.6237 14.4091 37.5522 14.4481 37.3874 14.5156ZM53.3679 14.8322C54.2006 14.976 55.2492 15.0126 57.7554 14.9854C61.3123 14.9466 61.7885 15.0069 62.4714 15.5814C63.0611 16.0776 63.2838 16.8293 63.2008 18.0445C63.1621 18.611 63.0344 19.3479 62.9168 19.6821C62.7199 20.2416 62.7188 20.3227 62.9019 20.7067C63.055 21.0279 63.224 21.159 63.6371 21.2772C64.3009 21.4671 64.486 21.6023 64.486 21.8977C64.486 22.1846 64.1241 22.3868 63.611 22.3868C63.011 22.3868 62.7675 22.5816 62.3614 23.3861C61.6588 24.7779 60.6697 25.5917 59.2338 25.9596C58.1121 26.247 57.1663 26.1326 56.0242 25.5716C55.0118 25.0743 54.412 24.464 53.8506 23.3603C53.4381 22.5494 53.2124 22.3868 52.4989 22.3868C51.5838 22.3868 51.5104 21.504 52.4115 21.3348C53.0549 21.2142 53.3664 20.9007 53.4481 20.2919C53.4945 19.9458 53.5819 19.7619 53.6998 19.7619C54.0067 19.7619 54.6112 19.0582 54.6112 18.7008C54.6112 18.1872 54.3891 17.8902 53.8212 17.6443C53.5339 17.5199 53.1407 17.2701 52.9477 17.0893C52.5435 16.7106 52.0065 15.6086 51.8969 14.933C51.8304 14.5231 51.8476 14.48 52.0476 14.5568C52.1719 14.6045 52.766 14.7284 53.3679 14.8322ZM32.2367 18.7187C31.4686 19.0264 31.2441 19.9056 31.7936 20.455C32.068 20.7295 32.2055 20.7619 33.0969 20.7619C34.0247 20.7619 34.1114 20.7391 34.3525 20.4325C34.7132 19.9741 34.689 19.3783 34.2952 19.0082C34.0436 18.7718 33.8192 18.7038 33.2014 18.6772C32.774 18.6587 32.3398 18.6773 32.2367 18.7187ZM37.3436 18.8264C36.9822 19.0228 36.703 19.6436 36.823 19.9841C36.8647 20.1025 37.0127 20.326 37.152 20.4806L37.4052 20.7619H42.1097C46.6145 20.7619 46.8254 20.7515 47.078 20.5161C47.4464 20.173 47.5351 19.8063 47.3551 19.3718C47.0579 18.6543 46.9293 18.6364 42.0865 18.6419C38.4951 18.646 37.6126 18.6803 37.3436 18.8264ZM32.2705 22.9674C31.891 23.0506 31.4867 23.5943 31.4867 24.0217C31.4867 24.2148 31.6225 24.5307 31.7884 24.7235C32.0691 25.0499 32.1552 25.0743 33.0283 25.0743C33.8492 25.0743 34.0068 25.0364 34.289 24.7713C34.7232 24.3634 34.7333 23.6697 34.3109 23.2728C34.0852 23.0608 33.8278 22.9798 33.2797 22.9483C32.878 22.9253 32.4237 22.9339 32.2705 22.9674ZM37.509 23.0289C36.9237 23.1976 36.6569 23.829 36.9125 24.4407C37.051 24.7723 37.2002 24.8996 37.5703 25.0024C38.3326 25.2141 46.2623 25.1815 46.7814 24.9646C47.3375 24.7323 47.58 24.1645 47.355 23.6214C47.0638 22.9182 46.8286 22.8856 42.1467 22.8981C39.8243 22.9043 37.7373 22.9632 37.509 23.0289ZM58.7361 28.5584C58.7361 29.0339 59.0915 29.9124 59.4797 30.3965L59.8385 30.8439L59.5922 31.2327C59.2781 31.729 58.4242 32.0747 57.8014 31.9579C57.2871 31.8614 56.4862 31.2129 56.4862 30.893C56.4862 30.7734 56.5975 30.5746 56.7335 30.4515C57.0183 30.1939 57.4861 29.0238 57.4861 28.5694C57.4861 28.2834 57.5304 28.2617 58.1111 28.2617C58.6856 28.2617 58.7361 28.2857 58.7361 28.5584ZM44.2892 32.6898C44.9829 32.8987 45.5537 33.2717 45.977 33.7932C46.2633 34.1456 50.1826 44.1067 50.0767 44.2126C50.0494 44.2399 42.6039 44.2479 33.5311 44.2306L17.0351 44.1988L18.9798 39.1617C20.2052 35.9875 21.0537 33.9648 21.2738 33.6927C21.6358 33.2452 22.3992 32.7878 23.0494 32.6288C23.2557 32.5785 27.9857 32.5315 33.5606 32.5243C42.0052 32.5137 43.7956 32.5413 44.2892 32.6898ZM15.4871 42.2029C15.4871 42.2395 15.3142 42.7176 15.103 43.2653L14.719 44.2613H13.8434C13.0424 44.2613 12.9368 44.2302 12.6025 43.896C12.3823 43.6757 12.2372 43.3988 12.2372 43.1988C12.2372 42.9988 12.3823 42.722 12.6025 42.5017C12.958 42.1462 13.002 42.1364 14.2275 42.1364C14.9202 42.1364 15.4871 42.1664 15.4871 42.2029ZM54.6225 42.494C54.9629 42.9148 54.9321 43.5768 54.5543 43.9545C54.2841 44.2248 54.1378 44.2613 53.3254 44.2613H52.4033L52.2733 43.8551C52.2018 43.6316 52.0225 43.1485 51.8748 42.7815L51.6061 42.1141L52.995 42.1565C54.2778 42.1956 54.402 42.2214 54.6225 42.494ZM52.6146 46.5986C53.2194 47.014 55.9293 49.2373 56.2608 49.5901C56.9933 50.3693 57.0358 50.6244 57.087 54.5423L57.1339 58.136H33.6162H10.0984L10.1365 54.4798C10.185 49.8389 10.0441 50.2016 12.5959 48.1509C13.6016 47.3426 14.5371 46.6165 14.6746 46.5375C14.8599 46.4311 19.7693 46.3929 33.6151 46.39C50.9992 46.3865 52.3273 46.4011 52.6146 46.5986ZM13.2793 49.9468C12.4634 50.4416 12.2371 51.0415 12.2379 52.7069C12.2383 53.4586 12.2939 54.273 12.3617 54.5166C12.5013 55.0192 13.1282 55.6811 13.6515 55.8784C13.8583 55.9563 15.0445 56.0099 16.5265 56.0083C19.3721 56.0052 19.8156 55.9028 20.3744 55.1194C20.6525 54.7295 20.6774 54.5656 20.7142 52.886C20.7521 51.1625 20.7397 51.0525 20.4642 50.6475C19.8275 49.7117 19.7919 49.7026 16.6345 49.6649L13.7996 49.6313L13.2793 49.9468ZM25.0588 49.9194C24.7529 50.0936 24.4586 50.4062 24.2775 50.7495C24.021 51.2359 23.9869 51.4732 23.9869 52.7726C23.9869 54.3751 24.0789 54.7626 24.5886 55.3077C25.262 56.0279 25.0455 56.011 33.6127 56.011C41.1021 56.011 41.5196 55.9992 41.9602 55.7743C42.9331 55.2778 43.2233 54.6178 43.2303 52.8861C43.2358 51.4952 43.1007 50.9162 42.6437 50.3731C42.0077 49.6172 42.2409 49.6359 33.5219 49.6382L25.5494 49.6403L25.0588 49.9194ZM47.5489 49.8664C46.5638 50.4878 46.3603 51.0064 46.3641 52.8852C46.3671 54.3126 46.5541 54.9471 47.1261 55.4714C47.6504 55.9521 48.0362 56.011 50.6554 56.011C53.0286 56.011 53.2174 55.9938 53.74 55.7298C54.0462 55.5751 54.4237 55.2574 54.579 55.0238C54.8388 54.6328 54.8612 54.4581 54.8612 52.8236C54.8612 51.1882 54.8391 51.0155 54.58 50.6349C53.9527 49.7133 53.9101 49.7026 50.7587 49.6643C48.1582 49.6327 47.8929 49.6494 47.5489 49.8664ZM18.612 52.8236V53.8861H16.4871H14.3621V52.8236V51.7611H16.4871H18.612V52.8236ZM28.2368 52.8236V53.8861H27.1743H26.1119V52.8236V51.7611H27.1743H28.2368V52.8236ZM32.4867 52.8236V53.8861H31.4242H30.3618V52.8236V51.7611H31.4242H32.4867V52.8236ZM36.7366 52.8236V53.8861H35.6741H34.6117V52.8236V51.7611H35.6741H36.7366V52.8236ZM41.0853 52.7924L41.049 53.8236H39.9865H38.9241L38.8878 52.7924L38.8514 51.7611H39.9865H41.1216L41.0853 52.7924ZM52.7362 52.8236V53.8861H50.6113H48.4863V52.8236V51.7611H50.6113H52.7362V52.8236ZM25.0494 61.8859V63.4484L18.612 63.4853C14.4001 63.5094 12.0184 63.4769 11.7228 63.3915C10.6986 63.0956 10.1197 62.2269 10.115 60.9787L10.1122 60.259L17.5808 60.2912L25.0494 60.3234V61.8859ZM39.9865 61.8859V63.5109H33.6117H27.2368V61.8859V60.261H33.6117H39.9865V61.8859ZM57.0275 61.0956C57.0008 62.0762 56.7083 62.693 56.0697 63.1158L55.5672 63.4484L48.8393 63.4837L42.1115 63.5191V61.889V60.259L49.5801 60.2912L57.0486 60.3234L57.0275 61.0956ZM19.737 67.3954V69.155L19.3716 69.5204L19.0063 69.8857H16.6155C14.1288 69.8857 13.6231 69.7952 13.4398 69.3176C13.3972 69.2064 13.3622 68.3324 13.3622 67.3755V65.6358H16.5496H19.737V67.3954ZM53.8612 67.3954V69.155L53.4959 69.5204L53.1305 69.8857H50.7397C48.253 69.8857 47.7474 69.7952 47.564 69.3176C47.5214 69.2064 47.4864 68.3324 47.4864 67.3755V65.6358H50.6738H53.8612V67.3954Z" fill="#1E2831"/>
</svg>
