<?xml version="1.0" encoding="utf-8"?><svg xmlns="http://www.w3.org/2000/svg" xmlns:xlink="http://www.w3.org/1999/xlink"><symbol viewBox="0 0 22 24" id="basket" xmlns="http://www.w3.org/2000/svg"><g clip-path="url(#aa)"><path d="M10.363 18.443a2.046 2.046 0 00-2.045 2.042 2.046 2.046 0 004.09 0 2.046 2.046 0 00-2.045-2.042zm6.134 0a2.046 2.046 0 00-2.045 2.042 2.046 2.046 0 004.089 0 2.046 2.046 0 00-2.044-2.042zm3.978-8.199L7.413 6.891a.614.614 0 00-.75.73L8.67 16.4h-.786L5.482 5.895a.613.613 0 00-.474-.464l-4.27-.882A.614.614 0 00.489 5.75l3.885.802L6.797 17.15a.613.613 0 00.598.477h12.07a.615.615 0 00.607-.53l.858-6.175a.613.613 0 00-.455-.678zm-8.14 3.91a.613.613 0 01-1.227 0v-2.696a.613.613 0 011.227 0v2.696zm2.625 0a.613.613 0 01-1.227 0v-1.88a.613.613 0 011.227 0v1.88zm2.625 0a.613.613 0 01-1.227 0v-1.226a.613.613 0 011.227 0v1.226z"/></g><path fill-rule="evenodd" clip-rule="evenodd" d="M16.268 4.568a2.996 2.996 0 00-1.693-.523c-.627 0-1.21.193-1.693.523-.28-.843-.492-1.752-.492-2.383C12.39.98 13.37 0 14.575 0s2.185.98 2.185 2.185c0 .631-.212 1.54-.492 2.383zm-4.722 2.274l.024.006v-.011l-.024.005zm4.972 1.217c-1.333-.33-2.766-.681-4.129-1.013a2.185 2.185 0 114.129 1.013zm4.436 1.103c-.866-.217-2.155-.538-3.618-.9a2.995 2.995 0 00.243-1.425c.87.18 1.762.45 2.308.765.596.344.969.928 1.067 1.56zM9.869 6.439c-.36-.086-.706-.167-1.03-.243a2.19 2.19 0 01-.376-2.667 2.188 2.188 0 013.147-.7c.098.738.338 1.599.61 2.353a3.01 3.01 0 00-.449.774c-.628.113-1.305.278-1.902.483zm10.124.075a3.43 3.43 0 01-.217.114c-.696-.295-1.587-.526-2.397-.672a3.01 3.01 0 00-.449-.774c.262-.727.494-1.553.599-2.273.095-.067.189-.128.278-.18a2.188 2.188 0 012.986.8 2.188 2.188 0 01-.8 2.985z"/><defs><clipPath id="aa"><path transform="translate(0 3.064)" d="M0 0h20.936v20.936H0z"/></clipPath></defs></symbol><symbol viewBox="0 0 344.96 344.96" id="check" xmlns="http://www.w3.org/2000/svg"><g data-name="Слой 2"><path class="bcls-1" d="M321.85 86.24l-40-23.11-23.1-40H212.5L172.48 0l-40 23.11H86.24l-23.11 40-40 23.1v46.21L0 172.48l23.11 40v46.21l40 23.11 23.11 40h46.21l40 23.1 40-23.11h46.21l23.11-40 40-23.11V212.5l23.11-40-23.11-40V86.24zM156.91 243.07a16.79 16.79 0 01-23.34 0l-50.45-50.44a16.19 16.19 0 010-22.89l13.35-13.35a16.19 16.19 0 0122.89 0l25.87 25.87 80.34-80.35a16.19 16.19 0 0122.89 0l13.35 13.35a16.19 16.19 0 010 22.89z" data-name="Capa 1"/></g></symbol><symbol viewBox="0 0 24 24" id="fb" xmlns="http://www.w3.org/2000/svg"><path d="M13.397 20.997v-8.196h2.765l.411-3.209h-3.176V7.548c0-.926.258-1.56 1.587-1.56h1.684v-2.86A22.108 22.108 0 0014.201 3c-2.444 0-4.122 1.492-4.122 4.231v2.355H7.332v3.21h2.753v8.201h3.312z"/></symbol><symbol viewBox="0 0 24 24" id="instagram" xmlns="http://www.w3.org/2000/svg"><path d="M11.999 7.377a4.624 4.624 0 100 9.248 4.624 4.624 0 000-9.248zm0 7.627a3.004 3.004 0 110-6.008 3.004 3.004 0 010 6.008zm4.807-6.719a1.078 1.078 0 100-2.156 1.078 1.078 0 000 2.156z"/><path d="M20.533 6.11A4.605 4.605 0 0017.9 3.48a6.607 6.607 0 00-2.186-.42c-.963-.042-1.268-.054-3.71-.054s-2.755 0-3.71.054a6.554 6.554 0 00-2.184.42 4.6 4.6 0 00-2.633 2.63 6.585 6.585 0 00-.419 2.186c-.043.962-.056 1.267-.056 3.71 0 2.442 0 2.753.056 3.71.015.748.156 1.486.419 2.187a4.61 4.61 0 002.634 2.632 6.583 6.583 0 002.185.45c.963.042 1.268.055 3.71.055s2.755 0 3.71-.055a6.616 6.616 0 002.186-.42 4.613 4.613 0 002.633-2.632c.263-.7.404-1.438.419-2.186.043-.962.056-1.267.056-3.71s0-2.753-.056-3.71a6.583 6.583 0 00-.421-2.217zm-1.218 9.533a5.046 5.046 0 01-.311 1.688 2.987 2.987 0 01-1.712 1.71c-.535.2-1.1.305-1.67.312-.95.044-1.218.055-3.654.055-2.438 0-2.687 0-3.655-.055a4.961 4.961 0 01-1.67-.311 2.984 2.984 0 01-1.718-1.711 5.08 5.08 0 01-.311-1.67c-.043-.95-.053-1.217-.053-3.653 0-2.437 0-2.686.053-3.655a5.038 5.038 0 01.311-1.687c.305-.79.93-1.41 1.719-1.712a5.01 5.01 0 011.669-.311c.95-.043 1.218-.055 3.655-.055s2.687 0 3.654.055a4.96 4.96 0 011.67.31 2.99 2.99 0 011.712 1.713 5.06 5.06 0 01.311 1.669c.043.95.054 1.218.054 3.655 0 2.436 0 2.698-.043 3.654h-.011v-.001z"/></symbol><symbol viewBox="0 0 24 24" id="telegram" xmlns="http://www.w3.org/2000/svg"><path d="M20.446 3.002a2.389 2.389 0 00-.755.181h-.003c-.23.092-1.325.556-2.988 1.259l-5.965 2.53a17641.01 17641.01 0 00-8.485 3.602l.051-.02s-.29.096-.593.306a1.646 1.646 0 00-.474.46c-.148.22-.268.557-.224.903.073.588.452.941.723 1.135.274.197.536.29.536.29h.007l3.944 1.338c.177.572 1.203 3.967 1.449 4.749.145.467.287.76.464.982.085.114.186.21.306.286a.895.895 0 00.199.086l-.041-.01c.012.003.022.013.031.016.032.01.054.013.095.02.625.19 1.127-.201 1.127-.201l.028-.022 2.329-2.136 3.904 3.016.088.038c.814.36 1.638.16 2.073-.194.439-.355.61-.81.61-.81l.028-.073 3.017-15.567c.085-.384.107-.743.012-1.093a1.469 1.469 0 00-.63-.852 1.503 1.503 0 00-.862-.22zm-.083 1.669c-.003.05.007.044-.015.143v.01l-2.989 15.403c-.012.023-.035.07-.094.118-.064.05-.114.083-.376-.022l-4.775-3.688-2.884 2.648.606-3.897s7.48-7.022 7.8-7.324c.323-.302.216-.365.216-.365.022-.369-.486-.108-.486-.108l-9.837 6.138-.003-.016-4.715-1.599v-.003l-.012-.003c.003 0 .025-.01.025-.01l.025-.012.025-.01 8.49-3.602c2.142-.909 4.3-1.824 5.96-2.53a851 851 0 012.957-1.246c.067-.025.035-.025.082-.025z"/></symbol><symbol viewBox="0 0 24 24" id="viber" xmlns="http://www.w3.org/2000/svg"><path d="M8.022 6.29a.81.81 0 00-.53.104H7.48a4.06 4.06 0 00-.987.812c-.236.273-.364.549-.398.815-.02.158-.007.317.04.468l.018.01A11.66 11.66 0 007.19 10.74c.547.994 1.22 1.914 2.001 2.736l.024.033.037.027.023.027.027.024a13.37 13.37 0 002.743 2.01c1.138.62 1.829.914 2.243 1.035v.006c.122.037.233.054.344.054.353-.026.688-.17.95-.407.32-.284.59-.619.802-.99v-.007c.199-.374.132-.728-.155-.967a11.948 11.948 0 00-1.853-1.33c-.441-.24-.89-.095-1.071.148l-.388.488c-.198.242-.56.209-.56.209l-.01.006c-2.691-.687-3.41-3.412-3.41-3.412s-.033-.371.216-.56l.485-.39c.233-.19.394-.637.145-1.079-.38-.66-.825-1.28-1.327-1.853a.737.737 0 00-.435-.26l.002.002zm4.548-1.185a.493.493 0 000 .986c1.246 0 2.282.407 3.1 1.187.421.427.749.933.964 1.486.216.556.314 1.148.29 1.741a.493.493 0 10.984.042 5.28 5.28 0 00-.355-2.14 5.364 5.364 0 00-1.187-1.827l-.01-.01c-1.015-.97-2.302-1.465-3.786-1.465z"/><path d="M12.536 6.726a.493.493 0 000 .986h.016c.9.063 1.554.363 2.013.855.47.507.713 1.136.695 1.915a.493.493 0 00.985.023c.024-1.023-.305-1.905-.958-2.609-.668-.716-1.583-1.095-2.685-1.169h-.066z"/><path d="M12.518 8.377a.493.493 0 10-.052.984c.413.022.676.145.84.312.167.168.291.437.314.858a.493.493 0 00.984-.053c-.032-.591-.217-1.114-.597-1.498-.38-.385-.9-.572-1.49-.603z"/><path fill-rule="evenodd" clip-rule="evenodd" d="M7.136 2.526a21.833 21.833 0 019.526 0l.334.075a5.081 5.081 0 013.816 3.708 19.435 19.435 0 010 9.561 5.081 5.081 0 01-3.816 3.709l-.334.075a21.8 21.8 0 01-5.99.49l-2.616 2.34a.74.74 0 01-1.222-.428l-.432-2.584a5.081 5.081 0 01-3.416-3.602 19.434 19.434 0 010-9.56A5.08 5.08 0 016.802 2.6l.334-.074zm9.203 1.443a20.354 20.354 0 00-8.88 0l-.334.074a3.602 3.602 0 00-2.706 2.63 17.956 17.956 0 000 8.833 3.602 3.602 0 002.706 2.63l.088.02a.74.74 0 01.568.599l.29 1.733 1.845-1.652a.739.739 0 01.545-.186 20.355 20.355 0 005.878-.44l.334-.074a3.602 3.602 0 002.706-2.63 17.957 17.957 0 000-8.833 3.602 3.602 0 00-2.706-2.63l-.334-.074z"/></symbol><symbol viewBox="0 0 24 24" id="vk" xmlns="http://www.w3.org/2000/svg"><path d="M21.579 6.855c.14-.465 0-.806-.662-.806h-2.193c-.558 0-.813.295-.953.619 0 0-1.115 2.719-2.695 4.482-.51.513-.743.675-1.021.675-.139 0-.341-.162-.341-.627V6.855c0-.558-.161-.806-.626-.806H9.642c-.348 0-.558.258-.558.504 0 .528.79.65.871 2.138v3.228c0 .707-.127.836-.407.836-.743 0-2.551-2.73-3.624-5.853-.209-.607-.42-.852-.98-.852H2.752c-.627 0-.752.295-.752.619 0 .582.743 3.462 3.461 7.27 1.812 2.602 4.363 4.012 6.687 4.012 1.393 0 1.565-.313 1.565-.853v-1.966c0-.626.133-.752.574-.752.324 0 .882.164 2.183 1.417 1.486 1.486 1.732 2.153 2.567 2.153h2.192c.626 0 .939-.313.759-.931-.197-.615-.907-1.51-1.849-2.57-.512-.603-1.277-1.253-1.51-1.578-.325-.42-.231-.604 0-.976.001 0 2.672-3.761 2.95-5.04z"/></symbol><symbol viewBox="0 0 24 24" id="whatsapp" xmlns="http://www.w3.org/2000/svg"><path fill-rule="evenodd" clip-rule="evenodd" d="M19.086 4.907a9.896 9.896 0 00-3.23-2.156A9.934 9.934 0 0012.043 2c-5.488 0-9.957 4.446-9.959 9.91a9.86 9.86 0 001.33 4.955L2 22l5.279-1.379a10 10 0 004.759 1.207h.004c5.488 0 9.956-4.446 9.958-9.91a9.816 9.816 0 00-2.914-7.011zm-7.044 15.248h-.003a8.29 8.29 0 01-4.213-1.149l-.302-.179-3.132.818.835-3.04-.197-.31a8.194 8.194 0 01-1.265-4.384c.002-4.542 3.715-8.237 8.28-8.237a8.257 8.257 0 015.852 2.415 8.158 8.158 0 012.422 5.828c-.003 4.542-3.716 8.238-8.277 8.238zm4.54-6.17c-.25-.125-1.472-.723-1.7-.806-.228-.083-.393-.124-.56.124-.166.247-.643.804-.788.97-.145.166-.29.186-.539.062-.248-.124-1.05-.385-2.001-1.229-.74-.657-1.24-1.467-1.384-1.715-.146-.249-.016-.382.11-.506.111-.11.248-.29.372-.434.124-.145.165-.247.248-.413.084-.165.043-.31-.02-.434s-.56-1.343-.768-1.839c-.2-.48-.406-.416-.56-.423-.158-.006-.316-.01-.475-.009a.92.92 0 00-.665.31c-.228.248-.87.846-.87 2.065 0 1.219.892 2.397 1.016 2.563.124.165 1.755 2.666 4.25 3.739.595.255 1.059.407 1.42.522.595.189 1.137.161 1.567.098.478-.07 1.472-.598 1.679-1.177.207-.578.207-1.074.145-1.178-.062-.103-.23-.166-.477-.29z"/></symbol></svg>