<svg width="80" height="80" viewBox="0 0 80 80" fill="none" xmlns="http://www.w3.org/2000/svg">
<path d="M39 52L29.5 43L27.5 46.5L27 50L30.5 54L35 54.5L39 52Z" fill="#FFC861"/>
<path fill-rule="evenodd" clip-rule="evenodd" d="M43.4944 18.5629L19.8501 23.1115L19.4661 23.5414C18.743 24.3506 19.1396 25.7216 20.1616 25.9461C20.4057 25.9997 23.0585 25.5499 27.3014 24.7354C56.1991 19.1872 66.4086 17.2445 66.4469 17.2869C66.508 17.3545 71.7188 44.5444 71.7188 44.7955C71.7188 44.9264 71.5153 45.0319 71.141 45.0951C70.3797 45.2238 69.668 45.9114 69.668 46.5186C69.668 47.1448 69.9991 47.6873 70.5371 47.9425C70.9801 48.1528 71.1006 48.1486 72.5597 47.8712C73.9341 47.6099 74.162 47.5256 74.5557 47.1329C74.8718 46.8175 75 46.5635 75 46.2527C75 45.868 69.229 15.5098 69.0428 14.9153C68.9004 14.4607 68.1725 13.9856 67.6408 14.0003C67.3647 14.008 56.4987 16.0611 43.4944 18.5629ZM63.8574 22.4129C63.707 22.4401 53.002 23.5685 40.0684 24.9205C27.1348 26.2723 16.2812 27.416 15.9494 27.4618C15.0684 27.5833 14.5703 28.1232 14.5703 28.9571C14.5703 29.478 14.6428 29.6658 14.9699 29.993C15.2937 30.3168 15.4869 30.3926 15.9871 30.3926C16.5675 30.3926 61.9203 25.6887 62.7295 25.5446C62.972 25.5014 63.1048 25.5371 63.1036 25.6451C63.1025 25.7372 63.7567 32.0438 64.5574 39.6597C65.3582 47.2756 65.9897 53.5304 65.9608 53.5591C65.9319 53.5879 65.4468 53.675 64.8828 53.7528C64.0021 53.8741 63.8044 53.9532 63.4814 54.3135C62.8188 55.0527 62.969 56.0681 63.8152 56.568C64.1969 56.7934 64.3681 56.8 65.9578 56.6506C66.908 56.5613 67.8845 56.4262 68.1277 56.3505C68.7269 56.1639 69.1211 55.6296 69.1211 55.0042C69.1211 54.725 68.3855 47.4977 67.4865 38.9434C66.2202 26.8955 65.8018 23.314 65.6301 23.0519C65.5082 22.8659 65.1999 22.6265 64.9449 22.5198C64.485 22.3277 64.3838 22.3178 63.8574 22.4129ZM5.59705 31.1818C5.43668 31.3118 5.23666 31.5524 5.15271 31.7166C5.04279 31.9315 5 36.5234 5 48.1024V64.1895L5.4658 64.6553L5.9316 65.1211L33.8318 65.086L61.7321 65.0508L62.1111 64.6717L62.4902 64.2927L62.5261 48.0827L62.5619 31.8725L62.0954 31.406L61.6289 30.9395L33.7588 30.9425C7.55883 30.9454 5.87117 30.9598 5.59705 31.1818ZM59.5508 47.961V62.1114H33.7793H8.00781V47.961V33.8106H33.7793H59.5508V47.961ZM15.1135 35.5456C14.6353 35.8723 14.5263 36.0875 14.3371 37.0776C14.2452 37.5586 14.0181 38.1816 13.8324 38.4622C13.4375 39.0591 12.286 39.6895 11.5909 39.6895C11.0587 39.6895 10.4664 39.9984 10.1841 40.4231C9.9082 40.8384 9.8192 54.3954 10.087 55.2079C10.3004 55.8554 10.9943 56.3692 11.6555 56.3692C13.0382 56.3692 14.1283 57.4435 14.3607 59.0352C14.488 59.9068 14.6228 60.1499 15.1601 60.4776C15.5856 60.7371 16.0152 60.7432 33.752 60.7437C53.4187 60.7442 52.3851 60.7828 52.9116 60.0309C53.029 59.8635 53.125 59.5356 53.125 59.3026C53.125 58.5505 53.5295 57.6366 54.0842 57.1354C54.6001 56.6694 55.1102 56.466 56.1875 56.2963C56.5108 56.2455 56.8742 56.059 57.1104 55.8227L57.5 55.4332V48.0504V40.6675L57.15 40.2516C56.9192 39.9773 56.6279 39.8087 56.2955 39.7569C54.2533 39.439 53.3652 38.6323 53.1636 36.9117C53.0988 36.3588 52.9834 36.1056 52.6379 35.7589L52.1953 35.3145H33.8235C16.8009 35.3145 15.4266 35.3315 15.1135 35.5456ZM50.7285 39.2374C51.2602 40.458 52.3296 41.53 53.5661 42.0821L54.4848 42.4922L54.4885 47.9823L54.4922 53.4723L53.5964 53.8914C52.3707 54.4651 51.253 55.6043 50.7294 56.8135L50.3298 57.7364L33.783 57.7337L17.2363 57.7309L16.7763 56.752C16.0719 55.2533 14.7743 54.1142 13.1689 53.5855C12.9464 53.5122 12.9297 53.1216 12.9297 47.9652C12.9297 43.4243 12.9628 42.4239 13.1129 42.4239C13.2137 42.4239 13.663 42.2405 14.1113 42.0166C15.4422 41.3515 16.6088 39.994 17.0806 38.5616C17.1551 38.3355 18.0703 38.3223 33.7446 38.3223H50.3298L50.7285 39.2374ZM31.8118 40.1791C28.1396 41.1668 25.7241 44.2844 25.7296 48.0294C25.7329 50.3329 26.5633 52.2367 28.2652 53.8424C31.4596 56.8565 36.261 56.8034 39.388 53.7196C40.9949 52.135 41.7773 50.2714 41.7773 48.0294C41.7773 45.7025 41.0732 44.0204 39.3969 42.3421C38.2108 41.1545 37.2093 40.5686 35.6888 40.1725C34.6905 39.9126 32.7911 39.9158 31.8118 40.1791ZM35.2982 43.1727C37.3647 43.7863 38.7911 45.7697 38.7911 48.0294C38.7911 50.0305 37.7564 51.6702 35.9248 52.572C35.1012 52.9773 34.8992 53.0196 33.7822 53.0196C32.6819 53.0196 32.4507 52.9731 31.6384 52.5882C30.5057 52.0516 29.6925 51.2328 29.1475 50.0801C28.1298 47.9274 28.9014 45.1639 30.8943 43.8246C31.2583 43.5798 31.8412 43.2919 32.1893 43.1847C33.0254 42.9273 34.4532 42.9217 35.2982 43.1727Z" fill="#1E2831"/>
</svg>
