<svg width="1920" height="769" viewBox="0 0 1920 769" fill="none" xmlns="http://www.w3.org/2000/svg">
<path d="M1903.7 237.662C1904.61 238.496 1910.2 245.538 1912.88 248.954L1920 758.826L0 768.555L14.9281 308.54C15.924 308.019 18.0976 306.873 18.8329 306.456C19.7512 305.935 19.9805 305.761 20.9 304.892C21.8183 304.023 23.1963 304.023 23.8854 303.85C24.5744 303.677 25.033 303.329 26.8707 302.112C28.7085 300.897 28.4781 301.766 30.5451 300.549C31.9232 299.681 32.1536 299.681 33.9903 298.986C35.828 298.291 37.8951 298.465 38.3537 298.117C38.8134 297.77 39.5024 297.943 40.6512 297.596C41.7988 297.249 42.0292 297.249 43.4073 296.553C44.5086 295.998 45.091 295.396 45.2439 295.164L47.311 293.6C46.622 294.121 51.261 294.573 56.9573 292.906C57.8756 292.211 57.8756 292.384 60.6317 289.604C61.7341 288.493 62.4695 288.562 62.6988 288.737C63.4631 288.331 65.3159 287.312 66.6025 286.478C68.211 285.436 67.7512 285.436 68.4402 284.567C69.1293 283.698 69.1293 283.524 69.8183 281.267C70.278 280.745 71.5183 279.494 72.8037 278.66C73.4927 278.487 73.722 278.313 79.0049 276.228C80.6585 275.533 80.7651 275.244 80.6122 275.186L87.0427 271.364L88.6512 270.843L92.5549 270.322C94.1622 270.437 97.6073 270.322 98.5268 268.932C99.4451 267.542 101.205 266.963 101.972 266.848C102.354 266.673 103.396 266.152 104.498 265.458C105.6 264.763 105.569 264.589 105.416 264.589C106.412 264.126 108.632 263.025 109.55 262.331L111.388 260.941C111.923 260.767 113.455 260.107 115.291 258.856C116.989 257.701 117.118 257.84 116.947 258.096C117.367 257.524 118.419 256.076 119.656 254.34C119.885 253.819 120.804 251.212 121.033 250.518C121.263 249.823 121.493 249.823 124.019 247.043C124.938 246.174 124.478 246.174 125.398 245.306C126.316 244.437 126.316 243.916 128.612 242.005C130.082 241.032 130.143 241.599 129.99 242.005C130.603 241.889 132.011 241.588 132.746 241.31C133.665 240.963 133.895 240.963 135.043 240.094C136.191 239.225 135.962 239.573 137.799 238.183C139.637 236.793 138.718 237.314 140.555 236.272C142.393 235.23 141.933 236.272 143.311 236.272H147.905C149.282 236.272 150.201 236.446 155.024 234.535C155.713 233.493 155.713 233.319 155.943 232.624C156.172 231.93 156.172 231.755 158.01 229.15C158.194 228.872 160.23 227.876 161.224 227.413L165.818 223.591C170.029 220.869 178.45 215.217 178.45 214.383V213.515C179.063 212.994 180.471 211.882 181.206 211.604C182.124 211.256 182.813 210.562 183.732 209.693C184.651 208.824 185.34 208.998 185.569 208.477C185.754 208.06 188.861 207.261 190.393 206.913C191.771 206.508 194.665 205.697 195.216 205.697C195.767 205.697 197.282 205.003 197.971 204.655C199.196 204.423 201.829 203.786 202.565 203.092C203.483 202.223 203.943 203.092 204.632 202.571C205.321 202.049 207.157 202.571 209.913 201.528C212.67 200.486 212.44 201.007 213.589 200.312C214.507 199.756 214.889 200.08 214.967 200.312C216.344 199.617 220.295 198.331 225.072 198.748C231.043 199.269 229.435 197.706 231.273 197.012C232.743 196.456 232.804 196.78 232.651 197.012L235.406 195.795C236.708 195.622 239.495 195.378 240.229 195.795C241.149 196.316 243.905 195.274 245.971 195.274H248.038L250.105 196.316L251.713 197.012L254.01 201.528H256.077L257.913 202.571L260.9 203.092H263.885C264.437 203.092 264.88 203.671 265.033 203.96C266.029 203.902 268.202 203.821 268.938 203.96C269.673 204.099 270.622 205.176 271.005 205.697L274.909 208.998C275.292 208.824 276.471 208.581 278.124 208.998C279.778 209.415 281.263 212.762 281.799 214.383L284.095 216.815L285.015 219.074C285.627 219.189 287.035 219.664 287.771 220.637C288.505 221.61 292.211 222.548 293.971 222.896L294.89 223.243C295.12 222.78 295.671 221.853 296.038 221.853C296.406 221.853 297.263 222.548 297.646 222.896L301.091 219.422L303.617 219.074L305.455 217.511L307.98 217.163L308.44 216.121L310.278 215.426L313.952 211.083H316.249C316.478 210.851 317.213 210.249 318.316 209.693C319.418 209.137 321.378 209.345 322.22 209.519C322.45 209.056 323.093 207.991 323.828 207.435C324.562 206.878 326.43 206.856 327.273 206.913C327.273 207.145 327.456 207.712 328.191 208.129C328.927 208.547 331.866 208.534 333.244 208.477V205.697L335.311 205.349L338.067 203.439C338.22 203.96 338.756 204.968 339.674 204.828C340.594 204.69 339.751 203.844 339.216 203.439L341.282 201.702L342.89 201.354L343.579 203.96H347.024L350.469 202.918L358.048 196.664L359.656 198.054L365.856 194.926H368.154L374.354 192.842L386.527 187.109C386.833 186.646 387.721 185.511 388.823 184.677C389.926 183.843 392.038 183.866 392.957 183.982L405.359 175.123L411.56 170.606L415.234 170.085C415.234 169.1 416.337 166.401 420.746 163.483C425.156 160.565 428.402 160.298 429.473 160.53L434.756 157.75L435.445 156.36L436.363 156.708L441.876 153.928L442.105 152.886H443.713L451.062 148.543V147.5C452.517 146.226 456.207 143.262 459.33 141.594C463.234 139.509 468.746 137.772 471.962 137.077C475.177 136.382 474.029 136.035 474.259 134.819C474.488 133.603 476.326 132.734 477.704 131.518C479.082 130.302 481.149 123.701 481.378 122.137C481.607 120.573 484.823 117.447 485.052 116.057C485.282 114.667 486.66 114.668 487.809 111.54C488.957 108.413 490.794 108.934 492.402 107.198C493.688 105.808 496.306 103.955 497.455 103.202L501.129 101.464C501.896 101.175 503.839 100.561 505.493 100.422C507.146 100.283 507.711 101.291 507.789 101.812C508.171 101.812 509.076 101.847 509.627 101.985C510.178 102.124 512.304 104.823 513.301 106.155L515.368 105.112L516.746 103.202L520.651 103.897C522.18 103.202 525.52 101.812 526.622 101.812C527.724 101.812 527.848 102.738 527.771 103.202H529.607L543.388 94.5152L545.684 90.3458H547.751C548.44 89.1303 550.691 86.1423 554.182 83.918C557.673 81.6945 562.528 79.5174 564.517 78.7074L569.34 74.0161L575.311 70.1944L583.12 65.1563C583.567 64.32 583.876 63.4449 584.038 62.551C584.222 61.4388 586.257 60.8136 587.254 60.6402C587.865 60.0026 590.01 58.3466 593.684 56.8176C598.278 54.9068 603.1 54.3857 606.776 53.8646C609.715 53.4478 613.816 52.5335 615.502 52.1272L616.191 50.9117C623.233 51.0851 637.963 51.5711 640.535 52.1272C643.751 52.8225 646.737 52.8225 653.856 52.8225C659.552 52.8225 666.18 55.8333 668.784 57.3387C669.323 57.2809 670.806 57.2345 672.46 57.5129C674.113 57.7905 675.445 59.1339 675.905 59.7714C678.89 59.8292 685.643 60.2233 688.766 61.3346C691.889 62.4468 700.326 65.1563 704.154 66.3727L714.029 66.7204L716.784 68.8046L720.918 68.1102L723.445 70.7154H725.283L726.43 72.2795L728.727 72.4529L729.187 73.8427L731.713 74.3637V76.2746L732.632 76.7956L733.55 78.1854L735.617 78.8808L735.157 81.3127H736.766L737.455 81.8337L741.589 80.4439V83.0501L742.278 83.7446L743.196 87.3929L750.776 80.965C750.624 80.3861 750.683 78.6373 752.154 76.2746C753.623 73.9119 757.973 71.6998 759.962 70.8888L760.88 69.6733L763.177 69.3257C765.092 67.8781 769.194 64.8787 770.296 64.4619C771.674 63.9408 772.594 64.6352 773.052 64.4619C773.421 64.3226 775.042 63.3611 775.809 62.8978L779.254 62.2033C780.172 62.4354 782.101 62.9679 782.469 63.2455C782.837 63.5239 784.766 64.5197 785.684 64.9829C785.913 65.3306 786.419 66.1643 786.602 66.7204C786.787 67.2756 788.211 68.689 788.9 69.3257L790.967 67.5891V65.6774C790.888 65.3306 790.691 64.531 790.507 64.1142C790.323 63.6973 791.045 63.3611 791.426 63.2455V61.6823L792.804 61.3346C793.185 60.8136 794.09 59.7014 794.641 59.4238C795.193 59.1462 796.249 59.5394 796.709 59.7714L798.087 58.2074C798.454 57.7905 799.771 57.2231 800.383 56.9919C801.38 57.1075 803.873 57.4087 805.895 57.6863C808.421 58.034 808.421 56.6442 810.259 55.6021C811.728 54.7675 813.323 54.56 813.933 54.56L814.393 53.1702C814.622 52.8803 815.587 52.093 817.607 51.2585C819.629 50.4248 820.744 48.0165 821.052 46.9157L824.497 44.8315C825.416 43.4995 828.448 40.7313 833.224 40.3144C838.002 39.8976 839.196 41.0676 839.196 41.7042L843.56 38.4027C844.708 36.4341 847.372 32.15 848.843 30.7594C850.312 29.3696 851.139 29.6016 851.368 29.8906C851.291 30.1227 851.277 30.8636 851.828 31.9757C852.379 33.0879 853.743 32.439 854.354 31.9757C855.502 30.2383 857.983 26.4166 858.718 25.0268C859.452 23.637 863.003 21.2051 864.689 20.163C864.308 20.2208 863.449 20.3014 863.082 20.163C862.713 20.0229 864 18.599 864.689 17.9036C865.07 18.0788 866.067 18.1129 866.985 16.8615C867.905 15.611 870.122 14.1406 871.12 13.5609C873.035 12.1133 877.183 9.11391 878.469 8.69706C879.755 8.28022 879.925 7.13388 879.846 6.61282C882.221 5.45423 887.701 2.82529 890.641 1.57474C893.581 0.323325 895.694 1.16928 896.383 1.74814C897.224 1.22708 899.873 0.14993 903.732 0.0106891C907.59 -0.127676 909.015 1.11148 909.244 1.74814C909.244 1.69034 909.841 1.6089 912.229 1.74814C914.618 1.88738 915.982 4.00665 916.363 5.04964C917.59 5.39643 920.451 6.16095 922.105 6.43855C924.172 6.78622 923.943 8.00173 924.632 8.87046C925.183 9.56579 927.769 10.8978 928.995 11.4766C930.91 10.029 935.656 7.13301 939.33 7.13301C943.005 7.13301 945.609 9.91345 946.45 11.3032C947.217 11.2446 948.93 11.1631 949.665 11.3032C950.4 11.4416 951.962 12.4032 952.651 12.8664L952.191 15.9928C952.343 15.8194 953.11 15.681 954.948 16.5147C957.244 17.5568 957.933 16.5147 959.082 16.6881C960 16.8273 960.689 17.2092 960.918 17.3834L966.43 16.8615C967.657 17.3256 970.518 18.3213 972.172 18.599C973.826 18.8774 974.699 19.6411 974.928 19.9887L983.196 23.1151C984.193 23.9847 986.366 26.0348 987.1 27.2853C987.835 28.5359 990.008 29.1962 991.005 29.3696C991.465 28.443 992.888 26.59 994.909 26.59C996.93 26.59 997.435 27.4009 997.435 27.8064C997.895 27.633 998.905 27.2161 999.273 26.9377C999.64 26.6601 1001.11 27.0533 1001.8 27.2853C1002.26 27.0533 1003.45 26.59 1004.55 26.59C1005.66 26.59 1005.47 27.4009 1005.24 27.8064C1006.08 28.5595 1008.09 30.2733 1009.38 31.1079C1010.66 31.9407 1011.6 30.9914 1011.9 30.4126L1013.05 28.3283L1014.2 29.8915H1018.1L1019.25 31.107L1022.01 31.8023L1023.85 30.7602H1028.21C1028.59 29.7181 1029.63 27.5638 1030.74 27.2853C1031.84 27.0077 1032.73 28.443 1033.03 29.1962L1038.55 26.59H1040.84L1041.99 23.8104C1042.6 23.116 1045.11 21.6561 1050.26 21.3785C1055.4 21.1009 1059.6 23.5792 1061.05 24.8534C1061.13 25.3167 1061.24 26.4516 1061.05 27.2853C1060.87 28.119 1062.81 29.486 1063.81 30.0649L1065.65 29.1962C1067.18 29.1384 1071.16 29.0569 1074.83 29.1962C1078.51 29.3354 1081.87 32.2656 1083.1 33.7132H1089.07C1089.22 32.9601 1091.09 31.2463 1097.34 30.4117C1105.15 29.3696 1117.32 36.6662 1120.08 39.0989C1122.83 41.53 1126.28 48.3055 1126.74 50.3906C1127.1 52.058 1128.11 52.2428 1128.57 52.1272C1130.72 52.185 1135.65 52.4748 1138.22 53.1693C1140.79 53.8646 1142.81 57.5129 1143.5 59.2504C1144.11 59.5394 1145.57 60.3967 1146.49 61.508C1147.41 62.6202 1146.87 67.4148 1146.49 69.6733L1147.87 70.3678C1148.4 70.31 1149.8 70.4028 1151.08 71.2365C1152.37 72.0711 1152.54 73.3207 1152.46 73.8427L1160.04 79.2284L1159.57 83.7446L1162.33 84.4399V85.8297C1162.11 86.8718 1161.51 89.3387 1160.95 90.8678C1160.41 92.3959 1160.73 95.5582 1160.95 96.948L1162.33 96.0792C1162.94 95.8472 1164.45 95.3147 1165.55 95.0362C1166.65 94.7586 1167.84 93.6465 1168.3 93.1254L1170.83 92.0833C1171.14 91.4466 1172.07 90.1033 1173.35 89.8248C1174.64 89.5472 1175.89 90.4045 1176.34 90.8678C1177.27 91.2146 1179.33 92.1525 1180.24 93.1254C1181.17 94.0983 1183.85 96.0792 1185.07 96.948C1185.37 97.5846 1186.13 98.9972 1186.68 99.5533C1187.37 100.249 1187.83 100.422 1189.67 100.595C1191.13 100.735 1192.26 102.507 1192.65 103.375C1192.96 104.302 1193.57 106.398 1193.57 107.371C1193.57 108.344 1194.64 108.934 1195.18 109.108C1195.95 110.324 1197.94 112.965 1199.77 113.799C1201.61 114.632 1204.98 114.725 1206.43 114.667L1211.02 116.057H1220.9L1224.11 117.099L1229.4 118.663H1231.7L1235.83 120.052L1240.43 124.048L1243.4 125.264C1244.78 125.033 1247.68 124.986 1248.23 126.654C1248.78 128.322 1248.46 130.129 1248.23 130.823H1252.82L1257.41 131.171C1259.56 130.302 1264.3 128.46 1266.15 128.043C1268.44 127.522 1273.95 128.565 1280.38 129.781C1286.82 130.997 1304.27 137.599 1305.41 138.815C1306.33 139.787 1306.41 140.61 1306.33 140.899L1311.39 146.806H1313L1315.52 148.717H1316.9C1318.96 150.57 1323.1 154.693 1323.1 156.36V162.44L1328.16 164.873L1331.37 162.44C1331.13 162.267 1330.68 161.642 1330.68 160.53C1330.68 159.14 1332.06 159.835 1333.67 157.229C1334.96 155.145 1335.73 155.318 1335.96 155.666C1336.65 155.028 1338.4 153.651 1339.87 153.234C1341.34 152.816 1342.62 153.407 1343.09 153.755C1344.23 153.349 1346.94 152.503 1348.6 152.365C1350.24 152.226 1350.97 152.886 1351.12 153.234H1358.01C1359.62 153.234 1360.3 154.102 1362.15 154.797C1363.62 155.353 1363.83 157.229 1363.76 158.098C1364.82 158.155 1367.29 158.41 1368.57 158.966C1369.86 159.522 1369.87 160.819 1369.72 161.398L1370.87 164.004L1372.48 167.478L1375.46 169.216L1376.61 171.3H1378.91L1380.29 172.864L1388.33 171.3L1390.39 169.216L1391.77 170.258L1396.13 169.216C1397.13 170.258 1399.35 172.656 1400.27 173.906C1401.18 175.157 1405.55 179.871 1407.62 182.071C1408.46 181.782 1410.33 181.099 1411.06 180.681C1411.98 180.16 1413.35 178.423 1414.05 178.076C1414.6 177.797 1415.66 177.612 1416.11 177.555C1416.57 177.149 1417.95 176.269 1419.79 175.991C1421.62 175.713 1424.38 176.57 1425.54 177.034C1425.46 177.67 1425.35 179.291 1425.54 180.681C1425.71 182.071 1427.45 183.461 1428.29 183.982C1429.06 184.098 1430.96 184.608 1432.43 185.719C1433.89 186.831 1433.8 188.383 1433.57 189.02C1435.1 189.831 1438.53 191.869 1440 193.537C1441.47 195.204 1441.99 197.358 1442.06 198.227L1443.9 199.096L1445.05 200.659C1446.13 200.949 1448.64 201.736 1450.11 202.571C1451.58 203.404 1452.09 206.045 1452.17 207.261L1454.93 208.303V210.388L1459.06 216.989C1460.14 217.626 1462.51 219.074 1463.43 219.768C1464.34 220.464 1466.26 223.996 1467.1 225.675C1466.87 226.486 1466.55 228.42 1467.1 229.671C1467.65 230.922 1469.32 232.045 1470.09 232.451C1471.15 232.451 1473.44 232.555 1473.99 232.972C1474.54 233.389 1474.98 234.187 1475.13 234.535L1478.35 237.314L1479.05 238.183C1479.65 238.82 1481.06 240.198 1481.8 240.615C1482.53 241.032 1483.63 243.221 1484.1 244.263L1486.85 238.183H1488.69C1489.46 236.504 1491.27 232.693 1492.37 230.887C1493.47 229.08 1497.41 226.659 1499.26 225.675V223.938L1502.24 222.027L1505 221.332L1506.83 219.768L1509.35 218.9H1511.66L1513.27 218.032L1513.95 216.989L1518.78 214.036L1521.07 212.298C1521.91 212.009 1523.92 211.326 1525.21 210.909C1526.49 210.492 1526.5 211.431 1526.35 211.952L1529.34 212.298L1530.26 210.909H1532.33L1537.38 207.261L1546.11 206.392L1554.38 204.655C1555.14 204.076 1557.13 202.779 1558.96 202.223C1560.8 201.667 1563.86 201.412 1565.17 201.354L1566.55 197.533H1567.93V195.448H1569.76L1572.06 190.063L1573.67 185.893V184.677L1577.11 182.071L1578.02 178.597L1580.78 176.686V175.469C1582.54 174.312 1586.43 171.821 1587.9 171.127C1589.74 170.258 1592.73 170.085 1595.26 169.564C1597.27 169.146 1600.39 167.305 1601.68 166.436C1603.44 166.204 1607.24 165.741 1608.34 165.741C1609.44 165.741 1610.95 164.004 1611.56 163.136H1614.55L1615.93 161.398C1616.61 161.63 1618.22 162.094 1619.13 162.094C1620.06 162.094 1620.13 161.051 1620.06 160.53C1620.29 160.066 1621.07 159.071 1622.35 158.792C1623.64 158.514 1627.33 157.982 1629.01 157.75L1631.09 156.013H1638.89C1640.04 155.607 1642.7 154.728 1644.17 154.449C1645.64 154.172 1647.08 152.596 1647.62 151.844C1648.62 151.322 1651.85 150.315 1656.8 150.454C1661.76 150.593 1664.99 153.755 1665.99 155.318C1667.6 156.013 1670.96 157.472 1671.5 157.75C1672.06 158.028 1672.5 158.792 1672.65 159.14C1673.72 159.661 1676.14 160.842 1677.24 161.398C1678.34 161.954 1680.46 164.525 1681.38 165.741L1684.13 166.436C1684.82 166.61 1689.88 171.3 1689.88 171.995V173.906H1691.71L1702.28 182.939C1702.81 182.361 1704.2 181.203 1705.49 181.203C1706.77 181.203 1709.55 180.508 1710.78 180.16C1711.69 179.639 1714.03 178.632 1716.06 178.77C1718.08 178.909 1720.43 180.45 1721.34 181.203C1722.34 181.029 1724.78 180.681 1726.62 180.681C1728.46 180.681 1731.67 181.724 1733.05 182.245L1736.5 182.939C1737.73 183.172 1740.4 183.669 1741.32 183.808C1742.24 183.947 1743.24 184.445 1743.62 184.677L1747.76 186.067H1760.61C1762.3 186.472 1765.89 187.456 1766.82 188.152C1767.73 188.846 1768.88 190.642 1769.34 191.452L1772.1 191.974C1772.63 192.9 1773.75 194.926 1773.94 195.622C1774.11 196.316 1775.69 196.722 1776.46 196.837V198.054L1777.84 198.748C1778.37 198.69 1779.67 198.61 1780.6 198.748C1781.51 198.887 1782.04 200.08 1782.2 200.659L1788.63 207.608H1791.16C1793 208.129 1796.72 209.589 1796.9 211.256C1797.09 212.924 1795.14 214.616 1794.15 215.252L1795.98 216.989V217.511L1798.05 218.553V221.158L1808.84 215.947L1811.83 213.688L1813.89 212.646C1813.77 212.39 1813.77 212.109 1813.9 211.854C1814.02 211.599 1814.27 211.387 1814.59 211.256C1815.5 210.839 1817.11 211.083 1817.8 211.256L1821.01 209.172C1820.56 208.998 1819.91 208.443 1821.01 207.608C1822.11 206.774 1823 206.798 1823.32 206.913C1824.31 206.856 1826.57 206.774 1827.67 206.913C1828.78 207.053 1829.36 208.477 1829.51 209.172L1831.8 208.651L1833.65 209.866H1836.4L1838.93 211.256C1840.39 211.141 1843.48 210.979 1844.21 211.256C1844.95 211.535 1846.96 212.994 1847.89 213.688L1846.51 215.947L1847.89 216.989L1848.57 218.553C1848.89 218.784 1849.63 219.422 1850.18 220.116C1850.74 220.811 1850.41 221.101 1850.18 221.158C1850.65 221.506 1851.56 222.305 1851.56 222.722C1851.56 223.139 1849.57 224.865 1848.57 225.675L1849.49 226.892V228.107L1852.48 229.844L1854.09 228.107L1856.38 225.675L1858.22 224.633L1858.91 223.243V222.201H1860.29V220.637C1860.66 220.174 1861.62 219.247 1862.35 219.247L1863.27 217.511L1864.88 216.989L1867.4 215.947L1870.62 215.252C1870.85 214.905 1871.49 214.244 1872.23 214.383C1872.96 214.523 1874.68 215.483 1875.44 215.947C1876.52 216.237 1878.8 216.955 1879.35 217.511C1879.9 218.066 1880.35 218.9 1880.5 219.247L1881.88 220.116C1882.41 220.232 1883.63 220.499 1884.17 220.637C1884.73 220.776 1886.09 222.432 1886.7 223.243C1887.08 223.417 1887.93 223.799 1888.3 223.938C1888.68 224.077 1889.22 225.154 1889.45 225.675L1894.28 229.15C1897.04 231.64 1902.78 236.828 1903.7 237.662Z" fill="url(#paint0_linear_41_344)"/>
<defs>
<linearGradient id="paint0_linear_41_344" x1="960" y1="0.000180295" x2="960" y2="768.555" gradientUnits="userSpaceOnUse">
<stop stop-color="#F5F7F7"/>
<stop offset="0.0001" stop-color="#F5F7F7"/>
<stop offset="0.808" stop-color="#F5F7F7" stop-opacity="0"/>
</linearGradient>
</defs>
</svg>
