<svg width="1920" height="1016" viewBox="0 0 1920 1016" fill="none" xmlns="http://www.w3.org/2000/svg">
<path d="M1903.7 314.043C1904.61 315.144 1910.2 324.449 1912.88 328.963L1920 1002.7L0 1015.55L14.9281 407.7C15.924 407.011 18.0976 405.496 18.8329 404.946C19.7512 404.257 19.9805 404.027 20.9 402.879C21.8183 401.731 23.1963 401.731 23.8854 401.502C24.5744 401.273 25.033 400.813 26.8707 399.206C28.7085 397.6 28.4781 398.748 30.5451 397.141C31.9232 395.993 32.1536 395.993 33.9903 395.075C35.828 394.156 37.8951 394.386 38.3537 393.927C38.8134 393.468 39.5024 393.697 40.6512 393.239C41.7988 392.779 42.0292 392.779 43.4073 391.86C44.5086 391.127 45.091 390.331 45.2439 390.024L47.311 387.958C46.622 388.647 51.261 389.244 56.9573 387.041C57.8756 386.122 57.8756 386.351 60.6317 382.678C61.7341 381.21 62.4695 381.301 62.6988 381.531C63.4631 380.996 65.3159 379.649 66.6025 378.547C68.211 377.17 67.7512 377.17 68.4402 376.022C69.1293 374.874 69.1293 374.644 69.8183 371.661C70.278 370.971 71.5183 369.319 72.8037 368.217C73.4927 367.988 73.722 367.758 79.0049 365.003C80.6585 364.085 80.7651 363.703 80.6122 363.626L87.0427 358.575L88.6512 357.887L92.5549 357.198C94.1622 357.351 97.6073 357.198 98.5268 355.362C99.4451 353.525 101.205 352.761 101.972 352.608C102.354 352.378 103.396 351.689 104.498 350.771C105.6 349.853 105.569 349.623 105.416 349.623C106.412 349.011 108.632 347.557 109.55 346.639L111.388 344.803C111.923 344.574 113.455 343.701 115.291 342.047C116.989 340.521 117.118 340.705 116.947 341.043C117.367 340.287 118.419 338.375 119.656 336.08C119.885 335.391 120.804 331.948 121.033 331.03C121.263 330.111 121.493 330.111 124.019 326.438C124.938 325.29 124.478 325.29 125.398 324.142C126.316 322.995 126.316 322.306 128.612 319.781C130.082 318.495 130.143 319.245 129.99 319.781C130.603 319.628 132.011 319.23 132.746 318.863C133.665 318.404 133.895 318.404 135.043 317.256C136.191 316.108 135.962 316.568 137.799 314.731C139.637 312.895 138.718 313.583 140.555 312.206C142.393 310.829 141.933 312.206 143.311 312.206H147.905C149.282 312.206 150.201 312.435 155.024 309.91C155.713 308.533 155.713 308.304 155.943 307.385C156.172 306.468 156.172 306.237 158.01 302.795C158.194 302.427 160.23 301.111 161.224 300.499L165.818 295.449C170.029 291.853 178.45 284.384 178.45 283.283V282.135C179.063 281.446 180.471 279.977 181.206 279.61C182.124 279.15 182.813 278.233 183.732 277.085C184.651 275.937 185.34 276.166 185.569 275.477C185.754 274.927 188.861 273.871 190.393 273.412C191.771 272.876 194.665 271.805 195.216 271.805C195.767 271.805 197.282 270.887 197.971 270.427C199.196 270.121 201.829 269.28 202.565 268.362C203.483 267.214 203.943 268.362 204.632 267.673C205.321 266.984 207.157 267.673 209.913 266.295C212.67 264.918 212.44 265.607 213.589 264.689C214.507 263.954 214.889 264.382 214.967 264.689C216.344 263.77 220.295 262.072 225.072 262.622C231.043 263.311 229.435 261.245 231.273 260.328C232.743 259.593 232.804 260.021 232.651 260.328L235.406 258.72C236.708 258.491 239.495 258.17 240.229 258.72C241.149 259.409 243.905 258.032 245.971 258.032H248.038L250.105 259.409L251.713 260.328L254.01 266.295H256.077L257.913 267.673L260.9 268.362H263.885C264.437 268.362 264.88 269.127 265.033 269.509C266.029 269.432 268.202 269.326 268.938 269.509C269.673 269.693 270.622 271.116 271.005 271.805L274.909 276.166C275.292 275.937 276.471 275.615 278.124 276.166C279.778 276.717 281.263 281.139 281.799 283.283L284.095 286.496L285.015 289.48C285.627 289.633 287.035 290.26 287.771 291.546C288.505 292.832 292.211 294.071 293.971 294.53L294.89 294.99C295.12 294.378 295.671 293.153 296.038 293.153C296.406 293.153 297.263 294.071 297.646 294.53L301.091 289.94L303.617 289.48L305.455 287.415L307.98 286.955L308.44 285.578L310.278 284.66L313.952 278.921H316.249C316.478 278.615 317.213 277.82 318.316 277.085C319.418 276.35 321.378 276.625 322.22 276.854C322.45 276.243 323.093 274.835 323.828 274.1C324.562 273.366 326.43 273.335 327.273 273.412C327.273 273.717 327.456 274.467 328.191 275.018C328.927 275.57 331.866 275.554 333.244 275.477V271.805L335.311 271.345L338.067 268.82C338.22 269.509 338.756 270.841 339.674 270.657C340.594 270.474 339.751 269.356 339.216 268.82L341.282 266.526L342.89 266.066L343.579 269.509H347.024L350.469 268.132L358.048 259.868L359.656 261.705L365.856 257.572H368.154L374.354 254.818L386.527 247.242C386.833 246.63 387.721 245.13 388.823 244.029C389.926 242.927 392.038 242.957 392.957 243.111L405.359 231.404L411.56 225.435L415.234 224.747C415.234 223.446 416.337 219.88 420.746 216.024C425.156 212.167 428.402 211.815 429.473 212.121L434.756 208.448L435.445 206.612L436.363 207.071L441.876 203.398L442.105 202.021H443.713L451.062 196.281V194.904C452.517 193.221 456.207 189.304 459.33 187.099C463.234 184.345 468.746 182.049 471.962 181.132C475.177 180.213 474.029 179.755 474.259 178.147C474.488 176.54 476.326 175.392 477.704 173.786C479.082 172.179 481.149 163.456 481.378 161.39C481.607 159.324 484.823 155.193 485.052 153.356C485.282 151.52 486.66 151.52 487.809 147.387C488.957 143.255 490.794 143.944 492.402 141.649C493.688 139.812 496.306 137.364 497.455 136.369L501.129 134.073C501.896 133.691 503.839 132.88 505.493 132.696C507.146 132.512 507.711 133.844 507.789 134.532C508.171 134.532 509.076 134.579 509.627 134.761C510.178 134.945 512.304 138.512 513.301 140.271L515.368 138.894L516.746 136.369L520.651 137.288C522.18 136.369 525.52 134.532 526.622 134.532C527.724 134.532 527.848 135.757 527.771 136.369H529.607L543.388 124.891L545.684 119.381H547.751C548.44 117.775 550.691 113.827 554.182 110.888C557.673 107.95 562.528 105.073 564.517 104.003L569.34 97.8035L575.311 92.7536L583.12 86.0964C583.567 84.9913 583.876 83.8349 584.038 82.6538C584.222 81.1842 586.257 80.358 587.254 80.1289C587.865 79.2864 590.01 77.0982 593.684 75.0778C598.278 72.5528 603.1 71.8643 606.776 71.1758C609.715 70.625 613.816 69.4169 615.502 68.8799L616.191 67.2738C623.233 67.5029 637.963 68.1451 640.535 68.8799C643.751 69.7987 646.737 69.7987 653.856 69.7987C659.552 69.7987 666.18 73.7771 668.784 75.7663C669.323 75.6899 670.806 75.6286 672.46 75.9966C674.113 76.3634 675.445 78.1385 675.905 78.9809C678.89 79.0573 685.643 79.578 688.766 81.0465C691.889 82.5161 700.326 86.0964 704.154 87.7037L714.029 88.1631L716.784 90.9172L720.918 89.9996L723.445 93.4422H725.283L726.43 95.5089L728.727 95.738L729.187 97.5744L731.713 98.2629V100.788L732.632 101.476L733.55 103.313L735.617 104.232L735.157 107.445H736.766L737.455 108.134L741.589 106.297V109.741L742.278 110.659L743.196 115.479L750.776 106.986C750.624 106.221 750.683 103.91 752.154 100.788C753.623 97.6658 757.973 94.7428 759.962 93.6713L760.88 92.0651L763.177 91.6057C765.092 89.6929 769.194 85.7296 770.296 85.1788C771.674 84.4902 772.594 85.4079 773.052 85.1788C773.421 84.9948 775.042 83.7242 775.809 83.112L779.254 82.1944C780.172 82.5011 782.101 83.2046 782.469 83.5714C782.837 83.9394 784.766 85.2551 785.684 85.8673C785.913 86.3267 786.419 87.4283 786.602 88.1631C786.787 88.8968 788.211 90.7645 788.9 91.6057L790.967 89.311V86.7849C790.888 86.3267 790.691 85.2702 790.507 84.7194C790.323 84.1685 791.045 83.7242 791.426 83.5714V81.5059L792.804 81.0465C793.185 80.358 794.09 78.8884 794.641 78.5215C795.193 78.1547 796.249 78.6743 796.709 78.9809L798.087 76.9142C798.454 76.3634 799.771 75.6136 800.383 75.3081C801.38 75.4608 803.873 75.8589 805.895 76.2257C808.421 76.6851 808.421 74.8487 810.259 73.4716C811.728 72.3688 813.323 72.0946 813.933 72.0946L814.393 70.2581C814.622 69.8751 815.587 68.8348 817.607 67.732C819.629 66.6304 820.744 63.4482 821.052 61.9936L824.497 59.2395C825.416 57.4795 828.448 53.8216 833.224 53.2708C838.002 52.72 839.196 54.266 839.196 55.1072L843.56 50.7447C844.708 48.1434 847.372 42.4825 848.843 40.6449C850.312 38.8084 851.139 39.1151 851.368 39.4969C851.291 39.8036 851.277 40.7826 851.828 42.2522C852.379 43.7218 853.743 42.8643 854.354 42.2522C855.502 39.9563 857.983 34.9064 858.718 33.07C859.452 31.2336 863.003 28.0201 864.689 26.643C864.308 26.7194 863.449 26.8259 863.082 26.643C862.713 26.4579 864 24.5763 864.689 23.6575C865.07 23.889 866.067 23.9341 866.985 22.2805C867.905 20.628 870.122 18.6852 871.12 17.9191C873.035 16.0063 877.183 12.043 878.469 11.4921C879.755 10.9413 879.925 9.42659 879.846 8.73807C882.221 7.20713 887.701 3.73329 890.641 2.08084C893.581 0.427236 895.694 1.54507 896.383 2.30996C897.224 1.62144 899.873 0.198115 903.732 0.0141243C907.59 -0.168709 909.015 1.46869 909.244 2.30996C909.244 2.23359 909.841 2.12597 912.229 2.30996C914.618 2.49395 915.982 5.29432 916.363 6.67251C917.59 7.13075 920.451 8.14097 922.105 8.50779C924.172 8.96719 923.943 10.5733 924.632 11.7213C925.183 12.6401 927.769 14.4001 928.995 15.165C930.91 13.2522 935.656 9.42543 939.33 9.42543C943.005 9.42543 945.609 13.0995 946.45 14.9359C947.217 14.8584 948.93 14.7508 949.665 14.9359C950.4 15.1187 951.962 16.3893 952.651 17.0015L952.191 21.1326C952.343 20.9035 953.11 20.7206 954.948 21.8223C957.244 23.1993 957.933 21.8223 959.082 22.0514C960 22.2354 960.689 22.7399 960.918 22.9702L966.43 22.2805C967.657 22.8938 970.518 24.2095 972.172 24.5763C973.826 24.9443 974.699 25.9534 974.928 26.4128L983.196 30.5439C984.193 31.693 986.366 34.4019 987.1 36.0544C987.835 37.7068 990.008 38.5793 991.005 38.8084C991.465 37.5841 992.888 35.1356 994.909 35.1356C996.93 35.1356 997.435 36.2071 997.435 36.7429C997.895 36.5138 998.905 35.9629 999.273 35.595C999.64 35.2281 1001.11 35.7477 1001.8 36.0544C1002.26 35.7477 1003.45 35.1356 1004.55 35.1356C1005.66 35.1356 1005.47 36.2071 1005.24 36.7429C1006.08 37.738 1008.09 40.0026 1009.38 41.1054C1010.66 42.2059 1011.6 40.9515 1011.9 40.1866L1013.05 37.4325L1014.2 39.4981H1018.1L1019.25 41.1043L1022.01 42.0231L1023.85 40.646H1028.21C1028.59 39.269 1029.63 36.4223 1030.74 36.0544C1031.84 35.6875 1032.73 37.5841 1033.03 38.5793L1038.55 35.1356H1040.84L1041.99 31.4627C1042.6 30.545 1045.11 28.616 1050.26 28.2492C1055.4 27.8824 1059.6 31.1572 1061.05 32.8409C1061.13 33.453 1061.24 34.9527 1061.05 36.0544C1060.87 37.156 1062.81 38.9623 1063.81 39.7272L1065.65 38.5793C1067.18 38.5029 1071.16 38.3953 1074.83 38.5793C1078.51 38.7633 1081.87 42.6352 1083.1 44.548H1089.07C1089.22 43.5529 1091.09 41.2883 1097.34 40.1855C1105.15 38.8084 1117.32 48.45 1120.08 51.6646C1122.83 54.877 1126.28 63.83 1126.74 66.5853C1127.1 68.7885 1128.11 69.0327 1128.57 68.8799C1130.72 68.9563 1135.65 69.3393 1138.22 70.257C1140.79 71.1758 1142.81 75.9966 1143.5 78.2924C1144.11 78.6743 1145.57 79.8072 1146.49 81.2756C1147.41 82.7452 1146.87 89.0808 1146.49 92.0651L1147.87 92.9827C1148.4 92.9064 1149.8 93.029 1151.08 94.1307C1152.37 95.2335 1152.54 96.8848 1152.46 97.5744L1160.04 104.691L1159.57 110.659L1162.33 111.577V113.414C1162.11 114.791 1161.51 118.051 1160.95 120.071C1160.41 122.09 1160.73 126.269 1160.95 128.105L1162.33 126.957C1162.94 126.651 1164.45 125.947 1165.55 125.579C1166.65 125.212 1167.84 123.743 1168.3 123.054L1170.83 121.677C1171.14 120.836 1172.07 119.061 1173.35 118.693C1174.64 118.326 1175.89 119.459 1176.34 120.071C1177.27 120.529 1179.33 121.769 1180.24 123.054C1181.17 124.34 1183.85 126.957 1185.07 128.105C1185.37 128.947 1186.13 130.813 1186.68 131.548C1187.37 132.467 1187.83 132.696 1189.67 132.925C1191.13 133.109 1192.26 135.451 1192.65 136.598C1192.96 137.823 1193.57 140.592 1193.57 141.878C1193.57 143.164 1194.64 143.944 1195.18 144.174C1195.95 145.78 1197.94 149.27 1199.77 150.372C1201.61 151.473 1204.98 151.596 1206.43 151.52L1211.02 153.356H1220.9L1224.11 154.733L1229.4 156.799H1231.7L1235.83 158.635L1240.43 163.915L1243.4 165.521C1244.78 165.216 1247.68 165.155 1248.23 167.358C1248.78 169.562 1248.46 171.95 1248.23 172.867H1252.82L1257.41 173.327C1259.56 172.179 1264.3 169.745 1266.15 169.194C1268.44 168.506 1273.95 169.884 1280.38 171.49C1286.82 173.097 1304.27 181.82 1305.41 183.428C1306.33 184.712 1306.41 185.8 1306.33 186.182L1311.39 193.987H1313L1315.52 196.512H1316.9C1318.96 198.96 1323.1 204.408 1323.1 206.612V214.646L1328.16 217.86L1331.37 214.646C1331.13 214.417 1330.68 213.591 1330.68 212.121C1330.68 210.284 1332.06 211.203 1333.67 207.759C1334.96 205.005 1335.73 205.235 1335.96 205.694C1336.65 204.852 1338.4 203.031 1339.87 202.48C1341.34 201.928 1342.62 202.71 1343.09 203.169C1344.23 202.633 1346.94 201.515 1348.6 201.333C1350.24 201.149 1350.97 202.021 1351.12 202.48H1358.01C1359.62 202.48 1360.3 203.627 1362.15 204.546C1363.62 205.281 1363.83 207.76 1363.76 208.907C1364.82 208.984 1367.29 209.321 1368.57 210.055C1369.86 210.79 1369.87 212.504 1369.72 213.269L1370.87 216.713L1372.48 221.303L1375.46 223.599L1376.61 226.353H1378.91L1380.29 228.42L1388.33 226.353L1390.39 223.599L1391.77 224.976L1396.13 223.599C1397.13 224.976 1399.35 228.144 1400.27 229.797C1401.18 231.449 1405.55 237.678 1407.62 240.585C1408.46 240.203 1410.33 239.301 1411.06 238.749C1411.98 238.06 1413.35 235.765 1414.05 235.306C1414.6 234.938 1415.66 234.694 1416.11 234.618C1416.57 234.082 1417.95 232.919 1419.79 232.551C1421.62 232.184 1424.38 233.317 1425.54 233.929C1425.46 234.77 1425.35 236.912 1425.54 238.749C1425.71 240.585 1427.45 242.422 1428.29 243.111C1429.06 243.264 1430.96 243.937 1432.43 245.406C1433.89 246.876 1433.8 248.926 1433.57 249.767C1435.1 250.839 1438.53 253.533 1440 255.736C1441.47 257.939 1441.99 260.786 1442.06 261.934L1443.9 263.082L1445.05 265.147C1446.13 265.53 1448.64 266.571 1450.11 267.673C1451.58 268.775 1452.09 272.264 1452.17 273.871L1454.93 275.248V278.002L1459.06 286.725C1460.14 287.568 1462.51 289.48 1463.43 290.398C1464.34 291.317 1466.26 295.985 1467.1 298.203C1466.87 299.275 1466.55 301.83 1467.1 303.483C1467.65 305.136 1469.32 306.62 1470.09 307.156C1471.15 307.156 1473.44 307.294 1473.99 307.845C1474.54 308.396 1474.98 309.451 1475.13 309.91L1478.35 313.583L1479.05 314.731C1479.65 315.572 1481.06 317.394 1481.8 317.945C1482.53 318.495 1483.63 321.388 1484.1 322.765L1486.85 314.731H1488.69C1489.46 312.513 1491.27 307.477 1492.37 305.09C1493.47 302.702 1497.41 299.504 1499.26 298.203V295.907L1502.24 293.382L1505 292.465L1506.83 290.398L1509.35 289.251H1511.66L1513.27 288.103L1513.95 286.725L1518.78 282.823L1521.07 280.527C1521.91 280.145 1523.92 279.243 1525.21 278.691C1526.49 278.14 1526.5 279.381 1526.35 280.069L1529.34 280.527L1530.26 278.691H1532.33L1537.38 273.871L1546.11 272.723L1554.38 270.427C1555.14 269.663 1557.13 267.949 1558.96 267.214C1560.8 266.479 1563.86 266.142 1565.17 266.066L1566.55 261.016H1567.93V258.261H1569.76L1572.06 251.145L1573.67 245.636V244.029L1577.11 240.585L1578.02 235.995L1580.78 233.47V231.862C1582.54 230.333 1586.43 227.042 1587.9 226.124C1589.74 224.976 1592.73 224.747 1595.26 224.058C1597.27 223.506 1600.39 221.074 1601.68 219.926C1603.44 219.619 1607.24 219.007 1608.34 219.007C1609.44 219.007 1610.95 216.713 1611.56 215.565H1614.55L1615.93 213.269C1616.61 213.575 1618.22 214.188 1619.13 214.188C1620.06 214.188 1620.13 212.809 1620.06 212.121C1620.29 211.509 1621.07 210.193 1622.35 209.825C1623.64 209.458 1627.33 208.755 1629.01 208.448L1631.09 206.152H1638.89C1640.04 205.616 1642.7 204.455 1644.17 204.087C1645.64 203.72 1647.08 201.638 1647.62 200.644C1648.62 199.954 1651.85 198.624 1656.8 198.808C1661.76 198.99 1664.99 203.169 1665.99 205.235C1667.6 206.152 1670.96 208.081 1671.5 208.448C1672.06 208.816 1672.5 209.825 1672.65 210.284C1673.72 210.973 1676.14 212.534 1677.24 213.269C1678.34 214.004 1680.46 217.401 1681.38 219.007L1684.13 219.926C1684.82 220.155 1689.88 226.353 1689.88 227.272V229.797H1691.71L1702.28 241.733C1702.81 240.968 1704.2 239.438 1705.49 239.438C1706.77 239.438 1709.55 238.52 1710.78 238.06C1711.69 237.372 1714.03 236.041 1716.06 236.224C1718.08 236.408 1720.43 238.443 1721.34 239.438C1722.34 239.208 1724.78 238.749 1726.62 238.749C1728.46 238.749 1731.67 240.127 1733.05 240.815L1736.5 241.733C1737.73 242.04 1740.4 242.697 1741.32 242.881C1742.24 243.065 1743.24 243.722 1743.62 244.029L1747.76 245.865H1760.61C1762.3 246.401 1765.89 247.702 1766.82 248.621C1767.73 249.538 1768.88 251.91 1769.34 252.982L1772.1 253.67C1772.63 254.895 1773.75 257.572 1773.94 258.491C1774.11 259.409 1775.69 259.945 1776.46 260.097V261.705L1777.84 262.622C1778.37 262.546 1779.67 262.44 1780.6 262.622C1781.51 262.806 1782.04 264.382 1782.2 265.147L1788.63 274.329H1791.16C1793 275.018 1796.72 276.947 1796.9 279.15C1797.09 281.355 1795.14 283.589 1794.15 284.43L1795.98 286.725V287.415L1798.05 288.792V292.234L1808.84 285.348L1811.83 282.364L1813.89 280.987C1813.77 280.648 1813.77 280.277 1813.9 279.94C1814.02 279.603 1814.27 279.323 1814.59 279.15C1815.5 278.599 1817.11 278.921 1817.8 279.15L1821.01 276.396C1820.56 276.166 1819.91 275.432 1821.01 274.329C1822.11 273.228 1823 273.259 1823.32 273.412C1824.31 273.335 1826.57 273.228 1827.67 273.412C1828.78 273.596 1829.36 275.477 1829.51 276.396L1831.8 275.708L1833.65 277.314H1836.4L1838.93 279.15C1840.39 278.998 1843.48 278.783 1844.21 279.15C1844.95 279.518 1846.96 281.446 1847.89 282.364L1846.51 285.348L1847.89 286.725L1848.57 288.792C1848.89 289.097 1849.63 289.94 1850.18 290.857C1850.74 291.776 1850.41 292.159 1850.18 292.234C1850.65 292.694 1851.56 293.75 1851.56 294.301C1851.56 294.852 1849.57 297.133 1848.57 298.203L1849.49 299.811V301.417L1852.48 303.712L1854.09 301.417L1856.38 298.203L1858.22 296.826L1858.91 294.99V293.613H1860.29V291.546C1860.66 290.934 1861.62 289.71 1862.35 289.71L1863.27 287.415L1864.88 286.725L1867.4 285.348L1870.62 284.43C1870.85 283.971 1871.49 283.099 1872.23 283.283C1872.96 283.467 1874.68 284.736 1875.44 285.348C1876.52 285.731 1878.8 286.68 1879.35 287.415C1879.9 288.148 1880.35 289.251 1880.5 289.71L1881.88 290.857C1882.41 291.011 1883.63 291.363 1884.17 291.546C1884.73 291.73 1886.09 293.918 1886.7 294.99C1887.08 295.219 1887.93 295.725 1888.3 295.907C1888.68 296.091 1889.22 297.515 1889.45 298.203L1894.28 302.795C1897.04 306.085 1902.78 312.941 1903.7 314.043Z" fill="url(#paint0_linear_41_712)"/>
<defs>
<linearGradient id="paint0_linear_41_712" x1="960" y1="0.000238238" x2="960" y2="1015.55" gradientUnits="userSpaceOnUse">
<stop stop-color="#F5F7F7"/>
<stop offset="0.0001" stop-color="#F5F7F7"/>
<stop offset="0.808" stop-color="#F5F7F7" stop-opacity="0"/>
</linearGradient>
</defs>
</svg>
