<svg width="80" height="80" viewBox="0 0 80 80" fill="none" xmlns="http://www.w3.org/2000/svg">
<path d="M53.5 68L65 40.5V68H53.5Z" fill="#FFC861"/>
<path fill-rule="evenodd" clip-rule="evenodd" d="M58.0656 11.1624C57.8487 11.2409 57.4651 11.4783 57.2129 11.6901C56.8224 12.0179 49.1211 21.7005 48.3655 22.8136C47.8151 23.6242 47.9026 24.768 48.5773 25.5867C49.0675 26.1813 49.5962 26.3744 50.9283 26.4456L52.0712 26.5066V46.7704V67.0341H49.3751H46.679V52.5513C46.679 36.7431 46.7193 37.6693 46.011 37.1891C45.6993 36.9779 45.3848 36.9666 39.8215 36.9666C34.2583 36.9666 33.9438 36.9779 33.6321 37.1891C32.9237 37.6693 32.964 36.7431 32.964 52.5513V67.0341H30.2712H27.5784L27.5458 57.3926C27.5151 48.3153 27.5008 47.7328 27.3012 47.4388C26.8373 46.7555 26.8295 46.7547 20.6636 46.7547C14.5206 46.7547 14.4695 46.7597 14.0273 47.4127C13.8053 47.7406 13.7973 48.0476 13.7663 57.3926L13.7344 67.0341H12.3778C11.3323 67.0341 10.9466 67.078 10.6966 67.2258C9.73827 67.7919 9.77661 69.2016 10.763 69.6697C11.0945 69.827 14.386 69.8474 39.392 69.8474C57.7508 69.8474 67.7534 69.8067 67.9516 69.7313C68.5002 69.5228 68.834 69.0488 68.834 68.4781C68.834 67.4422 68.2724 67.0341 66.8471 67.0341H65.9034V46.7715V26.5089L67.1136 26.4471C67.8719 26.4084 68.4563 26.3169 68.6788 26.2019C69.0957 25.9862 69.7411 25.2817 69.8968 24.8721C70.071 24.414 70.0196 23.6427 69.7809 23.1344C69.4854 22.5051 61.726 12.6243 60.9401 11.8768C60.0689 11.048 59.0687 10.7994 58.0656 11.1624ZM62.7878 18.7027C64.8238 21.2942 66.4895 23.4379 66.4895 23.4666C66.4895 23.4954 65.9225 23.5384 65.2294 23.5624C63.9001 23.6085 63.623 23.7059 63.2258 24.2666C63.0468 24.5194 63.029 26.2188 63.0009 45.7876L62.9704 67.0341H58.9873H55.0042L54.9738 45.7876C54.9456 26.2188 54.9278 24.5194 54.7488 24.2666C54.3513 23.7054 54.075 23.6085 52.7399 23.5622C52.0438 23.5381 51.4899 23.4775 51.509 23.4276C51.5932 23.2071 58.9369 13.9377 59.0074 13.963C59.0507 13.9785 60.7519 16.1113 62.7878 18.7027ZM43.8657 53.4363V67.0341H39.8215H35.7774V53.4363V39.8386H39.8215H43.8657V53.4363ZM24.6413 58.301V67.0341H20.6557H16.6702V58.301V49.568H20.6557H24.6413V58.301Z" fill="#1E2831"/>
</svg>
