<svg width="80" height="80" viewBox="0 0 80 80" fill="none" xmlns="http://www.w3.org/2000/svg">
<path d="M73.5 58L27 53V73L71.5 59.5L73.5 58Z" fill="#FFC861"/>
<path fill-rule="evenodd" clip-rule="evenodd" d="M67.6178 5.11556C66.7555 5.37874 65.8177 6.04867 61.6871 9.35142C57.9671 12.3262 57.2201 12.9823 56.9733 13.492C56.8121 13.825 56.6802 14.2311 56.6802 14.3942C56.6802 14.6192 56.4845 14.7897 55.8697 15.1001C55.424 15.325 54.9633 15.6463 54.8458 15.8139C54.7284 15.9817 54.344 16.8444 53.9916 17.731C53.6393 18.6178 53.2994 19.3433 53.2363 19.3433C53.1732 19.3433 52.3325 18.9479 51.3681 18.4646C48.877 17.2164 48.0397 16.9033 46.7818 16.7499C45.2288 16.5605 43.6475 16.8329 42.2562 17.5292C41.0423 18.1369 40.2114 19.0389 33.9342 26.5641L27.4694 34.3142L16.679 37.1787C6.44144 39.8965 5.86598 40.0656 5.44434 40.4805L5 40.9178V51.6618V62.4058L5.37598 62.8028C5.94296 63.4014 26.3391 74.9887 26.8237 74.9874C27.0401 74.9869 37.8285 71.6696 50.7984 67.6158C72.3054 60.8935 74.4068 60.211 74.6895 59.8579L74.9993 59.4707L75 48.8276C75.0007 38.9365 74.9837 38.1559 74.7614 37.7781C74.5849 37.4783 73.6374 36.8662 71.1497 35.4447L67.7773 33.5178L68.1699 33.0274C69.2703 31.6522 69.4835 29.8458 68.7267 28.3086C68.0098 26.8524 67.6442 26.6101 61.5831 23.5767C58.5482 22.0579 56.0503 20.8025 56.0323 20.7871C56.0144 20.7718 56.2696 20.0868 56.5994 19.2651C57.3125 17.4889 57.6387 17.1752 58.4295 17.5057C58.6889 17.6141 59.1543 17.7027 59.4637 17.7027C60.1562 17.7027 71.3803 14.5207 72.356 14.0478C74.7398 12.8922 75.725 9.73095 74.4126 7.44869C73.7938 6.37284 72.7507 5.53187 71.6022 5.18337C70.9233 4.97733 68.2213 4.93126 67.6178 5.11556ZM71.4621 8.52631C71.9407 9.00511 71.9928 9.1261 71.9928 9.75884C71.9928 10.3615 71.9302 10.5278 71.5485 10.9374C71.1247 11.3921 70.8537 11.4858 65.6695 12.9689C62.6804 13.8241 60.2349 14.4813 60.2349 14.4295C60.2349 14.3418 65.7602 9.87191 67.4679 8.57813L68.233 7.99844L69.5822 7.99707L70.9312 7.99557L71.4621 8.52631ZM47.0089 19.8191C47.7051 20.0004 52.1684 22.1268 52.1684 22.2772C52.1684 22.7282 51.2565 23.3369 44.6975 27.2641C40.7496 29.6278 37.4318 31.6872 37.3245 31.8405C37.0618 32.2152 37.0771 33.1536 37.3522 33.5462C37.6358 33.951 38.356 34.2554 38.7824 34.1505C39.1736 34.0544 53.595 25.4492 54.0649 25.0318C54.243 24.8734 54.5028 24.4813 54.642 24.1604L54.895 23.5771L60.1285 26.1908C63.0069 27.6284 65.4985 28.9304 65.6656 29.0844C66.3676 29.7312 66.317 30.9845 65.567 31.5278C65.2639 31.7474 25.3807 41.8204 25.2664 41.7062C25.2437 41.6835 29.1187 36.9981 33.8775 31.2942C39.4454 24.6204 42.7535 20.7647 43.1575 20.478C43.8189 20.0085 44.9365 19.6408 45.748 19.6258C46.0142 19.6209 46.5816 19.7078 47.0089 19.8191ZM67.1531 36.5952L69.8321 38.1244L69.306 38.2827C69.0167 38.3698 59.3913 41.3785 47.9163 44.9688L27.0528 51.4963L18.7007 46.7237L10.3486 41.9511L17.1309 40.1494C20.8612 39.1586 23.9396 38.3741 23.9717 38.4062C24.0038 38.4383 23.0972 39.5787 21.9571 40.9404C20.817 42.3022 19.8017 43.614 19.7008 43.8556C19.3801 44.624 19.8665 45.5876 20.6889 45.8126C20.8666 45.8611 22.1184 45.6187 23.6485 45.2396L26.3 44.5823L28.5359 45.9225C30.8572 47.3139 31.3089 47.4686 31.989 47.1046C32.3487 46.9121 32.7546 46.208 32.7536 45.778C32.7527 45.2778 32.2114 44.6542 31.3095 44.114L30.3908 43.5638L30.9231 43.4237C31.2158 43.3466 32.4513 43.0345 33.6686 42.7301L35.8818 42.1767L37.7018 43.2697C39.7943 44.5263 40.2483 44.6263 40.9637 43.9871C41.5804 43.436 41.6603 42.6553 41.1605 42.0614C40.9556 41.8181 40.5955 41.5182 40.36 41.395L39.932 41.1714L42.5297 40.5151C43.9584 40.1542 45.2379 39.8572 45.3732 39.8552C45.5084 39.853 46.2434 40.2205 47.0066 40.6717C47.7696 41.1228 48.5388 41.492 48.7157 41.492C49.4868 41.492 50.255 40.727 50.2538 39.9607C50.2535 39.7878 50.1328 39.4486 49.9854 39.2068C49.838 38.9653 49.7613 38.7434 49.8151 38.7138C49.8687 38.6844 51.0877 38.3696 52.5238 38.0142L55.135 37.3681L56.07 37.9404C57.0581 38.5451 57.6614 38.6638 58.2222 38.3635C58.7199 38.0972 59.049 37.4444 58.9604 36.8987C58.8927 36.4817 58.9227 36.4247 59.2523 36.3413C59.4544 36.2902 60.6348 35.9879 61.8755 35.6696C63.1163 35.3513 64.2085 35.0854 64.3027 35.0786C64.3969 35.0717 65.6796 35.7542 67.1531 36.5952ZM71.9525 57.8475C71.9085 57.8915 29.2297 71.2446 28.6868 71.3842L28.3791 71.4633V62.8401V54.2168L29.7122 53.7949C30.4454 53.5629 40.243 50.4987 51.4848 46.9857L71.9245 40.5984L71.9597 49.2018C71.979 53.9336 71.9759 57.8243 71.9525 57.8475ZM16.7921 49.0775L25.3713 53.971V62.4289C25.3713 67.0808 25.3479 70.8868 25.3193 70.8868C25.2909 70.8868 21.3841 68.6674 16.6376 65.9549L8.00784 61.0228V52.5483C8.00784 47.8872 8.05392 44.0984 8.11038 44.1288C8.16685 44.1591 12.0735 46.3861 16.7921 49.0775Z" fill="#1E2831"/>
</svg>
