<svg width="80" height="80" viewBox="0 0 80 80" fill="none" xmlns="http://www.w3.org/2000/svg">
<path d="M48.5 68L13.5 53L11.5 57.5V68H48.5Z" fill="#FFC861"/>
<path fill-rule="evenodd" clip-rule="evenodd" d="M44.7378 10.1313C42.5171 10.6759 40.6001 12.6491 40.1378 14.8662C40.0659 15.2106 40.0082 16.6364 40.0082 18.0663C40.0082 20.7968 40.0731 21.1751 40.5879 21.4505C40.9289 21.633 41.6802 21.5953 41.9873 21.3801C42.5134 21.0117 42.5871 20.5895 42.5871 17.9457C42.5871 15.0135 42.6993 14.5543 43.6477 13.6059C44.0196 13.2339 44.4472 12.9492 44.8727 12.7899C45.5156 12.5493 45.6825 12.5453 55.0124 12.5453C64.3422 12.5453 64.5092 12.5493 65.152 12.7899C66.0242 13.1162 66.8668 13.9588 67.1931 14.831C67.4366 15.4819 67.4377 15.551 67.4377 31.4808V47.4768H59.6894H51.9412L51.5427 47.8754C51.2477 48.1703 51.1442 48.376 51.1446 48.6666C51.1452 49.2586 51.5205 49.7845 52.0465 49.9306C52.3378 50.0115 55.0814 50.0546 59.9649 50.0549L67.4377 50.0556L67.437 50.9641C67.4366 51.4637 67.3825 52.0666 67.3166 52.3036C67.1384 52.9455 66.5109 53.8049 65.9053 54.237C64.9517 54.9172 64.4577 54.9789 59.9637 54.9789C55.5972 54.9789 55.4348 55.0006 55.1525 55.6203C54.7466 56.5109 55.218 57.3515 56.2063 57.4997C56.497 57.5433 58.5496 57.5567 60.7675 57.5293C64.2046 57.4871 64.8954 57.4493 65.4449 57.2731C67.6625 56.5623 69.2875 54.9007 69.8326 52.7866C70.0011 52.1325 70.0169 50.1888 69.989 33.4454L69.9579 14.8311L69.6989 14.1456C69.0337 12.3843 67.6019 10.9493 65.8506 10.2886L65.1519 10.0251L55.2468 10.0041C47.6041 9.98796 45.2038 10.017 44.7378 10.1313ZM29.1654 22.4667C26.1022 22.8126 23.7213 23.9656 21.7764 26.0447C19.1021 28.9037 18.1002 32.8716 19.1028 36.634C19.3436 37.5375 20.2816 39.5131 20.8282 40.2678C22.3918 42.4266 24.8706 44.0774 27.5552 44.7476C28.7743 45.0519 31.328 45.0214 32.6676 44.6865C37.0563 43.5895 40.3394 40.0473 41.1208 35.5662C41.7399 32.0157 40.6068 28.4737 38.0048 25.8268C37.0145 24.8193 36.0538 24.1433 34.716 23.5123C33.4432 22.9121 32.6231 22.6821 31.1582 22.5145C30.116 22.3952 29.8537 22.3889 29.1654 22.4667ZM54.3568 22.5101C53.578 22.6686 53.0678 22.9287 52.4888 23.4625C51.7286 24.1631 51.3551 24.946 51.2873 25.9812C51.1834 27.5647 51.8969 28.8238 53.3053 29.5422C54.0184 29.9059 54.212 29.9525 55.0124 29.9525C55.8128 29.9525 56.0064 29.9059 56.7194 29.5422C57.6376 29.0738 58.2873 28.3303 58.6015 27.3878C58.8742 26.5703 58.7765 25.3306 58.3779 24.5477C57.639 23.0968 55.8728 22.2017 54.3568 22.5101ZM31.1665 25.0964C34.0586 25.4987 36.5186 27.2604 37.7833 29.8352C38.0366 30.351 38.2767 30.9155 38.3169 31.0898C38.3882 31.3993 38.3794 31.4052 37.939 31.3422C36.6456 31.1575 34.8416 29.8697 33.8413 28.4174C33.1664 27.4374 32.5565 27.2059 31.8615 27.6659C31.6681 27.7939 31.1406 28.1903 30.6893 28.5468C28.6841 30.1306 25.9325 31.0996 22.9809 31.261L21.6025 31.3364L21.7767 30.8426C22.4525 28.9273 24.1458 26.9554 25.8833 26.0609C27.6977 25.1266 29.2916 24.8357 31.1665 25.0964ZM55.4038 25.0807C56.2011 25.3838 56.4743 26.4497 55.9016 27.0226C55.1045 27.8197 53.8357 27.3347 53.8439 26.236C53.8481 25.6663 54.0043 25.4061 54.496 25.1496C54.8948 24.9417 55.0144 24.9326 55.4038 25.0807ZM33.1678 31.5223C34.6424 32.9506 36.2342 33.7492 37.9995 33.9465L38.7453 34.0298L38.6666 34.7267C38.1985 38.8635 34.6943 42.1618 30.5135 42.4011C26.6597 42.6217 23.1612 40.3339 21.8474 36.7342C21.59 36.0289 21.2531 34.4488 21.2531 33.9468C21.2531 33.9288 21.9784 33.8834 22.8649 33.8459C25.5066 33.7342 27.7896 33.1535 29.9451 32.0448C30.7089 31.6519 32.2131 30.6986 32.2131 30.6074C32.2131 30.602 32.6427 31.0137 33.1678 31.5223ZM51.2943 32.5864C50.7007 32.7274 49.7165 33.247 49.1912 33.6966C48.0527 34.6711 47.5103 36.0421 47.5103 37.9456V39.1777L47.9089 39.5762C48.228 39.8954 48.3999 39.9748 48.7722 39.9748C49.7083 39.9748 50.0873 39.3408 50.0884 37.7731C50.0895 36.4572 50.4933 35.7088 51.4372 35.2731C51.8548 35.0804 52.2425 35.0564 54.9868 35.0541C57.5067 35.052 58.1467 35.0846 58.5018 35.233C59.4947 35.6478 59.9288 36.41 59.9337 37.7476C59.9396 39.3452 60.3123 39.9748 61.2526 39.9748C61.6275 39.9748 61.7967 39.8954 62.128 39.5641L62.5386 39.1535L62.4888 37.7179C62.4503 36.6063 62.3816 36.1369 62.1846 35.6376C61.637 34.2508 60.4428 33.1439 59.0203 32.7044C58.3433 32.4954 57.947 32.4739 54.9708 32.4846C53.1562 32.4913 51.5019 32.537 51.2943 32.5864ZM17.0332 50.1206C13.6389 50.8491 11.0947 53.2999 10.2363 56.668C10.0151 57.5361 10 57.9647 10 63.3906V69.1859L10.3985 69.5845L10.7971 69.983H30.017C49.2019 69.983 49.2375 69.9825 49.5418 69.7433C49.7095 69.6113 49.9009 69.308 49.9672 69.0693C50.1259 68.4978 50.1284 58.9783 49.9702 57.7167C49.716 55.6896 48.854 53.9464 47.3991 52.5173C46.057 51.1991 44.6438 50.448 42.8651 50.1077C41.5796 49.8618 18.1849 49.8734 17.0332 50.1206ZM42.6762 52.6938C44.7642 53.186 46.496 54.7811 47.1846 56.846C47.4293 57.5799 47.4434 57.8478 47.4839 62.5102L47.5264 67.4042H30.0527H12.5788V62.6228C12.5788 58.7075 12.6113 57.7165 12.7583 57.1524C13.3198 54.9968 15.1367 53.2098 17.2995 52.6857C17.7725 52.5711 20.6546 52.5353 29.9274 52.529C40.1316 52.522 42.0529 52.5468 42.6762 52.6938Z" fill="#1E2831"/>
</svg>
