<svg width="80" height="80" viewBox="0 0 80 80" fill="none" xmlns="http://www.w3.org/2000/svg">
<path d="M29.5 54.5L6 43H5.5L6 68.5H62V67.5L58 65.5L51.5 63L42.5 59.5L29.5 54.5Z" fill="#FFC861"/>
<path fill-rule="evenodd" clip-rule="evenodd" d="M33.6967 10.9922C33.1927 11.5294 30.3448 14.623 27.3681 17.8672L21.9563 23.7656H13.7383H5.52031L5.18047 24.1272L4.84078 24.4889V46.0022V67.5156H2.8025C0.846563 67.5156 0.748594 67.5311 0.380625 67.8992C-0.126875 68.4066 -0.126875 69.1247 0.380625 69.632L0.764062 70.0156H39.997H79.23L79.6134 69.632C80.1209 69.1247 80.1209 68.4066 79.6134 67.8992C79.2355 67.5211 79.1909 67.5156 76.4884 67.5156H73.747V66.7512C73.747 66.0545 73.7837 65.9778 74.1617 65.883C74.8673 65.7058 75.8711 64.9075 76.3736 64.1237C77.133 62.9395 77.23 62.2016 76.9412 59.8106C76.2738 54.2848 74.9495 50.2414 73.5227 49.3712C72.9116 48.9986 72.5439 49.003 71.9078 49.3909C70.4695 50.2678 69.2877 53.8739 68.507 59.7673C68.1986 62.0964 68.3041 62.94 69.0517 64.1187C69.5225 64.8611 70.6016 65.7073 71.3011 65.883C71.6791 65.9778 71.7158 66.0545 71.7158 66.7512V67.5156H67.4189H63.122L63.1275 56.9297L63.133 46.3437L63.7916 47.1187C67.2245 51.1587 67.2509 51.1856 67.833 51.2347C68.2986 51.2741 68.4623 51.1995 68.8044 50.7931C69.2586 50.2533 69.3037 50.0031 69.0369 49.5044C68.7248 48.9216 35.9658 10.2173 35.697 10.1142C34.9987 9.84624 34.6136 10.0153 33.6967 10.9922ZM47.5587 27.8822C54.3139 35.8611 59.8408 42.4177 59.8408 42.4525C59.8408 42.4872 53.4775 42.5156 45.7002 42.5156H31.5595V33.5242V24.5326L31.1759 24.1492C30.798 23.7711 30.7537 23.7656 28.0459 23.7656H25.2994L30.1648 18.5237C32.8408 15.6408 35.0858 13.3028 35.1536 13.3284C35.2214 13.3541 40.8037 19.9033 47.5587 27.8822ZM29.0595 46.8906V67.5156H27.8897H26.7197L26.6788 49.6894L26.6377 31.863L26.2688 31.5644C25.9202 31.282 25.5756 31.2656 19.9727 31.2656H14.0453L13.6619 31.6492L13.2783 32.0326V49.7742V67.5156H10.3095H7.34078V46.8906V26.2656H18.2002H29.0595V46.8906ZM24.2158 45.0156V56.2656H19.997H15.7783V45.0156V33.7656H19.997H24.2158V45.0156ZM41.247 56.2656V67.5156H36.4033H31.5595V56.2656V45.0156H36.4033H41.247V56.2656ZM60.622 56.2656V67.5156H52.1845H43.747V56.2656V45.0156H52.1845H60.622V56.2656ZM73.4981 52.9681C74.3175 55.5619 75.2494 61.023 75.0525 62.0773C74.8925 62.9344 74.1675 63.9219 73.6986 63.9219C73.6606 63.9219 73.5975 63.5362 73.5584 63.0648C73.4797 62.1161 73.1239 61.5781 72.5752 61.5781C72.0264 61.5781 71.6706 62.1161 71.5919 63.0648C71.5528 63.5362 71.4655 63.9219 71.3978 63.9219C71.1384 63.9219 70.4661 62.9409 70.2952 62.3133C69.9161 60.9205 71.1075 54.46 72.2283 51.8305L72.5537 51.0672L72.8356 51.4153C72.9908 51.6069 73.2889 52.3056 73.4981 52.9681ZM24.2158 63.1406V67.5156H19.997H15.7783V63.1406V58.7656H19.997H24.2158V63.1406Z" fill="#1E2831"/>
</svg>
