<svg width="80" height="80" viewBox="0 0 80 80" fill="none" xmlns="http://www.w3.org/2000/svg">
<path d="M26 73L10.5 41V73L20 74L26 73Z" fill="#FFC861"/>
<path fill-rule="evenodd" clip-rule="evenodd" d="M51.7824 5.39963L51.3828 5.79926V9.51171V13.2242L51.7824 13.6238C52.3451 14.1865 53.1548 14.1865 53.7175 13.6238L54.1171 13.2242V9.51171V5.79926L53.7175 5.39963C53.404 5.08627 53.1954 5 52.7499 5C52.3045 5 52.0959 5.08627 51.7824 5.39963ZM40.4603 10.7963C40.0309 11.0342 39.7725 11.5198 39.7665 12.0999C39.7621 12.5255 39.9673 12.7761 41.9764 14.7985C43.3884 16.2201 44.3502 17.0806 44.6306 17.173C45.6475 17.5087 46.6649 16.4913 46.3292 15.4744C46.2368 15.194 45.3763 14.2322 43.9547 12.8202C41.9324 10.8111 41.6818 10.6059 41.2561 10.6102C40.9982 10.613 40.6401 10.6967 40.4603 10.7963ZM61.5515 12.8139C60.3287 14.0285 59.2553 15.1985 59.166 15.414C58.918 16.0128 59.2442 16.7564 59.8953 17.0764C60.7328 17.4876 61.0503 17.2883 63.5235 14.7985C65.44 12.8692 65.7382 12.5115 65.7382 12.1407C65.7382 11.2098 65.1391 10.6055 64.2163 10.6055C63.8284 10.6055 63.5034 10.8748 61.5515 12.8139ZM51.0032 19.7538C50.6063 19.9008 50.077 20.1479 49.8265 20.3026C49.0975 20.7531 48.1118 21.8977 47.7247 22.7432C47.4075 23.436 47.3549 23.773 47.2614 25.7125C47.1441 28.1441 46.952 29.0614 46.2472 30.5554C44.4608 34.3427 39.9986 37.6808 33.4726 40.1121C31.5706 40.8205 28.435 41.7773 28.0145 41.7773C27.8837 41.7773 27.6905 41.6165 27.5854 41.4199C27.273 40.8363 26.1351 39.9044 25.4494 39.6707C24.8957 39.4821 23.8109 39.4531 17.305 39.4531H9.79926L9.39963 39.8527L9 40.2523V57.2265V74.2006L9.39963 74.6003L9.79926 74.9999H17.305C25.9234 74.9999 25.6452 75.0334 26.8478 73.8506C27.2372 73.4676 27.6187 73.0362 27.6956 72.892C27.83 72.6399 27.9675 72.6626 31.2351 73.4763C37.1974 74.9609 36.7623 74.9255 49.0611 74.9288L59.6594 74.9315L60.5577 74.4894C61.6541 73.9498 62.7364 72.8501 63.2505 71.7532C63.5775 71.0556 63.6191 70.8046 63.6191 69.5312C63.6191 68.2609 63.577 68.0059 63.2539 67.3165L62.8886 66.5373L63.5957 66.1377C64.521 65.6147 65.5296 64.5214 65.987 63.5453C66.3115 62.853 66.3534 62.5994 66.3534 61.328C66.3534 60.0578 66.3113 59.8028 65.9883 59.1133L65.6229 58.3342L66.3301 57.9346C67.2554 57.4116 68.2639 56.3183 68.7214 55.3422C69.0458 54.6499 69.0878 54.3963 69.0878 53.1249C69.0878 51.8547 69.0457 51.5997 68.7226 50.9102L68.3573 50.1311L69.0644 49.7314C69.9897 49.2085 70.9983 48.1152 71.4558 47.1391C71.7805 46.4465 71.8222 46.1934 71.8222 44.9189C71.8222 43.5739 71.7935 43.4223 71.38 42.5826C70.8404 41.4864 69.7405 40.404 68.6439 39.89L67.8573 39.5214L62.0685 39.4817C56.6738 39.4446 56.2859 39.4259 56.3698 39.2082C56.9644 37.6684 57.7562 34.3624 58.0795 32.0703C58.3086 30.4465 58.4035 26.1325 58.2412 24.7214C57.9828 22.475 56.8337 20.7926 54.972 19.9355C53.9006 19.4424 52.0696 19.3585 51.0032 19.7538ZM35.3762 22.6262C35.0628 22.9397 34.9765 23.1483 34.9765 23.5937C34.9765 24.0392 35.0628 24.2478 35.3762 24.5613L35.7758 24.9609H39.0781H42.3804L42.78 24.5613C43.0934 24.2478 43.1796 24.0392 43.1796 23.5937C43.1796 23.1483 43.0934 22.9397 42.78 22.6262L42.3804 22.2265H39.0781H35.7758L35.3762 22.6262ZM53.5015 22.3798C54.2523 22.5882 55.1376 23.4984 55.3492 24.2796C55.6157 25.2633 55.4478 30.9052 55.091 32.9589C54.7627 34.8478 54.2958 36.646 53.7774 38.0175C53.5785 38.5439 53.3817 39.0822 53.3403 39.2138C53.2719 39.4307 53.0216 39.4531 50.6726 39.4531H48.0805L47.6808 39.8527C47.3675 40.1662 47.2812 40.3748 47.2812 40.8203C47.2812 41.2657 47.3675 41.4743 47.6808 41.7878L48.0805 42.1874L57.3537 42.1883C63.4028 42.1887 66.8064 42.2389 67.1433 42.3324C68.0936 42.5962 68.8943 43.501 69.0873 44.5288C69.3055 45.692 68.3503 47.1762 67.1733 47.5029C66.8336 47.5973 65.1872 47.655 62.8224 47.6554L59.0179 47.6562L58.6183 48.0558C58.0556 48.6186 58.0556 49.4282 58.6183 49.9909L59.0179 50.3906L61.4552 50.3914C64.1718 50.3922 64.7087 50.4887 65.4071 51.1019C66.2516 51.8433 66.5581 52.7946 66.2823 53.8186C66.0755 54.5869 65.1846 55.4991 64.439 55.706C64.0992 55.8004 62.4529 55.8581 60.088 55.8585L56.2836 55.8593L55.8839 56.2589C55.5706 56.5724 55.4843 56.7811 55.4843 57.2265C55.4843 57.6719 55.5706 57.8806 55.8839 58.194L56.2836 58.5937L58.7208 58.5945C61.4374 58.5953 61.9743 58.6918 62.6727 59.305C63.5172 60.0464 63.8237 60.9977 63.548 62.0218C63.3411 62.79 62.4503 63.7022 61.7046 63.9092C61.3648 64.0035 59.7185 64.0612 57.3537 64.0616L53.5492 64.0624L53.1496 64.462C52.5868 65.0248 52.5868 65.8344 53.1496 66.3972L53.5492 66.7968L55.9865 66.7976C58.7031 66.7984 59.24 66.895 59.9383 67.5081C60.7828 68.2496 61.0894 69.2008 60.8136 70.2249C60.6067 70.9931 59.7159 71.9053 58.9702 72.1123C58.2589 72.3098 43.1379 72.3202 40.1011 72.1253C36.7987 71.9133 34.3097 71.4362 28.6533 69.9305L28.1406 69.7941V57.2359V44.6778L29.1318 44.4403C29.677 44.3097 31.2005 43.8484 32.5172 43.4155C40.7004 40.7243 46.3629 36.6871 48.7176 31.8652C49.6395 29.9775 49.8847 28.9327 50.0013 26.3965C50.1099 24.0367 50.201 23.709 50.945 23.0019C51.3586 22.6088 52.1856 22.2428 52.6816 22.2332C52.832 22.2304 53.201 22.2963 53.5015 22.3798ZM62.7199 22.6262C62.4065 22.9397 62.3202 23.1483 62.3202 23.5937C62.3202 24.0392 62.4065 24.2478 62.7199 24.5613L63.1195 24.9609H66.4218H69.7241L70.1237 24.5613C70.4371 24.2478 70.5233 24.0392 70.5233 23.5937C70.5233 23.1483 70.4371 22.9397 70.1237 22.6262L69.7241 22.2265H66.4218H63.1195L62.7199 22.6262ZM24.9589 42.6349L25.3379 43.0139V57.2265V71.4391L24.9589 71.818L24.5799 72.1972L18.1571 72.2353L11.7344 72.2733V57.2265V42.1797L18.1571 42.2177L24.5799 42.2558L24.9589 42.6349ZM20.3371 48.0558C19.4565 48.9366 20.059 50.3906 21.3047 50.3906C21.7501 50.3906 21.9587 50.3043 22.2722 49.9909C23.1528 49.1102 22.5503 47.6562 21.3047 47.6562C20.8592 47.6562 20.6506 47.7425 20.3371 48.0558ZM20.3371 53.5246L19.9375 53.9242V59.9609V65.9975L20.3371 66.3972C20.6506 66.7105 20.8592 66.7968 21.3047 66.7968C21.7501 66.7968 21.9587 66.7105 22.2722 66.3972L22.6719 65.9975V59.9609V53.9242L22.2722 53.5246C21.9587 53.2112 21.7501 53.1249 21.3047 53.1249C20.8592 53.1249 20.6506 53.2112 20.3371 53.5246Z" fill="#1E2831"/>
</svg>
