<svg width="80" height="80" viewBox="0 0 80 80" fill="none" xmlns="http://www.w3.org/2000/svg">
<path d="M68.5 68L13 60.5L11.5 63L11 68.5L68.5 68Z" fill="#FFC861"/>
<path fill-rule="evenodd" clip-rule="evenodd" d="M38.3594 10.263C37.9404 10.4069 36.9648 10.9003 36.1914 11.3596C35.418 11.8189 29.3535 15.4191 22.7148 19.3603C16.0762 23.3015 10.4995 26.6834 10.3223 26.8757L10 27.2254V30.4478V33.6703L10.4009 34.1082L10.8018 34.5458L13.0962 34.5821L15.3906 34.6184V46.8412V59.0638L14.7754 59.1284C12.8788 59.3273 11.0748 60.7305 10.3326 62.5841C10.0825 63.2085 10.0604 63.4587 10.0243 66.0717C10 67.8301 10.0309 69.0066 10.107 69.2064C10.1738 69.3823 10.4012 69.6316 10.6123 69.7602C10.9932 69.9924 11.2186 69.9942 39.9631 69.9946C58.4983 69.995 69.0382 69.9539 69.2305 69.8808C69.3959 69.818 69.6384 69.5938 69.7693 69.3828C69.9946 69.0197 70.0055 68.8436 69.9722 66.1279C69.9395 63.4505 69.9189 63.2114 69.6675 62.5841C68.9248 60.7302 67.1211 59.3273 65.2246 59.1284L64.6094 59.0638V46.8341V34.6044H66.7246C69.0163 34.6044 69.2833 34.5464 69.7553 33.9464C69.9899 33.6482 70 33.5031 70 30.4303V27.2254L69.6777 26.8738C69.168 26.3176 42.4414 10.504 41.5404 10.2253C40.5273 9.9121 39.3392 9.92616 38.3594 10.263ZM41.0784 13.0157C41.317 13.1268 47.287 16.6455 54.345 20.8349L67.1781 28.4521L67.1828 30.122L67.1875 31.7919H40H12.8125L12.8182 30.122L12.8239 28.4521L25.3628 21.0107C32.2593 16.9179 38.2202 13.398 38.6092 13.1884C39.4376 12.7425 40.3539 12.6784 41.0784 13.0157ZM38.1823 18.4724C36.254 19.1895 34.8918 20.8553 34.5784 22.8795C34.3259 24.5117 34.9135 26.2486 36.1321 27.4717C39.2951 30.6461 44.6629 28.8996 45.4102 24.453C45.844 21.8718 44.1782 19.2133 41.63 18.4203C40.6144 18.1041 39.1114 18.1268 38.1823 18.4724ZM41.2629 21.2671C41.8223 21.5309 42.292 22.0773 42.5281 22.739C43.1465 24.4717 41.8558 26.279 40 26.279C37.9845 26.279 36.7134 24.2356 37.6097 22.4366C38.2902 21.071 39.8133 20.5835 41.2629 21.2671ZM23.5938 46.8505V59.0966H20.8984H18.2031V46.8505V34.6044H20.8984H23.5938V46.8505ZM34.4922 46.8505V59.0966H30.4492H26.4062V46.8505V34.6044H30.4492H34.4922V46.8505ZM42.6953 46.8505V59.0966H40H37.3047V46.8505V34.6044H40H42.6953V46.8505ZM53.5938 46.8505V59.0966H49.5508H45.5078V46.8505V34.6044H49.5508H53.5938V46.8505ZM61.7969 46.8505V59.0966H59.1016H56.4062V46.8505V34.6044H59.1016H61.7969V46.8505ZM65.6679 62.0964C66.2451 62.3635 66.7802 62.9216 67.0295 63.5167C67.1366 63.7724 67.1875 64.4232 67.1875 65.5382V67.1826H40H12.8125V65.5382C12.8125 63.762 12.8909 63.4214 13.4533 62.7545C13.8368 62.2996 14.2887 62.0474 14.9601 61.9135C15.2291 61.8599 26.6289 61.8238 40.293 61.8333L65.1367 61.8505L65.6679 62.0964Z" fill="#1E2831"/>
</svg>
