<svg width="80" height="80" viewBox="0 0 80 80" fill="none" xmlns="http://www.w3.org/2000/svg">
<path d="M47 40L34 29.5L32.5 33.5L31.5 38.5L34 41.5L40.5 47.5L47 40Z" fill="#FFC861"/>
<path fill-rule="evenodd" clip-rule="evenodd" d="M13.8699 10.0746C12.5472 10.3471 11.1791 11.3779 10.5667 12.5634C10.3923 12.9011 10.1867 13.5765 10.1101 14.0645C10.017 14.6562 9.98298 19.6719 10.0079 29.1242L10.0453 43.2966L10.3766 43.9463C10.5589 44.3036 12.9618 47.6258 15.7166 51.3289C18.4713 55.032 20.7825 58.2099 20.8527 58.3909C20.9243 58.5755 20.9802 60.4551 20.9802 62.6723C20.9802 66.2928 21.0022 66.6822 21.2427 67.3119C21.7429 68.6226 22.722 69.4681 24.1569 69.8288C24.8183 69.9949 25.9841 70.02 31.5521 69.9879L38.1622 69.9497L39.093 69.4946L40.0238 69.0396L40.6085 69.3956C41.5796 69.9869 42.2029 70.0294 49.2408 69.9849C55.2827 69.9468 55.823 69.9251 56.4349 69.6963C57.3593 69.3504 58.3704 68.3293 58.7351 67.3728C59.0049 66.6657 59.0206 66.4021 59.0206 62.5902C59.0206 59.9871 59.0707 58.4642 59.1617 58.2974C59.2392 58.1552 61.5734 54.985 64.3487 51.2525C67.1239 47.5199 69.5207 44.2027 69.675 43.8809C69.9547 43.2979 69.9557 43.246 69.9931 29.1888C70.016 20.5268 69.9809 14.767 69.9019 14.2661C69.6246 12.5067 68.6165 11.1708 67.0092 10.433C65.0144 9.51731 62.4555 10.1474 61.2274 11.8566C60.4839 12.8913 60.3165 13.4883 60.2451 15.3607L60.1799 17.07L59.5896 16.8727C58.7319 16.586 57.0211 16.6979 56.2372 17.0918C55.3417 17.5419 54.7193 18.0684 54.2692 18.7565C53.4924 19.9438 53.4537 20.3223 53.4537 26.7263V32.5304L51.4987 34.2875L49.5437 36.0447L49.458 34.9246C49.2136 31.7257 47.6338 29.0855 44.9709 27.426C44.6428 27.2216 44.3524 27.04 44.3254 27.0225C44.2985 27.005 44.4926 26.7016 44.7569 26.3485C45.6219 25.1928 45.9459 24.3245 46.0067 22.9991C46.0902 21.1827 45.6099 19.8516 44.4105 18.5751C42.4444 16.4828 39.0745 16.0725 36.6082 17.6249C34.8678 18.7204 33.8371 20.583 33.8371 22.6327C33.8371 24.1049 34.2387 25.1596 35.3888 26.7081C35.5567 26.9342 35.5773 27.0379 35.4616 27.0757C34.9857 27.2313 33.2119 28.6683 32.6388 29.3626C31.2916 30.9946 30.5736 32.7865 30.4103 34.9246L30.3246 36.0447L28.3696 34.2875L26.4146 32.5304V26.7263C26.4146 20.3223 26.3759 19.9438 25.5992 18.7565C25.1498 18.0696 24.529 17.544 23.6311 17.0903C22.8532 16.6971 20.8958 16.5751 20.1659 16.8743L19.6884 17.07L19.6284 15.3341C19.5702 13.65 19.5538 13.5692 19.0806 12.63C18.8073 12.0875 18.3773 11.4762 18.1028 11.2398C17.0121 10.3004 15.198 9.80101 13.8699 10.0746ZM15.9781 13.0906C16.1948 13.242 16.4831 13.6056 16.6188 13.8987C16.8528 14.4041 16.8658 14.9775 16.8716 24.9632L16.8776 35.4947L17.1833 36.2238C17.3515 36.6248 17.6239 37.1386 17.7887 37.3657C18.1366 37.8448 31.5202 50.0096 31.9447 50.2326C32.4121 50.4779 32.9903 50.4076 33.4196 50.0533C33.9472 49.6177 34.0629 49.0735 33.7489 48.5042C33.6152 48.2616 30.505 45.3335 26.8375 41.9971C23.17 38.6605 20.0537 35.7448 19.9126 35.5177C19.5529 34.9391 19.5721 34.0294 19.9557 33.4661C20.5008 32.6656 21.6145 32.3464 22.4258 32.7579C23.1231 33.1117 37.0538 45.8048 37.5794 46.5653C38.4687 47.8522 38.4762 47.9189 38.4762 54.5661V60.5233H31.068H23.6598L23.6067 59.0606C23.5698 58.0365 23.489 57.4809 23.3378 57.2078C23.2189 56.9933 20.8514 53.7461 18.0766 49.9918C15.0777 45.9344 12.9757 42.9713 12.8941 42.6863C12.8021 42.3654 12.7685 37.5716 12.7927 28.1892C12.8282 14.3883 12.8328 14.1646 13.0969 13.7165C13.6709 12.7423 15.0504 12.4426 15.9781 13.0906ZM66.0455 13.0527C66.2278 13.1806 66.511 13.4789 66.6751 13.7152L66.9733 14.1451V28.5458V42.9466L65.6055 44.8115C64.853 45.8372 62.4991 49.0339 60.3744 51.9154C58.0955 55.0062 56.4555 57.352 56.375 57.6363C56.3 57.9012 56.2384 58.6592 56.238 59.3206L56.2372 60.5233H48.8147H41.3922V54.4824C41.3922 48.6937 41.4035 48.4113 41.6663 47.7227C41.817 47.3276 42.1302 46.7418 42.3621 46.4212C42.8098 45.8025 56.6705 33.2229 57.3572 32.8121C58.5208 32.116 60.2135 33.0646 60.2135 34.4129C60.2135 35.5576 60.5441 35.2154 52.3271 42.5763C49.1924 45.3844 46.4636 47.863 46.2632 48.0844C45.5452 48.877 45.9284 50.0571 46.983 50.3003C47.1784 50.3454 47.49 50.3257 47.6753 50.2565C48.208 50.0578 61.7666 37.7071 62.2175 37.0097C63.0175 35.7725 62.997 36.0976 62.997 24.6667C62.997 15.3896 63.0207 14.1618 63.2072 13.7763C63.6866 12.7855 65.1381 12.4153 66.0455 13.0527ZM22.7168 19.7325C23.6195 20.324 23.6307 20.3957 23.6309 25.5808C23.631 28.1372 23.6162 30.2283 23.598 30.2275C23.5798 30.2267 23.2721 30.139 22.9142 30.0325C22.0973 29.7893 21.0723 29.785 20.2723 30.0212L19.6548 30.2034V25.501C19.6548 20.3022 19.663 20.2466 20.5163 19.6958C21.084 19.3293 22.1282 19.3467 22.7168 19.7325ZM41.3288 19.6806C42.4837 20.1952 43.2398 21.3247 43.2449 22.5427C43.2494 23.6345 43.0051 24.2348 42.2582 24.9676C41.541 25.6711 40.9012 25.9383 39.9342 25.9383C38.9671 25.9383 38.3273 25.6711 37.6101 24.9676C35.9837 23.3721 36.3721 20.7504 38.3805 19.7688C39.2266 19.3551 40.5121 19.3167 41.3288 19.6806ZM59.3554 19.6995C60.1964 20.2094 60.2135 20.3256 60.2135 25.5493C60.2135 29.8933 60.1964 30.2504 59.9922 30.1734C58.9944 29.7978 57.584 29.7964 56.668 30.17L56.2372 30.3457L56.2375 25.6391C56.2376 20.3892 56.2477 20.3249 57.1515 19.7325C57.7413 19.346 58.7475 19.3309 59.3554 19.6995ZM41.2758 28.8557C43.5647 29.3317 45.3917 30.8716 46.2583 33.0555C46.5777 33.8606 46.6119 34.1312 46.6644 36.2753L46.7218 38.6161L43.6542 41.397C41.967 42.9264 40.4425 44.3586 40.2662 44.5795L39.9458 44.9811L39.4938 44.4635C39.2452 44.1789 37.7159 42.7465 36.0951 41.2805L33.1485 38.6151L33.2083 36.2748C33.2588 34.3025 33.313 33.8134 33.5532 33.1649C34.3516 31.0092 36.28 29.3419 38.5306 28.8616C39.5898 28.6355 40.2106 28.6342 41.2758 28.8557ZM38.4762 64.8225C38.4762 65.6976 38.4128 66.5073 38.333 66.6537C38.0039 67.257 37.6908 67.2843 31.1199 67.2843C24.2133 67.2843 24.1797 67.2804 23.8252 66.448C23.6266 65.9819 23.5427 63.5138 23.7195 63.3404C23.768 63.2927 27.1082 63.2537 31.1421 63.2537H38.4762V64.8225ZM56.2086 64.6449C56.2357 65.5997 56.1907 66.1017 56.0476 66.4374C55.6878 67.2822 55.6695 67.2843 48.7484 67.2843C42.1775 67.2843 41.8644 67.257 41.5353 66.6537C41.4555 66.5073 41.3922 65.6973 41.3922 64.8214V63.2515L48.7815 63.2852L56.1709 63.3187L56.2086 64.6449Z" fill="#1E2831"/>
</svg>
