<svg width="80" height="80" viewBox="0 0 80 80" fill="none" xmlns="http://www.w3.org/2000/svg">
<path d="M59.5 67.5L12 59L11.5 61.5L12 66.5L17.5 69H58.5L59.5 67.5Z" fill="#FFC861"/>
<path fill-rule="evenodd" clip-rule="evenodd" d="M28.7978 10.0857C27.6036 10.3341 26.506 11.2204 25.9859 12.3564C25.7695 12.8293 25.6654 13.3184 25.6147 14.1019L25.5442 15.1904L23.5755 15.2446C21.8317 15.2926 21.4955 15.3371 20.6306 15.6342C18.1614 16.4819 16.4749 18.166 15.5995 20.6574L15.2565 21.6338L15.214 25.7275C15.176 29.3752 15.1937 29.863 15.376 30.2039C15.6176 30.6553 16.026 30.9007 16.5356 30.9007C17.4285 30.9007 17.8798 30.2962 17.8798 29.0998V28.2938H42.6275H67.3753L67.3428 46.349L67.3102 64.4042L67.0462 64.9757C66.6719 65.7855 65.8706 66.604 65.0675 66.9969C64.5018 67.2737 64.2149 67.3339 63.4609 67.3339C62.325 67.3339 61.4221 66.9382 60.6526 66.1035C59.7418 65.1155 59.6349 64.7248 59.5514 62.0824C59.482 59.8826 59.4611 59.7278 59.1545 59.1364C58.7532 58.3629 57.7817 57.4729 57.0141 57.1758C56.4682 56.9644 55.7434 56.9494 44.6048 56.9166L32.7753 56.8819L33.3622 56.4155C33.6851 56.159 34.3412 55.5351 34.8201 55.0292C37.6375 52.0534 39.0578 47.9268 38.646 43.914C37.9617 37.246 33.014 32.0284 26.4344 31.0366C21.0348 30.2226 15.5523 32.6439 12.4698 37.2039C9.09306 42.1997 9.1951 48.7523 12.7261 53.6505C13.2901 54.4329 14.6002 55.8142 15.3344 56.4004L15.9052 56.8561L14.4689 56.9153C13.2689 56.9646 12.9208 57.0256 12.3525 57.2858C11.4876 57.6818 10.7342 58.4343 10.3214 59.3148C10.0076 59.9841 9.99796 60.0734 10.0002 62.2657C10.0021 64.2546 10.0351 64.6311 10.2738 65.3965C10.9051 67.4209 12.5986 69.1112 14.6415 69.7557L15.4969 70.0255H39.9983H64.4996L65.3602 69.7548C67.4188 69.107 69.0773 67.4469 69.7289 65.3819L69.9987 64.5265V43.2634C69.9987 19.4768 70.0713 21.4458 69.1229 19.4953C68.478 18.1688 67.0654 16.7793 65.6605 16.0901C64.2944 15.4199 63.2951 15.223 61.2449 15.2203L59.5789 15.2182L59.5266 14.0268C59.4632 12.5803 59.1548 11.8783 58.2094 11.0283C57.1613 10.0859 56.8402 10.0247 52.9516 10.0247H49.5911L48.9043 10.3467C47.9748 10.7826 47.2828 11.4363 46.8804 12.2589C46.6071 12.8172 46.536 13.154 46.4955 14.081L46.4457 15.2182H42.6291H38.8124L38.7411 14.1158C38.6217 12.2733 37.8447 11.0488 36.3503 10.3483C35.664 10.0265 35.6423 10.0245 32.4829 10.0023C30.7354 9.99009 29.0771 10.0276 28.7978 10.0857ZM35.3018 12.8309C35.8335 13.0531 36.0878 13.6069 36.0878 14.5422V15.2182H32.1774H28.2669V14.5422C28.2669 13.6297 28.5227 13.0548 29.0262 12.8362C29.6142 12.5806 34.6926 12.5764 35.3018 12.8309ZM56.048 12.7667C56.6793 13.0068 56.862 13.3564 56.862 14.3248V15.2182H53.0127H49.1634V14.3793C49.1634 13.4798 49.4005 12.9914 49.944 12.7718C50.298 12.6288 55.6735 12.6243 56.048 12.7667ZM25.6137 19.009C25.7332 20.8531 26.514 22.0822 28.0044 22.7728C28.6542 23.0739 28.8065 23.0929 30.599 23.0964C32.7158 23.1006 32.9909 23.028 33.3442 22.372C33.6354 21.8312 33.505 21.1945 33.0192 20.7857C32.6621 20.4853 32.5847 20.4729 31.0642 20.4729C29.1795 20.4729 28.7161 20.3338 28.4458 19.6869C28.3475 19.4514 28.2669 18.9545 28.2669 18.5827V17.9067H37.3543H46.4416L46.5021 19.0615C46.5503 19.984 46.628 20.3504 46.8889 20.8835C47.2851 21.6934 47.9856 22.3495 48.9043 22.7717C49.5215 23.0554 49.7706 23.0918 51.363 23.132C52.8923 23.1706 53.1934 23.1464 53.5626 22.9552C54.1475 22.6522 54.4531 22.0154 54.2925 21.4341C54.0648 20.6094 53.8861 20.5413 51.7681 20.4729L49.876 20.4118L49.5197 20.0127C49.1978 19.6522 49.1634 19.5307 49.1634 18.7555V17.8974L56.2816 17.9326L63.3998 17.9678L64.2833 18.3819C65.8127 19.0987 66.9372 20.5389 67.2482 22.1788C67.316 22.5359 67.3713 23.453 67.3713 24.2166V25.6053H42.6256H17.8798V24.0424C17.8798 23.0242 17.9459 22.2256 18.0695 21.7511C18.4123 20.4346 19.209 19.3566 20.3428 18.6749C21.3121 18.0924 22.1093 17.9239 23.9413 17.9147L25.5423 17.9067L25.6137 19.009ZM44.4395 33.55C43.2383 33.796 42.1481 34.6824 41.6151 35.8465C40.7636 37.7066 41.6337 40.0432 43.5219 40.967C44.452 41.422 45.8512 41.4465 46.7917 41.0242C47.5697 40.6748 48.4546 39.7861 48.8206 38.9864C49.2428 38.0638 49.2171 36.6602 48.7611 35.7279C47.9945 34.1611 46.105 33.2089 44.4395 33.55ZM54.9566 33.5495C54.1446 33.7147 53.6128 33.9859 53.0092 34.5424C52.2167 35.2728 51.8273 36.089 51.7566 37.1681C51.6483 38.819 52.3922 40.1315 53.8604 40.8805C54.6038 41.2597 54.8056 41.3082 55.64 41.3082C56.4744 41.3082 56.6763 41.2597 57.4196 40.8805C58.3768 40.3922 59.0541 39.6171 59.3817 38.6346C59.6659 37.7823 59.5642 36.4899 59.1485 35.6737C58.3783 34.1611 56.537 33.228 54.9566 33.5495ZM26.3478 33.7307C29.9561 34.36 33.1315 36.6946 34.743 39.9029C36.682 43.763 36.4339 48.1565 34.0776 51.6891C32.5236 54.0187 30.331 55.6342 27.5682 56.4849C26.5755 56.7906 26.3346 56.8154 24.3565 56.8154C22.3784 56.8154 22.1374 56.7906 21.1448 56.4849C16.9915 55.206 13.9937 52.0503 12.9698 47.8795C12.5984 46.3667 12.6011 44.0598 12.9761 42.5311C13.3008 41.2075 14.2127 39.2616 14.987 38.24C17.6461 34.7315 22.0539 32.982 26.3478 33.7307ZM23.4754 36.4685C23.1071 36.7978 23.0762 36.8862 23.0333 37.7356L22.9872 38.6489L21.845 38.7086C20.4837 38.7799 19.6271 39.1347 18.9155 39.9224C17.0524 41.9846 17.6709 45.0646 20.1836 46.238C20.8672 46.5572 20.9049 46.5608 24.1121 46.5972C26.156 46.6204 27.4498 46.6837 27.6199 46.7689C27.9932 46.9557 28.3024 47.6506 28.2066 48.0872C28.164 48.2808 27.9877 48.5806 27.8148 48.7536L27.5004 49.068H24.3628C21.3463 49.068 21.2147 49.0581 20.9504 48.8119C20.6373 48.5202 20.446 48.0849 20.446 47.6641C20.446 47.2267 19.8903 46.6453 19.3805 46.5498C18.849 46.4501 18.2357 46.7374 17.9866 47.2026C17.5839 47.9552 17.9801 49.4786 18.8224 50.4154C19.6724 51.3607 20.3743 51.6692 21.8208 51.7326L23.0123 51.7849V52.5766C23.0123 53.7579 23.4677 54.3633 24.3565 54.3633C25.2453 54.3633 25.7007 53.7579 25.7007 52.5766V51.7849L26.8922 51.7326C28.3387 51.6692 29.0406 51.3607 29.8906 50.4154C30.8299 49.3707 31.1194 47.9134 30.6615 46.536C30.3945 45.7329 29.5378 44.7638 28.7078 44.326C28.0838 43.9966 28.0833 43.9966 24.7172 43.9355C20.9536 43.8672 20.8399 43.842 20.5673 43.0162C20.3924 42.486 20.5586 41.9796 21.0289 41.6096C21.314 41.3853 21.5369 41.3693 24.371 41.3693H27.4076L27.7772 41.7054C28.0413 41.9456 28.1783 42.2149 28.2574 42.6497C28.4017 43.4432 28.9145 43.9355 29.5966 43.9355C31.7407 43.9355 31.0413 40.2513 28.6775 39.0949C28.1462 38.8348 27.7775 38.7562 26.868 38.7086L25.7258 38.6489L25.6797 37.7356C25.6368 36.8862 25.6059 36.7978 25.2376 36.4685C24.9416 36.2041 24.7188 36.1146 24.3565 36.1146C23.9942 36.1146 23.7714 36.2041 23.4754 36.4685ZM46.1389 36.605C46.628 37.1419 46.6001 37.7248 46.0594 38.2654C45.5083 38.8165 44.9044 38.84 44.3943 38.3299C43.9357 37.8713 43.8471 37.4763 44.0786 36.9223C44.4348 36.0698 45.5015 35.9056 46.1389 36.605ZM56.048 36.2294C56.8793 36.5454 57.1641 37.6566 56.567 38.2538C55.7361 39.0848 54.4134 38.5792 54.4219 37.4338C54.4263 36.8399 54.5891 36.5686 55.1017 36.3012C55.5175 36.0845 55.6421 36.0751 56.048 36.2294ZM44.1531 44.0498C42.9985 44.4023 41.8701 45.4654 41.5142 46.536C41.0563 47.9134 41.3458 49.3707 42.285 50.4154C43.0411 51.2562 43.8575 51.6569 44.9622 51.7294C46.613 51.8377 47.9256 51.0938 48.6745 49.6256C49.0537 48.8822 49.1023 48.6804 49.1023 47.846C49.1023 47.0116 49.0537 46.8097 48.6745 46.0664C48.1966 45.1293 47.4202 44.4396 46.4837 44.1202C45.9183 43.9272 44.6772 43.8898 44.1531 44.0498ZM54.1779 44.2046C53.2639 44.5555 52.3394 45.4923 51.9928 46.4185C51.0209 49.0161 52.8933 51.7564 55.64 51.7564C57.7964 51.7564 59.5505 50.0023 59.5505 47.846C59.5505 45.0927 56.7712 43.209 54.1779 44.2046ZM46.0478 46.919C46.881 47.7521 46.3745 49.068 45.2204 49.068C44.0487 49.068 43.5261 47.7731 44.3608 46.9384C44.7943 46.5049 45.6242 46.4953 46.0478 46.919ZM56.5048 46.9812C57.2919 47.7684 56.7534 49.068 55.64 49.068C55.2419 49.068 55.0554 48.9909 54.7752 48.7108C54.4951 48.4306 54.418 48.2441 54.418 47.846C54.418 47.4478 54.4951 47.2614 54.7752 46.9812C55.0554 46.7011 55.2419 46.624 55.64 46.624C56.0382 46.624 56.2246 46.7011 56.5048 46.9812ZM56.1843 59.7661C56.4032 59.87 56.6416 60.0762 56.7141 60.2244C56.7865 60.3726 56.8713 61.4286 56.9025 62.5712C56.9655 64.8794 57.157 65.7531 57.8337 66.8194L58.2029 67.4016L36.9111 67.3693L15.6191 67.3371L14.9296 66.9986C14.1218 66.6018 13.3201 65.7802 12.9556 64.9757C12.6024 64.1961 12.4917 61.1108 12.7912 60.3941C13.1537 59.5266 11.5056 59.5874 34.7862 59.5821C53.4797 59.5778 55.83 59.5981 56.1843 59.7661Z" fill="#1E2831"/>
</svg>
