<svg width="80" height="80" viewBox="0 0 80 80" fill="none" xmlns="http://www.w3.org/2000/svg">
<path d="M41.5 41L38.5 44V45.5L40.5 47H43L49 39L51 34.5L41.5 41Z" fill="#FFC861"/>
<path fill-rule="evenodd" clip-rule="evenodd" d="M34.9574 8.20918C32.9202 9.14279 32.8793 11.9706 34.8883 12.9894C35.4639 13.2813 35.7159 13.3317 36.599 13.3317H37.6349V13.8895C37.6349 14.5274 37.8028 14.4483 35.7676 14.7686C33.6959 15.0946 33.2707 15.3905 33.4556 16.3771C33.5217 16.7293 33.6337 16.8721 33.9689 17.0319C34.3677 17.2221 34.4781 17.2215 35.5494 17.0222C36.8444 16.7813 38.5823 16.5706 39.2842 16.5692L39.751 16.5682V17.7604C39.751 18.9121 39.7634 18.9649 40.1149 19.3164C40.7118 19.9133 41.4922 19.7634 41.8156 18.9896C41.9178 18.7448 41.9917 18.1486 41.9917 17.5681V16.5682L42.3963 16.5689C43.0719 16.5697 45.978 17.0298 47.0705 17.3088C48.6988 17.7245 50.2901 18.2887 51.6833 18.9443L52.9726 19.5509L52.626 20.1447C52.4353 20.4712 52.1775 20.9064 52.053 21.1118C51.5557 21.9323 51.9763 22.9168 52.8241 22.9168C53.4341 22.9168 53.6514 22.7283 54.2628 21.6682C54.5775 21.1225 54.8585 20.6761 54.8872 20.6761C54.9159 20.6761 55.5131 21.0815 56.2144 21.5771C58.3666 23.0976 61.4058 26.2936 62.8279 28.5314L63.0338 28.8555L62.0407 29.4326C60.9798 30.0489 60.7884 30.2704 60.7884 30.8811C60.7884 31.6678 61.7992 32.1677 62.4722 31.7139C62.6073 31.6229 63.0415 31.3658 63.4371 31.1426L64.1562 30.7369L64.7603 32.024C65.4313 33.4531 66.1341 35.4967 66.5088 37.1076C66.77 38.231 67.1369 40.8158 67.1369 41.5331V41.9624H65.909C64.7484 41.9624 64.6632 41.9803 64.353 42.2906C63.9244 42.7191 63.9154 43.3016 64.3301 43.7492C64.6213 44.0633 64.6935 44.0786 65.8861 44.0786H67.1369V44.5079C67.1369 46.1252 66.3553 49.9854 65.6255 51.9727C65.3171 52.8126 64.3203 55.1167 64.2023 55.2624C64.1834 55.2858 63.6852 55.0419 63.0954 54.7204C62.197 54.2307 61.9535 54.1488 61.5959 54.2159C61.0934 54.3102 60.7884 54.6893 60.7884 55.2197C60.7884 55.7786 61.0584 56.0775 62.0973 56.6685C62.6098 56.9601 63.0279 57.2296 63.0266 57.2673C63.0252 57.305 62.6679 57.8323 62.2326 58.439C60.6557 60.6367 58.2725 63.0222 56.1488 64.5284C55.5485 64.9542 55.009 65.3191 54.9502 65.3391C54.8913 65.3592 54.5784 64.9239 54.2546 64.3715C53.9308 63.8194 53.5637 63.3128 53.4386 63.2459C52.7526 62.8788 51.8257 63.3885 51.8257 64.133C51.8257 64.3781 52.0411 64.9047 52.3859 65.5025C52.694 66.0366 52.9461 66.4964 52.9461 66.5243C52.9461 66.6098 51.0866 67.4259 49.7718 67.9174C47.6024 68.7283 44.1145 69.4728 42.4854 69.4728H41.9917V68.4955C41.9917 67.958 41.9296 67.3402 41.8538 67.1225C41.5778 66.3308 40.5228 66.1601 40.0015 66.8228C39.7904 67.0911 39.751 67.3274 39.751 68.3248V69.5084L38.4786 69.4208C37.7788 69.3726 36.7565 69.2521 36.2068 69.153C34.1297 68.7786 34.2034 68.7772 33.7824 69.1982C33.2017 69.7789 33.2979 70.5284 33.9996 70.8913C34.187 70.9881 35.0676 71.1962 35.9565 71.3537C37.3352 71.5978 38.0115 71.6408 40.5602 71.6456C43.9152 71.652 45.0843 71.5133 47.9473 70.7698C57.2369 68.3572 64.7989 61.272 67.8653 52.1077C69.2105 48.0872 69.661 43.9481 69.1907 39.9283C68.7588 36.2352 67.9063 33.3844 66.2466 30.0824C65.1651 27.9308 64.2203 26.5358 62.0468 23.8809L61.749 23.5173L62.8529 22.4083L63.9567 21.2993L64.7089 22.0448L65.461 22.7902L67.7306 20.5183L70 18.2462L67.727 15.9757L65.4539 13.7052L63.182 15.9796L60.9101 18.2538L61.6591 18.995L62.4081 19.7362L61.3208 20.8285C60.7227 21.4293 60.2042 21.9193 60.1686 21.9173C60.1329 21.9154 59.5996 21.4913 58.9834 20.9751C55.2268 17.8274 50.4285 15.5934 45.695 14.7881L44.1079 14.5181V13.925V13.3317L45.0104 13.331C46.2309 13.3301 46.7719 13.1567 47.4212 12.5581C48.6986 11.3806 48.5315 9.39487 47.0715 8.40499L46.5353 8.04126L40.9959 8.01088C35.8467 7.98263 35.4213 7.99669 34.9574 8.20918ZM45.9074 10.2625C46.0761 10.3859 46.1144 10.5169 46.0533 10.7604L45.9704 11.0911H43.9188H41.8672V12.7093V14.3276H40.8751H39.883L39.8481 12.7404L39.8133 11.1533L37.7932 11.1191C35.9362 11.0877 35.7627 11.0653 35.643 10.8418C35.5405 10.6501 35.5662 10.5456 35.7648 10.347C36.0089 10.1029 36.1644 10.0952 40.8476 10.0952C44.6968 10.0952 45.725 10.1292 45.9074 10.2625ZM66.1761 18.9609L65.4639 19.6805L64.7443 18.9684L64.0246 18.2562L64.7368 17.5366L65.449 16.8169L66.1686 17.5291L66.8882 18.2413L66.1761 18.9609ZM25.6846 22.8802C24.9094 23.1636 24.6805 24.1252 25.2587 24.669C25.5766 24.9679 25.6075 24.9711 28.4534 25.0084C30.5154 25.0356 31.4312 25.0032 31.6955 24.8937C32.1903 24.6888 32.4502 24.0747 32.2659 23.546C32.0236 22.8511 31.7326 22.7912 28.6473 22.8021C27.1205 22.8075 25.7873 22.8427 25.6846 22.8802ZM19.9489 30.625C19.2759 31.2981 19.6194 32.2577 20.5981 32.438C20.8283 32.4803 23.4101 32.498 26.3354 32.4773L31.6544 32.4396L31.9931 32.1006C32.4641 31.6296 32.4623 30.9634 31.9889 30.5562L31.6458 30.2612H25.9793H20.3128L19.9489 30.625ZM46.1618 36.4311C42.3278 39.2058 39.015 41.6465 38.8 41.8547C38.5851 42.0631 38.2507 42.5227 38.0568 42.876C37.7544 43.4276 37.7039 43.6594 37.7008 44.5143C37.6977 45.3567 37.7506 45.6191 38.0444 46.2174C39.1593 48.4876 42.1696 49.0546 43.9779 47.335C44.5362 46.8042 54.311 33.416 54.5966 32.7911C54.8907 32.1474 54.3471 31.3801 53.5996 31.3839C53.1839 31.3859 52.3682 31.9396 46.1618 36.4311ZM48.5135 37.5122C48.1113 38.205 42.6583 45.6176 42.4035 45.818C41.9478 46.1764 41.551 46.2514 40.9937 46.0844C40.3022 45.8772 39.8755 45.3173 39.8755 44.6174C39.8755 44.3079 39.9634 43.9061 40.0708 43.7243C40.2117 43.4862 48.2677 37.4583 48.5654 37.3682C48.5866 37.3618 48.5632 37.4267 48.5135 37.5122ZM14.6026 38.0446C14.1782 38.4964 14.1993 39.1635 14.6501 39.5512L14.9932 39.8462H23.3195H31.6458L31.9889 39.5512C32.4398 39.1635 32.4608 38.4964 32.0364 38.0446L31.7408 37.7301H23.3195H14.8982L14.6026 38.0446ZM10.6817 45.2482C10.2953 45.4165 10 45.8872 10 46.3347C10 46.4736 10.1637 46.7511 10.3639 46.9513L10.7277 47.3151H21.0612C27.3396 47.3151 31.5176 47.2683 31.7079 47.196C32.1857 47.0144 32.4539 46.4042 32.2834 45.8873C32.0041 45.0408 32.4589 45.074 21.1845 45.0793C13.088 45.0832 10.9827 45.117 10.6817 45.2482ZM16.953 52.732C16.1921 53.1455 16.2858 54.3586 17.1007 54.6427C17.7485 54.8685 31.1623 54.8391 31.7092 54.6107C32.5016 54.2796 32.5432 53.1225 31.7769 52.7263C31.2553 52.4566 17.4502 52.4619 16.953 52.732ZM23.1272 60.3178C22.6859 60.759 22.6762 61.3874 23.1034 61.8483C23.3626 62.128 23.3677 62.1284 27.5519 62.1284H31.7408L32.0364 61.8138C32.4608 61.3621 32.4398 60.695 31.9889 60.3072L31.6458 60.0122H27.5393H23.4327L23.1272 60.3178Z" fill="#1E2831"/>
</svg>
