<svg width="60" height="60" viewBox="0 0 60 60" fill="none" xmlns="http://www.w3.org/2000/svg">
<g clip-path="url(#clip0_41_765)">
<circle cx="30" cy="7" r="6" fill="#FFC861"/>
<path fill-rule="evenodd" clip-rule="evenodd" d="M28.3022 0.167299C25.3041 0.893041 23.0703 3.79191 23.0703 6.95714C23.0703 7.77031 23.4088 9.22765 23.7552 9.90687C24.1809 10.7414 25.0711 11.806 25.7661 12.3119L26.4555 12.8137L26.4621 14.0149L26.4688 15.216L26.0293 15.2149C25.7877 15.2143 25.3207 15.0884 24.9918 14.9353C23.961 14.4553 23.4882 13.7895 23.1334 12.3181C22.6651 10.376 21.2957 8.94699 19.3319 8.35097C18.9117 8.22335 17.7993 8.18656 14.2813 8.18398C11.7998 8.18222 9.2857 8.12972 8.69425 8.06738C8.10281 8.00515 6.15925 7.58574 4.37531 7.1355C1.3364 6.36851 1.1073 6.32714 0.743082 6.47937C0.0788632 6.75687 -0.0602383 7.10339 0.0207383 8.27808C0.146832 10.1061 0.74191 11.7034 1.86386 13.2256C2.37269 13.9157 2.43925 14.0811 2.55808 14.9496C2.73398 16.2335 2.96332 16.9742 3.51468 18.039C4.00019 18.9765 5.06449 20.3574 5.54343 20.6712C5.69964 20.7735 6.2107 21.3678 6.67921 21.9917C8.2275 24.0539 9.82394 25.4314 11.8077 26.4168C16.0107 28.5048 20.8133 28.3047 24.755 25.8778C25.2786 25.5554 25.8785 25.1535 26.0879 24.9849L26.4688 24.6782V26.744V28.8098L25.502 28.8118C22.4699 28.8182 19.9445 30.3842 18.6078 33.0871C17.6428 35.0386 17.5561 37.0066 18.3417 39.1262C18.752 40.2328 19.1446 40.6457 19.7865 40.6457C20.1748 40.6457 20.349 40.5726 20.63 40.2916C20.9409 39.9807 20.9769 39.877 20.9251 39.442C20.8927 39.1695 20.7306 38.5774 20.565 38.1262C19.8804 36.2612 20.3497 34.1264 21.7451 32.7586C22.7749 31.749 23.7861 31.3219 25.4434 31.1966L26.4688 31.119V36.351V41.5832L24.9746 41.5839C23.0716 41.5848 22.2907 41.716 21.2612 42.208C19.3457 43.1236 18.1425 45.0278 18.1327 47.1602C18.1253 48.7582 18.6572 50.0627 19.7668 51.1673C21.1162 52.5106 22.1236 52.8332 24.9677 52.8332H26.9331L27.0025 53.1555C27.2885 54.483 27.8237 56.402 28.177 57.3664C28.4087 57.9991 28.6571 58.694 28.7291 58.9106C28.8009 59.1271 29.0021 59.4567 29.1762 59.643C29.616 60.1139 30.3323 60.1211 30.7919 59.6594C31.2184 59.231 32.0645 56.9132 32.6368 54.6055L33.0838 52.8035L34.0607 52.8644C35.2737 52.9401 35.9693 53.3122 36.3913 54.1114C37.1973 55.6375 36.2412 57.3664 34.4687 57.5879C33.5646 57.7007 33.1165 58.1057 33.1165 58.8098C33.1165 59.236 33.1782 59.3768 33.4859 59.6517C33.792 59.9251 33.9606 59.9814 34.4687 59.9804C35.6545 59.9779 36.8171 59.4598 37.7422 58.5215C39.5307 56.7072 39.5307 53.7639 37.7422 51.9496C36.7519 50.9452 35.6586 50.4929 34.2162 50.4908L33.3502 50.4895L33.4241 49.8743C33.4648 49.5359 33.4985 48.0955 33.499 46.6734L33.5 44.0877L34.7655 43.9553C36.855 43.7369 38.291 43.0805 39.6296 41.7322C41.6595 39.6878 42.3518 36.8893 41.522 34.0832C41.2024 33.0024 40.5567 31.9763 39.6049 31.0364C38.167 29.6164 36.6809 28.9515 34.7012 28.8424L33.5 28.7762V26.7271V24.6782L33.8809 24.9849C34.0904 25.1535 34.6902 25.5554 35.2138 25.8778C39.1555 28.3047 43.9581 28.5048 48.1611 26.4168C50.1449 25.4314 51.7413 24.0539 53.2896 21.9917C53.7581 21.3678 54.2692 20.7735 54.4254 20.6712C54.9043 20.3574 55.9686 18.9765 56.4541 18.039C57.0053 16.9747 57.2348 16.2335 57.4104 14.9519C57.528 14.0927 57.5965 13.9207 58.0731 13.2866C59.1818 11.8116 59.8223 10.1007 59.9481 8.27808C60.0291 7.10339 59.89 6.75687 59.2257 6.47937C58.8615 6.32714 58.6324 6.36851 55.5935 7.1355C53.8096 7.58574 51.866 8.00515 51.2746 8.06738C50.6831 8.12972 48.169 8.18222 45.6875 8.18398C40.9039 8.18749 40.7072 8.20659 39.5798 8.7746C38.7719 9.18183 38.0767 9.80773 37.5818 10.5735C37.1623 11.2225 37.0113 11.6148 36.6719 12.9378C36.454 13.7874 35.9058 14.4636 35.1145 14.8591C34.6905 15.071 34.2171 15.216 33.95 15.216H33.5L33.5067 14.0149L33.5133 12.8137L34.2027 12.3119C34.8977 11.806 35.7879 10.7414 36.2136 9.90687C36.56 9.22765 36.8985 7.77031 36.8985 6.95714C36.8985 3.76261 34.6556 0.879096 31.613 0.161791C30.6885 -0.0560607 29.2148 -0.0535997 28.3022 0.167299ZM31.5995 2.70277C34.3159 3.70437 35.3313 7.11054 33.6243 9.49449C32.7985 10.6476 31.4222 11.3489 29.9844 11.3489C28.5466 11.3489 27.1703 10.6476 26.3446 9.49449C24.7119 7.2146 25.5483 3.98339 28.0696 2.8291C29.2355 2.29542 30.3831 2.25429 31.5995 2.70277ZM7.50246 10.3434C8.3632 10.4913 9.53144 10.5285 13.3001 10.5285C16.2694 10.5285 18.2411 10.576 18.6165 10.6565C19.3387 10.8114 20.1043 11.3688 20.456 11.9957C20.598 12.2489 20.8036 12.8265 20.9128 13.2793C21.1849 14.4077 21.5771 15.1422 22.3269 15.9283C23.2842 16.9319 24.3036 17.4128 25.9121 17.6198L26.4688 17.6914V19.5466V21.4018L25.7401 22.0763C24.1342 23.5632 23.0433 24.2554 21.4065 24.8262C20.0235 25.3086 18.9288 25.4519 17.211 25.3754C15.0444 25.2789 13.296 24.7043 11.5717 23.5216L10.8243 23.009L12.4063 22.9475C13.2764 22.9136 14.0766 22.8435 14.1844 22.7919C14.3822 22.6971 14.75 22.0381 14.75 21.7785C14.75 21.4487 14.3578 20.8535 14.068 20.7437C13.8953 20.6783 13.0157 20.5965 12.1133 20.562C11.211 20.5276 10.183 20.4194 9.8291 20.3217C8.08746 19.8412 6.50976 18.5727 5.67984 16.9853C5.30461 16.2676 5.26441 16.1305 5.44722 16.1902C5.56863 16.2301 6.05332 16.395 6.52429 16.5568C7.58273 16.9205 8.89031 17.091 10.6199 17.091C12.2316 17.091 12.6855 16.941 12.9436 16.3235C13.0859 15.983 13.0945 15.8191 12.9875 15.4948C12.7508 14.7775 12.4928 14.6978 10.1265 14.6115C7.92222 14.531 7.47257 14.4447 6.29589 13.8775C5.37867 13.4354 4.63054 12.8455 4.01812 12.0815C3.48386 11.4151 2.76609 10.0553 2.63367 9.45874L2.56523 9.15066L4.49484 9.65445C5.55621 9.93148 6.90961 10.2416 7.50246 10.3434ZM57.2726 9.6562C56.8028 11.3609 55.3434 13.0722 53.6729 13.8775C52.4962 14.4447 52.0466 14.531 49.8423 14.6115C47.4761 14.6978 47.218 14.7775 46.9813 15.4948C46.8743 15.8191 46.883 15.983 47.0252 16.3235C47.2833 16.941 47.7373 17.091 49.3489 17.091C51.0785 17.091 52.3861 16.9205 53.4445 16.5568C53.9155 16.395 54.4002 16.2301 54.5216 16.1902C54.7044 16.1305 54.6642 16.2676 54.289 16.9853C53.4591 18.5727 51.8814 19.8412 50.1397 20.3217C49.7858 20.4194 48.7578 20.5276 47.8555 20.562C46.9532 20.5965 46.0736 20.6783 45.9008 20.7437C45.611 20.8535 45.2188 21.4487 45.2188 21.7785C45.2188 22.0381 45.5866 22.6971 45.7845 22.7919C45.8923 22.8435 46.6924 22.9136 47.5625 22.9475L49.1446 23.009L48.3971 23.5216C46.6728 24.7043 44.9244 25.2789 42.7578 25.3754C41.04 25.4519 39.9453 25.3086 38.5623 24.8262C36.9255 24.2554 35.8346 23.5632 34.2287 22.0763L33.5 21.4018V19.5466V17.6914L34.0567 17.6198C35.6652 17.4128 36.6846 16.9319 37.6419 15.9283C38.3917 15.1422 38.7839 14.4077 39.056 13.2793C39.1652 12.8265 39.3708 12.2489 39.5128 11.9957C39.8645 11.3688 40.6301 10.8114 41.3523 10.6565C41.7278 10.576 43.6994 10.5285 46.6687 10.5285C51.9735 10.5285 52.2217 10.5039 55.4387 9.65984C56.4886 9.38433 57.3594 9.16683 57.3738 9.17644C57.3881 9.18616 57.3427 9.40203 57.2726 9.6562ZM31.1563 27.6659V41.5832H29.9844H28.8125V27.6659V13.7486H29.9844H31.1563V27.6659ZM35.0007 31.2651C38.8682 31.8243 40.7631 36.3725 38.4251 39.4839C37.4843 40.7361 36.1548 41.4307 34.4719 41.5495L33.5 41.618V36.3859V31.1535L33.8809 31.1559C34.0904 31.1572 34.5943 31.2064 35.0007 31.2651ZM26.4688 46.5465C26.4688 47.9228 26.5032 49.3788 26.5454 49.7821L26.6221 50.5154L24.8169 50.4673C22.7912 50.4134 22.1375 50.2282 21.4554 49.515C19.7978 47.7815 20.4109 45.0642 22.6547 44.1996C22.8654 44.1184 23.7204 44.0584 24.7403 44.0531L26.4688 44.0442V46.5465ZM31.1552 45.7727C31.1534 49.016 30.8214 52.0843 30.233 54.2981C30.0203 55.0987 30.0117 55.1103 29.8807 54.7836C29.7011 54.3359 29.2052 51.8468 29.0488 50.6067C28.9796 50.0588 28.8899 48.3582 28.8492 46.8274L28.7755 44.0442H29.9659H31.1563L31.1552 45.7727ZM24.4856 57.9985C23.9827 58.5015 23.9827 59.1181 24.4856 59.6211C24.7632 59.8987 24.9498 59.9817 25.2969 59.9817C25.9307 59.9817 26.4688 59.4436 26.4688 58.8098C26.4688 58.176 25.9307 57.6379 25.2969 57.6379C24.9498 57.6379 24.7632 57.7209 24.4856 57.9985Z" fill="#1E2831"/>
</g>
<defs>
<clipPath id="clip0_41_765">
<rect width="60" height="60" fill="white"/>
</clipPath>
</defs>
</svg>
