<svg width="80" height="80" viewBox="0 0 80 80" fill="none" xmlns="http://www.w3.org/2000/svg">
<path d="M27.8327 26.8327C24.7384 29.9271 23 34.1239 23 38.5C23 42.8761 24.7384 47.0729 27.8327 50.1673C30.9271 53.2616 35.1239 55 39.5 55C43.8761 55 48.0729 53.2616 51.1673 50.1673L39.5 38.5L27.8327 26.8327Z" fill="#FFC861"/>
<path fill-rule="evenodd" clip-rule="evenodd" d="M38.8085 10.4237L38.4102 10.822V13.936V17.05L38.7521 17.4325C39.0545 17.7711 39.1636 17.8151 39.6988 17.8151C40.234 17.8151 40.343 17.7711 40.6455 17.4325L40.9873 17.05V13.936V10.822L40.589 10.4237C40.0241 9.85876 39.3735 9.85876 38.8085 10.4237ZM19.6683 17.8881C18.936 18.1801 18.5666 18.951 18.8413 19.6142C18.9168 19.7961 19.9144 20.8759 21.0585 22.0136L23.1385 24.082H23.6717C24.2881 24.082 24.713 23.8086 24.9369 23.268C25.2411 22.5335 25.0821 22.289 22.8602 20.0745C21.0599 18.2801 20.3907 17.7316 20.0413 17.7639C19.9971 17.768 19.8293 17.8239 19.6683 17.8881ZM58.3237 17.8862C57.8584 18.0686 54.9453 21.0351 54.8004 21.4741C54.5172 22.3323 55.1396 23.1449 56.0802 23.1449C56.615 23.1449 56.6217 23.1397 58.3486 21.4128C60.0363 19.725 60.0807 19.6679 60.0807 19.183C60.0807 18.5737 59.8057 18.1279 59.2992 17.9163C58.8586 17.7322 58.7269 17.7282 58.3237 17.8862ZM37.5903 20.5273C31.5303 21.3253 26.3033 24.9455 23.4949 30.2903C20.9914 35.0546 20.7624 40.8402 22.8799 45.827C24.4119 49.4347 27.1649 52.5539 30.5754 54.5455C36.6389 58.0869 44.4565 57.7217 50.2412 53.6271C51.499 52.7366 53.5517 50.7433 54.341 49.6457C56.9079 46.0761 58.115 42.1576 57.9396 37.9646C57.5886 29.5775 51.6472 22.5691 43.3886 20.801C42.5015 20.6111 41.7054 20.5408 40.1087 20.5117C38.9491 20.4907 37.8158 20.4977 37.5903 20.5273ZM42.3483 23.326C48.8888 24.4643 54.0274 29.6698 55.1098 36.2535C55.4137 38.1028 55.2986 40.6765 54.8316 42.4726C53.968 45.7937 52.2237 48.5776 49.6979 50.6658C46.6032 53.2243 43.0261 54.4359 39.0545 54.2705C33.8248 54.0529 29.2607 51.3937 26.4459 46.9247C25.6059 45.5909 25.0096 44.1786 24.566 42.4726C24.0989 40.6765 23.9838 38.1028 24.2878 36.2535C24.8306 32.9519 26.2937 30.11 28.6872 27.7086C30.9817 25.4065 33.8242 23.9056 36.9678 23.3362C38.2372 23.1062 41.0552 23.1008 42.3483 23.326ZM11.9761 37.4471C11.4258 37.6065 11 38.1725 11 38.7449C11 39.1247 11.0773 39.2935 11.3983 39.6145L11.7965 40.0127H14.9241H18.0517L18.45 39.6145C18.7709 39.2935 18.8482 39.1247 18.8482 38.7449C18.8482 38.1498 18.4192 37.6074 17.8158 37.4398C17.2851 37.2924 12.4896 37.2984 11.9761 37.4471ZM61.5254 37.4471C60.9751 37.6065 60.5493 38.1725 60.5493 38.7449C60.5493 39.1247 60.6266 39.2935 60.9476 39.6145L61.3458 40.0127H64.4598H67.5738L67.9387 39.6868C68.47 39.212 68.5445 38.4484 68.1097 37.9315C67.9376 37.727 67.6025 37.5057 67.3651 37.4398C66.8344 37.2924 62.0389 37.2984 61.5254 37.4471ZM21.2768 54.7428C20.06 55.9508 18.9895 57.0815 18.8978 57.2554C18.6279 57.7675 18.6908 58.2321 19.0914 58.6885C19.5255 59.1829 20.0736 59.3239 20.5618 59.0669C20.7468 58.9696 21.9128 57.868 23.153 56.6191C25.3784 54.3782 25.4079 54.3418 25.4079 53.8458C25.4079 53.4302 25.3388 53.2739 25.0097 52.9447C24.6676 52.6027 24.5322 52.5465 24.0503 52.5465H23.4892L21.2768 54.7428ZM55.2782 53.498C54.5466 53.7898 54.1765 54.5608 54.4506 55.2225C54.5256 55.4036 55.8125 56.7733 57.3103 58.2661L60.0336 60.9804H60.596C61.0794 60.9804 61.2144 60.9244 61.5567 60.5821C61.8862 60.2526 61.9549 60.0968 61.9549 59.68C61.9549 59.1794 61.9376 59.1587 59.2315 56.4343C56.8586 54.0454 56.0398 53.3432 55.6625 53.3738C55.6122 53.3779 55.4391 53.4338 55.2782 53.498ZM38.8085 59.973L38.4102 60.3713V64.7874V69.2035L38.8085 69.6017C39.135 69.9282 39.2955 70 39.6988 70C40.1021 70 40.2625 69.9282 40.589 69.6017L40.9873 69.2035V64.7874V60.3713L40.589 59.973C40.2625 59.6465 40.1021 59.5747 39.6988 59.5747C39.2955 59.5747 39.135 59.6465 38.8085 59.973Z" fill="#1E2831"/>
</svg>
