<svg width="80" height="80" viewBox="0 0 80 80" fill="none" xmlns="http://www.w3.org/2000/svg">
<path d="M41.5 58.5L38 63L40.5 66L48.5 67.5L59 65L67 58.5L68 55.5L60 52.5L50.5 53.5L41.5 58.5Z" fill="#FFC861"/>
<path fill-rule="evenodd" clip-rule="evenodd" d="M35.3806 12.0513C26.4595 12.5988 18.4452 17.4499 13.823 25.1004C10.3199 30.8986 9.17549 37.8074 10.5919 44.6063C11.4689 48.8154 13.6396 53.1625 16.5077 56.4534C19.9416 60.3937 24.3231 63.2297 29.277 64.7186C29.9167 64.9109 30.576 65.0663 30.7421 65.0641C31.4344 65.0545 32.038 64.3829 32.0393 63.6207C32.0406 62.8703 31.5495 62.496 29.8718 61.9691C28.2112 61.4475 26.5356 60.7658 25.4765 60.1805C23.392 59.0287 20.5317 56.9087 20.8154 56.7256C21.3671 56.3694 26.4642 54.924 27.4499 54.8442L27.8412 54.8125L28.3378 56.2776C28.6109 57.0834 28.9091 57.8615 29.0004 58.0064C29.1956 58.3167 29.7876 58.6218 30.1945 58.6218C30.6606 58.6218 31.2599 58.1395 31.4417 57.6181C31.598 57.1695 31.5844 57.09 31.123 55.7527C30.858 54.9844 30.653 54.3439 30.6674 54.3295C30.6819 54.315 31.2472 54.2424 31.9236 54.1681C32.6002 54.0938 33.3142 53.957 33.5104 53.8642C34.6233 53.3372 34.43 51.6728 33.2198 51.3623C32.9483 51.2927 32.3095 51.3076 31.3955 51.4051C30.6219 51.4876 29.97 51.5394 29.9468 51.5202C29.6969 51.314 28.7583 44.6005 28.7583 43.0199V42.5399L29.6667 42.6145C33.5545 42.9338 38.3928 43.0073 38.9938 42.7561C39.7208 42.4524 40.0045 41.5226 39.5865 40.8146C39.2188 40.1924 39.1341 40.1768 35.615 40.0863C33.81 40.0398 31.5948 39.9457 30.6923 39.8771C29.7898 39.8084 28.9508 39.752 28.8279 39.7518C28.6125 39.7513 28.6071 39.6536 28.6765 37.0263C28.7553 34.0507 29.1659 29.5765 29.3799 29.3625C29.4038 29.3386 30.2099 29.4046 31.1713 29.5091C33.5922 29.7724 39.1018 29.7722 41.4168 29.5088C42.3515 29.4025 43.409 29.2836 43.7667 29.2448L44.4169 29.1742L44.6144 30.7415C44.723 31.6034 44.8711 33.0207 44.9434 33.891C45.0182 34.7897 45.1525 35.64 45.2543 35.8593C45.7159 36.8541 47.2114 36.8114 47.6963 35.7896C47.8628 35.4387 47.8691 35.199 47.7496 33.7333C47.6752 32.8208 47.5122 31.323 47.3872 30.405C47.2622 29.4869 47.1599 28.7153 47.1599 28.6906C47.1599 28.6658 47.6741 28.5285 48.3027 28.3856C50.8501 27.8061 53.4651 26.9711 55.6637 26.0353C56.2662 25.779 56.8132 25.5692 56.8794 25.5692C57.1405 25.5692 58.8524 28.8037 59.4536 30.4333C59.8525 31.5146 60.261 31.8984 61.0125 31.8984C61.5744 31.8984 62.2407 31.3467 62.3441 30.7957C62.4965 29.9835 60.875 26.4156 59.2607 24.0109C54.5454 16.9869 47.0484 12.6724 38.5452 12.0891C36.9513 11.9798 36.6121 11.9758 35.3806 12.0513ZM37.5946 14.9522C39.4067 15.4975 41.3115 18.22 42.7268 22.2874C43.0727 23.2813 43.8978 26.2919 43.8402 26.3496C43.7548 26.4349 40.8746 26.7464 39.0726 26.8654C35.9307 27.0726 29.9304 26.7805 29.9304 26.4204C29.9304 26.3315 30.0868 25.6421 30.2779 24.8885C31.6838 19.3446 34.0375 15.4509 36.3182 14.8957C36.852 14.7657 36.9965 14.7721 37.5946 14.9522ZM31.2197 15.5507C31.2197 15.5845 31.0424 15.8699 30.8258 16.185C29.6654 17.8717 28.3806 21.0364 27.5868 24.1627C27.3168 25.2264 27.0871 26.1059 27.0764 26.1171C27.0485 26.1464 24.7367 25.6351 23.8356 25.4002C22.6198 25.0833 20.5858 24.4268 19.4116 23.9722L18.3279 23.5529L18.997 22.7908C21.7548 19.6496 25.7246 17.1367 29.989 15.8329C31.1522 15.4773 31.2197 15.4618 31.2197 15.5507ZM45.5798 16.4544C47.9393 17.3727 50.0905 18.619 52.0827 20.2219C53.2439 21.1562 55.1736 23.1121 55.0511 23.2307C54.7064 23.5644 51.1205 24.7844 48.6794 25.3985C46.6261 25.9151 46.6209 25.915 46.5176 25.3641C46.3447 24.4401 45.4039 21.3555 44.936 20.1776C44.3657 18.7421 43.5933 17.1722 43.0046 16.2519C42.7759 15.8945 42.5888 15.5802 42.5888 15.5534C42.5888 15.461 44.5283 16.0451 45.5798 16.4544ZM17.918 26.3902C19.9781 27.2284 23.1315 28.1739 25.5644 28.6827C26.6562 28.911 26.6162 28.8447 26.4135 30.0938C26.165 31.6249 25.9394 34.4129 25.8667 36.8504L25.7907 39.3997H25.5205C24.2084 39.3997 17.5512 38.2118 14.2995 37.3975L12.8367 37.0312L12.8809 36.6624C13.2655 33.4506 14.0213 30.7879 15.2485 28.3236C15.8831 27.0492 16.553 25.9208 16.675 25.9208C16.7241 25.9208 17.2835 26.132 17.918 26.3902ZM63.1002 34.7901C62.0481 34.8654 59.8496 35.2017 58.6463 35.4713C54.58 36.3827 50.7023 38.1952 47.1942 40.8244C45.6081 42.013 42.7363 44.9058 41.5107 46.5494C37.8773 51.4218 35.9178 56.746 35.5606 62.7173C35.4035 65.3413 35.4252 65.374 38.1776 66.6476C46.5595 70.5265 56.5842 69.2705 63.9269 63.4214C66.4597 61.4038 69.8023 57.2769 69.9807 55.9471C70.0804 55.2035 69.8204 54.8771 68.5888 54.199C65.2802 52.3771 61.1594 51.3549 57.1226 51.3549C50.6648 51.3549 44.6891 53.7599 39.9964 58.2473L38.7519 59.4374L38.9746 58.4728C40.4839 51.9366 44.3152 46.2662 49.8557 42.3688C53.5659 39.7588 58.3329 38.0121 62.6308 37.6877L63.6862 37.608V38.1665C63.6862 40.1639 62.7328 44.1034 61.621 46.6986C61.1713 47.7487 61.1156 48.1168 61.33 48.6216C61.6447 49.3624 62.6513 49.6478 63.2996 49.18C64.1482 48.5677 65.6338 44.3304 66.1944 40.9234C66.4391 39.4365 66.6531 36.6377 66.5647 36.0804C66.3688 34.8435 65.7217 34.6025 63.1002 34.7901ZM14.7791 40.3892C17.4716 41.0166 19.9096 41.4655 22.7807 41.8626C26.2957 42.3488 25.9453 42.2409 25.9453 42.8377C25.9453 44.2975 26.6057 49.4942 27.0733 51.7154C27.1355 52.0104 27.1132 52.0223 26.1016 52.2313C24.5461 52.5527 21.6391 53.4056 20.0881 53.9956C19.3308 54.2838 18.6605 54.5195 18.5986 54.5195C18.4275 54.5195 17.3986 53.1883 16.6051 51.9404C15.256 49.8187 14.2198 47.4699 13.6321 45.2015C13.0643 43.0103 12.6511 39.9858 12.9193 39.9858C12.9901 39.9858 13.8271 40.1673 14.7791 40.3892ZM59.7042 54.2913C61.1719 54.4737 62.3035 54.7245 63.7233 55.1823C64.8276 55.5384 66.454 56.1934 66.6024 56.3417C66.7168 56.4561 64.8677 58.7074 63.8201 59.7289C62.4485 61.0665 61.7066 61.6713 60.3622 62.5475C54.9605 66.0686 48.0125 67.0239 41.9031 65.0857L40.9241 64.7752L44.5988 63.7865C50.0058 62.3319 50.0284 62.3243 50.3161 61.8586C50.857 60.9834 50.42 59.9255 49.4367 59.73C49.1789 59.6786 47.8954 59.9794 44.9242 60.7876C42.6405 61.4085 40.6798 61.9437 40.567 61.9766C40.4543 62.0097 40.3619 61.9891 40.3619 61.9309C40.3619 61.7828 42.7541 59.44 43.493 58.8645C46.6132 56.4346 50.5211 54.7958 54.3724 54.3022C55.5397 54.1525 58.5385 54.1464 59.7042 54.2913Z" fill="#1E2831"/>
</svg>
