<svg width="80" height="80" viewBox="0 0 80 80" fill="none" xmlns="http://www.w3.org/2000/svg">
<path d="M36.5 69.5V41.5L20 41V69L36.5 69.5Z" fill="#FFC861"/>
<path fill-rule="evenodd" clip-rule="evenodd" d="M39.4191 8.11862C39.2329 8.17983 38.8369 8.35669 38.539 8.51147C38.2411 8.66625 31.2802 14.3139 23.0704 21.0618C12.5509 29.708 8.11862 33.4294 8.05944 33.6653C8.01313 33.8494 8.01097 34.1372 8.05443 34.3047C8.16696 34.7378 11.9388 39.1782 12.3717 39.3873C12.6676 39.53 12.8109 39.5277 13.1778 39.3743C13.4233 39.2718 13.7105 39.0837 13.8161 38.9563C13.9217 38.829 14.1197 38.6651 14.2562 38.592C14.496 38.4636 14.5043 38.929 14.5043 52.4796V66.5H11.5869C7.7189 66.5 8.00474 66.2407 8.00474 69.75C8.00474 72.3143 8.00745 72.338 8.33716 72.6676L8.66945 73H40.5024H72.3353L72.6676 72.6676C72.9973 72.338 73 72.3143 73 69.75C73 67.1858 72.9973 67.1621 72.6676 66.8324C72.3968 66.5615 72.1999 66.5 71.6033 66.5H70.8713L70.7877 65.7891C70.663 64.7283 69.882 63.2588 69.0372 62.4955C68.3772 61.8991 67.139 61.2188 66.7139 61.2188C66.612 61.2188 66.3353 60.9173 66.0989 60.5488C63.7806 56.9358 58.3878 56.9358 56.0695 60.5488C55.8331 60.9173 55.5509 61.2188 55.4423 61.2188C55.0379 61.2188 53.7655 61.9282 53.1052 62.522C52.2872 63.2575 51.5038 64.7418 51.3807 65.7891L51.2971 66.5H44.8166H38.3359V53.8324V41.1648L38.0034 40.8324L37.6712 40.5H29.6698H21.6685L21.3362 40.8324L21.0038 41.1648V53.8324V66.5H18.8373H16.6708V51.5531V36.6064L28.5195 26.8734C35.0363 21.5204 40.4286 17.1406 40.5024 17.1406C40.5762 17.1406 45.9685 21.5204 52.4852 26.8734L64.334 36.6064V46.3458V56.0852L64.6664 56.4176C65.0698 56.8211 65.668 56.8516 66.1131 56.4912L66.4328 56.2323L66.5005 47.3249L66.5682 38.4174L67.0546 38.8445C67.7328 39.4402 68.1963 39.598 68.6392 39.3842C69.0678 39.1774 72.8389 34.734 72.9503 34.3047C73.1292 33.6156 72.8937 33.3574 69.681 30.7202L66.5006 28.1094L66.5005 18.8195V9.52967L66.1926 9.07277C66.0233 8.82144 65.6791 8.47721 65.4278 8.30794C64.9732 8.00149 64.9463 8 60.0009 8C55.0698 8 55.0275 8.00244 54.5833 8.30469C54.3372 8.47233 54.0083 8.78135 53.8524 8.99139C53.584 9.35335 53.5656 9.5837 53.5014 13.3723L53.4337 17.3711L48.2206 13.0821C45.3533 10.7231 42.7027 8.63551 42.3304 8.44308C41.6073 8.06933 40.0845 7.89966 39.4191 8.11862ZM41.4032 10.4223C41.7652 10.6146 70.2736 34.0761 70.25 34.1624C70.2358 34.2144 69.7483 34.8344 69.1668 35.5404L68.1095 36.8238L54.6105 25.7266C47.1862 19.6231 40.9747 14.5936 40.807 14.55C40.6394 14.5064 40.3653 14.5065 40.1977 14.5504C40.0301 14.5941 33.8184 19.6235 26.3939 25.7267L12.895 36.8234L11.8377 35.5402C11.2563 34.8344 10.7689 34.2144 10.7546 34.1624C10.7404 34.1102 15.8178 29.8935 22.0379 24.7917C28.2581 19.6898 34.7722 14.3468 36.5141 12.9183C38.5669 11.2347 39.8136 10.3029 40.0578 10.2694C40.4697 10.2132 41.1567 10.2913 41.4032 10.4223ZM64.334 18.2449C64.334 25.9254 64.3223 26.3132 64.097 26.1206C63.9667 26.0092 62.0168 24.4072 59.764 22.5607L55.6679 19.2033V14.685V10.1667H60.0009H64.334V18.2449ZM43.0013 40.8324L42.6689 41.1648V48.0833V55.0019L43.0013 55.3342L43.3336 55.6667H51.3349H59.3362L59.6685 55.3342L60.0009 55.0019V48.0833V41.1648L59.6685 40.8324L59.3362 40.5H51.3349H43.3336L43.0013 40.8324ZM36.1694 54.5833V66.5H29.6698H23.1703V54.5833V42.6667H29.6698H36.1694V54.5833ZM50.2517 44.8333V47H47.5435H44.8354V44.8333V42.6667H47.5435H50.2517V44.8333ZM57.8344 44.8333V47H55.1263H52.4182V44.8333V42.6667H55.1263H57.8344V44.8333ZM50.2517 51.3333V53.5H47.5435H44.8354V51.3333V49.1667H47.5435H50.2517V51.3333ZM57.8344 51.3333V53.5H55.1263H52.4182V51.3333V49.1667H55.1263H57.8344V51.3333ZM62.6534 60.398C63.3645 60.7122 64.165 61.5145 64.4817 62.2307C64.8155 62.9853 65.0799 63.1912 65.9488 63.3739C66.8969 63.573 67.4923 63.9485 67.9768 64.6528C68.3067 65.1322 68.6636 66.0359 68.6662 66.3984C68.6666 66.4544 65.2547 66.5 61.0842 66.5C56.9137 66.5 53.5014 66.4488 53.5014 66.3861C53.5014 66.0182 53.9263 64.9679 54.2432 64.5523C54.7298 63.9144 55.3195 63.5628 56.2196 63.3743C56.9366 63.2241 57.5636 62.8184 57.5636 62.5048C57.5636 62.4188 57.7468 62.0719 57.9709 61.7336C58.9824 60.2064 60.9499 59.6451 62.6534 60.398ZM70.8335 69.75V70.8333H40.5024H10.1712V69.75V68.6667H40.5024H70.8335V69.75Z" fill="#1E2831"/>
</svg>
