<svg width="60" height="60" viewBox="0 0 60 60" fill="none" xmlns="http://www.w3.org/2000/svg">
<path d="M30 37L11.5 28L11 37L14.5 41.5L25 45.5H34C38.5 43.6667 47.7 39.7 48.5 38.5C49.3 37.3 48.8333 30.6667 48.5 27.5L30 37Z" fill="#FFC861"/>
<path fill-rule="evenodd" clip-rule="evenodd" d="M15.0985 14.4659C4.80296 19.6194 0.419917 21.8699 0.244956 22.0923C-0.0801224 22.5055 -0.0818802 23.1825 0.241089 23.593C0.40269 23.7984 2.07003 24.6976 5.16296 26.2472L9.84039 28.5906L9.84109 32.544C9.84179 36.7311 9.90929 37.5448 10.3284 38.4151C11.1262 40.0719 15.0028 42.9199 18.6802 44.5508C22.289 46.1513 25.9456 46.9152 29.9966 46.9152C33.2983 46.9152 36.0491 46.4636 39.0787 45.4241C43.5668 43.8841 48.6485 40.5193 49.6642 38.4151C50.084 37.5456 50.1515 36.7329 50.1522 32.5433L50.1529 28.5891L51.5574 27.8851C52.3298 27.4978 52.9889 27.1811 53.0222 27.1811C53.0554 27.1811 53.0826 29.3959 53.0826 32.1029C53.0826 35.5202 53.0443 37.0248 52.9572 37.0248C52.6893 37.0248 51.7828 37.7598 51.4448 38.2512C50.3905 39.7834 50.6174 41.7454 51.9941 43.0037C52.3453 43.3247 52.6724 43.5873 52.7209 43.5873C52.7694 43.5873 52.317 45.2879 51.7155 47.3666C51.1141 49.4453 50.6219 51.3428 50.6218 51.5835C50.6216 51.9015 50.715 52.1257 50.9636 52.4038L51.3055 52.7865H54.4302H57.5549L57.8969 52.4038C58.1471 52.1238 58.2381 51.9036 58.2364 51.5835C58.2351 51.3428 57.7402 49.4453 57.1367 47.3666C56.5332 45.2879 56.0802 43.5873 56.1303 43.5873C56.3843 43.5873 57.4425 42.4482 57.7251 41.8707C58.1663 40.9689 58.1731 39.8165 57.7425 38.8763C57.4131 38.1566 56.6828 37.3712 56.1304 37.1424L55.7779 36.9963V31.3893V25.7821L57.6482 24.8361C58.7079 24.3001 59.6221 23.7584 59.7576 23.5862C60.0751 23.1825 60.0709 22.5024 59.7483 22.0923C59.455 21.7193 30.3965 7.1379 29.9676 7.14844C29.8224 7.15208 23.1313 10.4448 15.0985 14.4659ZM43.0028 16.3909L55.8331 22.8143L55.0111 23.2283L54.1892 23.6422L42.4152 22.6022C35.9394 22.0301 30.3947 21.5607 30.0935 21.5591C29.674 21.5568 29.4624 21.6263 29.1893 21.8561C28.4833 22.4502 28.6294 23.615 29.4531 23.9592C29.7052 24.0646 33.2649 24.4195 39.4422 24.9556C44.7208 25.4135 49.1714 25.8169 49.3326 25.852C49.5625 25.902 47.5117 26.9732 39.8111 30.8258L29.9968 35.736L17.0769 29.2759L4.15726 22.8158L16.9891 16.3916C24.0466 12.8583 29.9 9.96739 29.9966 9.96739C30.0933 9.96739 35.9461 12.8579 43.0028 16.3909ZM29.9966 38.4311C30.3796 38.4311 32.0433 37.6424 39.0282 34.1497L47.5902 29.8683L47.5532 33.4173C47.5207 36.5241 47.4907 37.0127 47.3121 37.3392C46.9108 38.0731 44.1395 40.1527 42.0669 41.2753C38.2988 43.3164 34.3839 44.2962 29.9966 44.2962C25.6094 44.2962 21.6945 43.3164 17.9263 41.2753C15.8537 40.1527 13.0825 38.0731 12.6811 37.3392C12.5025 37.0127 12.4725 36.5241 12.4401 33.4173L12.403 29.8683L20.9651 34.1497C27.95 37.6424 29.6137 38.4311 29.9966 38.4311ZM55.1627 39.6395C55.5366 39.9779 55.5248 40.687 55.1386 41.0731C54.4928 41.719 53.4341 41.2586 53.4341 40.3318C53.4341 39.4027 54.4509 38.9954 55.1627 39.6395ZM54.8291 48.761C55.0287 49.4474 55.1919 50.0671 55.1919 50.138C55.1919 50.2186 54.9064 50.267 54.4302 50.267C53.9705 50.267 53.6685 50.2177 53.6685 50.1424C53.6685 49.975 54.4 47.4435 54.4371 47.4824C54.4533 47.4993 54.6297 48.0747 54.8291 48.761Z" fill="#1E2831"/>
</svg>
