<svg width="80" height="80" viewBox="0 0 80 80" fill="none" xmlns="http://www.w3.org/2000/svg">
<path d="M54.5 40L44 43L43.5 54L47 61L55.5 68L62 63L66.5 56L67 43L54.5 40Z" fill="#FFC861"/>
<path fill-rule="evenodd" clip-rule="evenodd" d="M38.9803 10.2141C37.5389 10.69 36.269 11.8369 35.5824 13.2824L35.2136 14.0591L34.4505 13.681C31.4097 12.1737 27.8197 13.8651 26.6265 17.3671C26.3462 18.1897 26.3403 18.4054 26.2724 30.2185L26.2033 42.2332L23.6794 39.2985C22.2912 37.6844 20.8299 36.0561 20.4321 35.6799C17.2879 32.7061 12.3534 34.3055 11.1898 38.6755C10.7657 40.2686 11.0717 42.3959 11.9148 43.7151C12.1267 44.0466 13.9346 46.4148 15.9324 48.9777C19.9425 54.1223 22.5877 57.6758 24.2335 60.1292C25.5728 62.1255 26.9503 63.7128 28.4229 64.9569C32.1253 68.0848 36.1904 69.733 40.6677 69.9211L42.5439 70L42.9732 69.6387C43.4777 69.2143 43.6543 68.5399 43.4135 67.9586C43.1279 67.2689 42.7177 67.1154 40.871 67.0073C38.1231 66.8465 36.3716 66.377 33.9036 65.1397C31.0372 63.7028 28.6396 61.4959 26.6029 58.4201C25.147 56.2211 22.3465 52.4597 18.2508 47.2018C16.1586 44.5161 14.3363 42.0754 14.2012 41.7781C13.9134 41.1446 13.8736 39.9161 14.1147 39.1114C14.21 38.7931 14.5347 38.2979 14.8847 37.9366C15.8623 36.9276 16.9667 36.7893 18.089 37.5355C18.3821 37.7303 20.407 39.9688 22.5888 42.5099C24.7707 45.051 26.7058 47.2656 26.8893 47.4314C27.4083 47.9005 28.2746 47.8504 28.8044 47.3206L29.2165 46.9085V33.0206C29.2165 21.8091 29.2513 18.9986 29.3969 18.4371C29.9842 16.1728 32.1987 15.3273 33.7859 16.7613C34.8447 17.7178 34.7662 16.8481 34.841 28.4485C34.9032 38.0784 34.925 38.8522 35.1442 39.1748C35.6788 39.9614 36.6567 40.0514 37.3319 39.3762L37.7872 38.9209V27.4641C37.7872 19.7987 37.8349 15.7852 37.9312 15.3361C38.1018 14.5403 38.4725 13.9584 39.1619 13.4036C39.5611 13.0823 39.8285 12.9861 40.4447 12.9415C41.6824 12.8519 42.5725 13.4194 43.1327 14.6549C43.3997 15.2439 43.406 15.483 43.4096 25.1675C43.4119 31.5372 43.4625 35.2546 43.5511 35.5736C43.8513 36.6543 45.1534 36.9979 45.9459 36.2054L46.358 35.7934V27.463C46.358 20.9115 46.3965 18.9841 46.5384 18.4371C47.1257 16.1728 49.3402 15.3273 50.9274 16.7613C51.9636 17.6974 51.9078 17.2611 51.9825 24.9977L52.0495 31.9255L52.4873 32.3632C52.8538 32.7296 53.0247 32.8008 53.5361 32.8008C54.057 32.8008 54.2048 32.7363 54.5379 32.3634L54.9287 31.9261V28.7207C54.9287 26.9094 54.9923 25.2189 55.075 24.8335C55.3641 23.4856 56.5507 22.4286 57.7798 22.4243C58.8888 22.4206 59.7593 23.0274 60.2742 24.1631C60.5322 24.7324 60.5476 25.0255 60.5511 29.4529C60.5533 32.2443 60.6106 34.3407 60.6927 34.6364C60.9357 35.5119 61.8912 35.919 62.7667 35.52C63.4811 35.1945 63.4995 35.0466 63.4995 29.6075C63.4995 24.9637 63.4795 24.5287 63.2304 23.7219C62.7048 22.0204 61.524 20.6543 59.9413 19.9166C59.2418 19.5906 58.9875 19.5463 57.808 19.5447C56.6314 19.5432 56.3753 19.5867 55.6987 19.9039L54.9287 20.2646L54.9271 19.3012C54.9242 17.5022 54.223 15.8358 52.9706 14.6513C51.2971 13.0687 48.8894 12.6861 46.8777 13.6832L46.1017 14.0678L45.6913 13.2345C45.0775 11.9874 44.2371 11.1308 43.0545 10.5463C42.1672 10.1078 41.912 10.0443 40.8889 10.008C40.0318 9.97759 39.5335 10.0313 38.9803 10.2141ZM48.8156 40.0775C44.97 41.0504 43.0813 41.5872 42.8887 41.7617C42.3403 42.2586 42.3031 42.7354 42.3801 48.287C42.4433 52.8457 42.4894 53.7319 42.7204 54.844C43.5033 58.6115 45.1831 61.7969 47.7641 64.4079C49.4587 66.1221 53.0766 68.813 54.0785 69.1042C54.9985 69.3717 56.1042 69.3036 56.9552 68.9273C57.9606 68.4826 61.7393 65.5389 62.9847 64.2302C65.4148 61.6766 67.0226 58.6455 67.7958 55.1607C68.0687 53.9304 68.0966 53.3855 68.1512 48.2014C68.2041 43.1831 68.187 42.533 67.992 42.1703C67.8719 41.9467 67.6576 41.6914 67.5161 41.6028C67.3744 41.5145 64.7264 40.8084 61.6317 40.0341C57.5262 39.0068 55.796 38.6293 55.2324 38.6379C54.7248 38.6455 52.5256 39.1389 48.8156 40.0775ZM60.4863 42.7567L65.1734 43.9331L65.1726 48.6787C65.1721 52.8045 65.1394 53.5728 64.923 54.5625C64.2272 57.7444 62.7071 60.4735 60.4052 62.6734C59.4756 63.5618 56.5545 65.8471 55.9085 66.1914C55.2345 66.5505 54.8816 66.4015 52.8936 64.9182C51.84 64.1323 50.5951 63.1229 50.127 62.6751C47.9231 60.5671 46.2795 57.5547 45.5968 54.3718C45.4461 53.6695 45.3761 52.2038 45.3261 48.7096L45.2588 43.995L45.641 43.8982C45.8512 43.845 47.9817 43.3053 50.3755 42.6991C52.7693 42.0928 54.9689 41.5931 55.2635 41.5885C55.5581 41.584 57.9084 42.1096 60.4863 42.7567ZM57.5167 52.8489L55.3323 55.0187L53.7454 53.4515C52.1697 51.8951 52.1541 51.8841 51.5245 51.8841C51.0024 51.8841 50.8216 51.9532 50.4991 52.2756C50.1761 52.5986 50.1077 52.7784 50.1077 53.3045V53.942L52.3448 56.1931C54.6595 58.5226 54.9893 58.7463 55.7541 58.5078C56.103 58.3991 60.7701 53.8545 61.3735 53.0358C61.9145 52.3018 61.8933 51.7242 61.3032 51.1342C60.9272 50.7581 60.748 50.6789 60.2746 50.6789C59.7128 50.6789 59.6568 50.7228 57.5167 52.8489Z" fill="#1E2831"/>
</svg>
