<svg width="80" height="80" viewBox="0 0 80 80" fill="none" xmlns="http://www.w3.org/2000/svg">
<path d="M65 67L11.5 47.5H11L11.5 65.5L12.5 68L19 69H59.5L65 67Z" fill="#FFC861"/>
<path fill-rule="evenodd" clip-rule="evenodd" d="M48.3338 10.1298C47.5938 10.3434 47.8639 10.1899 33.1673 18.7469L20.2642 26.2596L17.9182 26.2636C16.6278 26.2657 15.2026 26.3203 14.751 26.3848C12.6299 26.6881 10.8611 28.1936 10.2307 30.2326C10.0062 30.9589 10.0003 31.4132 10.0003 48.1188C10.0003 66.9905 9.96254 65.9891 10.7207 67.2386C11.2084 68.0425 11.9226 68.7623 12.7074 69.241C14.0392 70.0532 12.1915 69.9993 38.6839 69.9993C60.3604 69.9993 62.6864 69.9814 63.2631 69.8102C65.3763 69.1835 66.9123 67.5106 67.2462 65.4717C67.3085 65.092 67.3611 62.8291 67.3631 60.4429L67.3668 56.1045L67.8574 55.8779C68.5045 55.5792 69.2617 54.8088 69.6703 54.0335L70 53.4076V48.1897V42.9718L69.6693 42.3269C69.2499 41.5091 68.7559 40.9889 67.9765 40.5449L67.3607 40.1939V35.824C67.3607 33.3421 67.309 31.1815 67.241 30.8231C66.8371 28.6943 65.0767 26.9018 62.9758 26.48L62.321 26.3486L58.4866 19.6515C56.3778 15.9681 54.4461 12.6479 54.194 12.2732C53.6574 11.476 52.6264 10.6742 51.6687 10.3095C50.8258 9.98862 49.1381 9.89763 48.3338 10.1298ZM50.8799 13.0008C51.4853 13.2809 52.0865 13.9057 51.9154 14.0767C51.8471 14.145 47.1286 16.9148 41.4297 20.2318L31.0681 26.2629H28.4873C27.0042 26.2629 25.9538 26.2192 26.0178 26.1602C26.1883 26.0032 48.3669 13.1165 48.7684 12.9412C49.2834 12.7165 50.3293 12.746 50.8799 13.0008ZM54.0924 17.585C54.4222 18.165 54.6915 18.6794 54.6906 18.7283C54.6897 18.7772 51.8063 20.4934 48.2829 22.5422L41.8767 26.2673L39.2907 26.2358L36.7047 26.2043L45.0168 21.3675C49.5885 18.7073 53.3658 16.5307 53.4109 16.5307C53.4559 16.5307 53.7625 17.0051 54.0924 17.585ZM57.592 23.7126L59.0165 26.2043L56.1506 26.2356C54.5743 26.2529 51.9872 26.2529 50.4015 26.2356L47.5184 26.2043L51.7798 23.7184C54.1235 22.3512 56.0695 21.2299 56.1044 21.2268C56.1391 21.2235 56.8085 22.3422 57.592 23.7126ZM63.0792 29.3881C63.6821 29.7124 64.0033 30.0622 64.301 30.7186C64.528 31.2191 64.5404 31.4713 64.5429 35.614L64.5455 39.9818L60 39.9838C54.7507 39.9861 54.409 40.0282 52.698 40.8831C48.0136 43.2239 46.7552 49.4317 50.1512 53.4471C51.2257 54.7177 52.6348 55.6258 54.2943 56.1172C54.8895 56.2935 55.6491 56.3282 59.7654 56.3669L64.5455 56.4119L64.5429 60.7725C64.5401 65.6089 64.5336 65.6547 63.7431 66.4448C62.937 67.2506 64.9462 67.1939 38.4373 67.1585L14.4993 67.1265L14.0103 66.803C13.7414 66.6251 13.3758 66.2596 13.1978 65.9909L12.8742 65.502L12.8396 48.4328C12.8151 36.3638 12.8424 31.2342 12.9328 30.9218C13.1531 30.1611 13.9089 29.4617 14.809 29.1858C14.9706 29.1362 25.792 29.1047 38.8565 29.1157L62.61 29.1357L63.0792 29.3881ZM66.8825 43.1567L67.2434 43.5175V48.1382V52.7589L66.9012 53.1419L66.559 53.5248L61.3164 53.5577C58.0548 53.5781 55.8254 53.5447 55.4166 53.4691C52.8817 53.0007 51.0519 50.8135 51.04 48.2378C51.0329 46.7279 51.4732 45.5639 52.445 44.5222C53.1035 43.8164 53.6956 43.4242 54.6335 43.0722C55.3265 42.8122 55.4227 42.808 60.9294 42.802L66.5215 42.7959L66.8825 43.1567ZM55.5363 45.5934C53.2225 46.4094 53.0081 49.5819 55.1977 50.6009C56.6564 51.2799 58.2079 50.734 58.872 49.3084C59.8886 47.126 57.7968 44.7962 55.5363 45.5934Z" fill="#1E2831"/>
</svg>
