<?xml version="1.0" encoding="utf-8"?><svg xmlns="http://www.w3.org/2000/svg" xmlns:xlink="http://www.w3.org/1999/xlink"><symbol viewBox="0 0 22 24" id="basket" xmlns="http://www.w3.org/2000/svg"><g clip-path="url(#aa)"><path d="M10.363 18.443a2.046 2.046 0 00-2.045 2.042 2.046 2.046 0 004.09 0 2.046 2.046 0 00-2.045-2.042zm6.134 0a2.046 2.046 0 00-2.045 2.042 2.046 2.046 0 004.089 0 2.046 2.046 0 00-2.044-2.042zm3.978-8.199L7.413 6.891a.614.614 0 00-.75.73L8.67 16.4h-.786L5.482 5.895a.613.613 0 00-.474-.464l-4.27-.882A.614.614 0 00.489 5.75l3.885.802L6.797 17.15a.613.613 0 00.598.477h12.07a.615.615 0 00.607-.53l.858-6.175a.613.613 0 00-.455-.678zm-8.14 3.91a.613.613 0 01-1.227 0v-2.696a.613.613 0 011.227 0v2.696zm2.625 0a.613.613 0 01-1.227 0v-1.88a.613.613 0 011.227 0v1.88zm2.625 0a.613.613 0 01-1.227 0v-1.226a.613.613 0 011.227 0v1.226z"/></g><path fill-rule="evenodd" clip-rule="evenodd" d="M16.268 4.568a2.996 2.996 0 00-1.693-.523c-.627 0-1.21.193-1.693.523-.28-.843-.492-1.752-.492-2.383C12.39.98 13.37 0 14.575 0s2.185.98 2.185 2.185c0 .631-.212 1.54-.492 2.383zm-4.722 2.274l.024.006v-.011l-.024.005zm4.972 1.217c-1.333-.33-2.766-.681-4.129-1.013a2.185 2.185 0 114.129 1.013zm4.436 1.103c-.866-.217-2.155-.538-3.618-.9a2.995 2.995 0 00.243-1.425c.87.18 1.762.45 2.308.765.596.344.969.928 1.067 1.56zM9.869 6.439c-.36-.086-.706-.167-1.03-.243a2.19 2.19 0 01-.376-2.667 2.188 2.188 0 013.147-.7c.098.738.338 1.599.61 2.353a3.01 3.01 0 00-.449.774c-.628.113-1.305.278-1.902.483zm10.124.075a3.43 3.43 0 01-.217.114c-.696-.295-1.587-.526-2.397-.672a3.01 3.01 0 00-.449-.774c.262-.727.494-1.553.599-2.273.095-.067.189-.128.278-.18a2.188 2.188 0 012.986.8 2.188 2.188 0 01-.8 2.985z"/><defs><clipPath id="aa"><path transform="translate(0 3.064)" d="M0 0h20.936v20.936H0z"/></clipPath></defs></symbol><symbol viewBox="0 0 20 20" id="bathroom" xmlns="http://www.w3.org/2000/svg"><g clip-path="url(#ba)"><path fill-rule="evenodd" clip-rule="evenodd" d="M3.101.077c-.834.22-1.49.833-1.803 1.687l-.104.287-.011 4.24-.01 4.241-.177.094c-.777.412-1.178 1.391-.916 2.239.144.465.506.909.924 1.131l.162.086.018.843c.016.71.032.891.105 1.155.356 1.29 1.313 2.294 2.562 2.689.366.115.81.183 1.193.183h.27v.303c0 .492.166.712.555.741.16.012.236-.003.334-.064.216-.136.283-.29.283-.657v-.323h7.03v.322c0 .368.067.522.283.658.098.061.175.076.334.064.39-.029.555-.25.555-.741v-.303h.27a3.88 3.88 0 002.805-1.186 3.64 3.64 0 00.714-1.053c.271-.58.32-.837.341-1.786l.02-.84.234-.136A1.91 1.91 0 0020 12.309c0-.843-.55-1.587-1.359-1.837-.246-.077-.38-.078-8.274-.078H2.343l.012-4.054c.01-3.769.016-4.067.08-4.23.169-.429.545-.764.983-.878.278-.072 1.588-.085 1.838-.018.116.031.229.118.443.342.493.514.463.434.443 1.179l-.016.645-.123.078c-.364.233-.324.825.068 1.011.12.057.412.064 2.686.063 2.85 0 2.725.012 2.917-.273.077-.115.09-.173.076-.367-.015-.21-.03-.243-.173-.377l-.157-.146-.026-.561c-.03-.637-.094-.955-.262-1.307C10.375-.086 8.28-.504 7.007.68L6.75.918 6.452.624C5.885.064 5.66 0 4.339.002c-.807.002-1.002.013-1.238.075zm5.932 1.139c.469.1.815.375 1.02.81.114.244.123.292.137.797l.015.538-1.44-.01-1.44-.01.007-.508c.007-.612.079-.848.352-1.152.21-.235.424-.368.717-.446.265-.072.37-.075.632-.02zM6.065 5.77c-.54.266-.34 1.108.26 1.107.615 0 .823-.83.277-1.104a.606.606 0 00-.537-.003zm2.343 0c-.539.266-.34 1.108.261 1.107.615 0 .823-.83.277-1.104a.606.606 0 00-.538-.003zm2.344 0a.607.607 0 00-.255.794c.283.545 1.105.339 1.105-.277a.585.585 0 00-.85-.517zM6.065 8.115c-.54.265-.34 1.107.26 1.107.615 0 .823-.83.277-1.104a.606.606 0 00-.537-.004zm2.343 0c-.539.265-.34 1.107.261 1.107.615 0 .823-.83.277-1.104a.606.606 0 00-.538-.004zm2.344 0a.607.607 0 00-.255.793c.283.545 1.105.34 1.105-.276a.585.585 0 00-.85-.518zM18.3 11.61c.326.09.566.477.508.82a.812.812 0 01-.395.527c-.148.073-.346.075-8.412.075s-8.264-.002-8.412-.075a.73.73 0 01-.208-1.141c.243-.264-.389-.246 8.6-.248 5.84 0 8.208.011 8.32.042zm-.655 3.268c-.027.751-.076.981-.308 1.456a2.58 2.58 0 01-1.126 1.124c-.617.303-.206.285-6.316.274l-5.46-.01-.286-.106a2.552 2.552 0 01-1.027-.66 2.026 2.026 0 01-.458-.625c-.233-.476-.281-.703-.307-1.453l-.023-.654h15.334l-.023.654z"/></g><defs><clipPath id="ba"><path d="M0 0h20v20H0z"/></clipPath></defs></symbol><symbol viewBox="0 0 20 20" id="bedroom" xmlns="http://www.w3.org/2000/svg"><path fill-rule="evenodd" clip-rule="evenodd" d="M3.143 3.06c-.576.181-.986.58-1.213 1.178-.067.175-.073.371-.086 2.585l-.013 2.396-.144.056c-.82.318-1.398.96-1.614 1.79-.065.25-.072.46-.073 2.205 0 1.911 0 1.93.085 2.08.15.267.296.309 1.08.309h.67v.573c0 .493.011.596.078.733.216.442.847.454 1.065.02.056-.11.068-.242.068-.73v-.596h13.907v.595c0 .49.013.62.069.732.218.433.85.42 1.065-.021.067-.137.078-.24.078-.733v-.573h.67c.784 0 .93-.043 1.08-.309.085-.15.086-.169.085-2.08 0-1.746-.008-1.954-.073-2.205-.215-.83-.793-1.472-1.614-1.79l-.144-.056-.014-2.396c-.012-2.214-.018-2.41-.085-2.585-.23-.607-.642-1.003-1.23-1.181-.254-.077-13.453-.075-13.697.002zM16.684 4.3c.278.186.27.104.27 2.597v2.237h-1.36l-.017-.772c-.015-.665-.03-.803-.102-1.003-.241-.66-.72-1.09-1.393-1.252-.238-.057-.463-.063-1.72-.05-1.185.014-1.476.028-1.626.079a1.858 1.858 0 00-.59.31L10 6.564l-.146-.115a1.857 1.857 0 00-.59-.311c-.15-.051-.441-.065-1.627-.078-1.256-.014-1.48-.008-1.719.05-.674.16-1.152.59-1.393 1.251-.073.2-.087.338-.102 1.003l-.017.772h-1.36V6.898c0-2.493-.008-2.411.27-2.597l.133-.088H16.55l.133.088zM9.027 7.35c.115.06.204.147.27.263.092.163.098.213.111.847l.014.674H5.625l.001-.635c.003-.837.063-1.008.409-1.167.142-.065.28-.072 1.488-.073 1.318 0 1.334 0 1.504.09zm4.938-.018c.347.16.406.33.409 1.167l.001.635h-3.797l.014-.674c.013-.634.02-.684.111-.847a.652.652 0 01.27-.264c.17-.09.186-.09 1.504-.09 1.208.001 1.346.008 1.488.073zm4.063 3.128c.25.123.523.397.646.646l.096.196.012 1.572.01 1.572H1.21V12.95c0-1.664.01-1.735.253-2.065a1.47 1.47 0 01.661-.485c.13-.04 1.681-.049 7.935-.043l7.774.007.195.096z"/></symbol><symbol viewBox="0 0 344.96 344.96" id="check" xmlns="http://www.w3.org/2000/svg"><g data-name="Слой 2"><path class="dcls-1" d="M321.85 86.24l-40-23.11-23.1-40H212.5L172.48 0l-40 23.11H86.24l-23.11 40-40 23.1v46.21L0 172.48l23.11 40v46.21l40 23.11 23.11 40h46.21l40 23.1 40-23.11h46.21l23.11-40 40-23.11V212.5l23.11-40-23.11-40V86.24zM156.91 243.07a16.79 16.79 0 01-23.34 0l-50.45-50.44a16.19 16.19 0 010-22.89l13.35-13.35a16.19 16.19 0 0122.89 0l25.87 25.87 80.34-80.35a16.19 16.19 0 0122.89 0l13.35 13.35a16.19 16.19 0 010 22.89z" data-name="Capa 1"/></g></symbol><symbol viewBox="0 0 24 24" id="chevron-left" xmlns="http://www.w3.org/2000/svg"><path fill-rule="evenodd" clip-rule="evenodd" d="M16.597 3.053c.153.08.3.227.356.357.065.152.061.445-.008.583-.03.062-1.83 1.889-4 4.06L9.001 12l3.944 3.948c2.17 2.171 3.97 3.998 4 4.06.064.129.074.416.019.562-.13.342-.585.526-.94.379-.158-.066-8.593-8.48-8.676-8.655a.875.875 0 010-.588c.083-.175 8.518-8.589 8.676-8.654.168-.07.438-.07.573 0z"/></symbol><symbol viewBox="0 0 24 24" id="chevron-right" xmlns="http://www.w3.org/2000/svg"><path fill-rule="evenodd" clip-rule="evenodd" d="M7.403 3.053a.827.827 0 00-.356.357c-.065.152-.061.445.008.583.03.062 1.83 1.889 4 4.06L14.999 12l-3.944 3.948c-2.17 2.171-3.97 3.998-4 4.06-.064.129-.074.416-.019.562.13.342.585.526.94.379.158-.066 8.593-8.48 8.676-8.655a.875.875 0 000-.588c-.083-.175-8.518-8.589-8.676-8.654-.168-.07-.438-.07-.573 0z"/></symbol><symbol viewBox="0 0 24 24" id="fb" xmlns="http://www.w3.org/2000/svg"><path d="M13.397 20.997v-8.196h2.765l.411-3.209h-3.176V7.548c0-.926.258-1.56 1.587-1.56h1.684v-2.86A22.108 22.108 0 0014.201 3c-2.444 0-4.122 1.492-4.122 4.231v2.355H7.332v3.21h2.753v8.201h3.312z"/></symbol><symbol viewBox="0 0 24 24" id="instagram" xmlns="http://www.w3.org/2000/svg"><path d="M11.999 7.377a4.624 4.624 0 100 9.248 4.624 4.624 0 000-9.248zm0 7.627a3.004 3.004 0 110-6.008 3.004 3.004 0 010 6.008zm4.807-6.719a1.078 1.078 0 100-2.156 1.078 1.078 0 000 2.156z"/><path d="M20.533 6.11A4.605 4.605 0 0017.9 3.48a6.607 6.607 0 00-2.186-.42c-.963-.042-1.268-.054-3.71-.054s-2.755 0-3.71.054a6.554 6.554 0 00-2.184.42 4.6 4.6 0 00-2.633 2.63 6.585 6.585 0 00-.419 2.186c-.043.962-.056 1.267-.056 3.71 0 2.442 0 2.753.056 3.71.015.748.156 1.486.419 2.187a4.61 4.61 0 002.634 2.632 6.583 6.583 0 002.185.45c.963.042 1.268.055 3.71.055s2.755 0 3.71-.055a6.616 6.616 0 002.186-.42 4.613 4.613 0 002.633-2.632c.263-.7.404-1.438.419-2.186.043-.962.056-1.267.056-3.71s0-2.753-.056-3.71a6.583 6.583 0 00-.421-2.217zm-1.218 9.533a5.046 5.046 0 01-.311 1.688 2.987 2.987 0 01-1.712 1.71c-.535.2-1.1.305-1.67.312-.95.044-1.218.055-3.654.055-2.438 0-2.687 0-3.655-.055a4.961 4.961 0 01-1.67-.311 2.984 2.984 0 01-1.718-1.711 5.08 5.08 0 01-.311-1.67c-.043-.95-.053-1.217-.053-3.653 0-2.437 0-2.686.053-3.655a5.038 5.038 0 01.311-1.687c.305-.79.93-1.41 1.719-1.712a5.01 5.01 0 011.669-.311c.95-.043 1.218-.055 3.655-.055s2.687 0 3.654.055a4.96 4.96 0 011.67.31 2.99 2.99 0 011.712 1.713 5.06 5.06 0 01.311 1.669c.043.95.054 1.218.054 3.655 0 2.436 0 2.698-.043 3.654h-.011v-.001z"/></symbol><symbol viewBox="0 0 20 20" id="map" xmlns="http://www.w3.org/2000/svg"><path fill-rule="evenodd" clip-rule="evenodd" d="M9.046.061C5.92.486 3.427 2.895 2.868 6.034c-.262 1.47.019 3.156.839 5.039 1.03 2.366 2.985 5.367 5.213 8.003.27.32.524.623.564.675.104.134.347.247.533.247.185 0 .429-.113.533-.247.04-.052.293-.356.563-.675 2.656-3.142 4.804-6.62 5.643-9.136.579-1.737.656-3.017.272-4.512A7.278 7.278 0 0012.569.463 7.436 7.436 0 009.046.061zm1.459 3.59c.286.03.829.188 1.093.321a3.773 3.773 0 011.94 2.374c.125.464.126 1.316 0 1.778a3.678 3.678 0 01-1.008 1.723 3.492 3.492 0 01-2.513 1.01 3.492 3.492 0 01-2.514-1.01 3.678 3.678 0 01-1.008-1.723c-.125-.462-.125-1.314 0-1.778.399-1.473 1.647-2.553 3.131-2.71.324-.033.397-.032.879.016z"/></symbol><symbol viewBox="0 0 20 20" id="pool" xmlns="http://www.w3.org/2000/svg"><path fill-rule="evenodd" clip-rule="evenodd" d="M5.481.058a2.526 2.526 0 00-1.593 1.288c-.274.544-.257.218-.272 5.16l-.013 4.459-.159.063c-.405.162-.658.12-1.205-.201a53.66 53.66 0 00-.396-.232c-.014-.007-.16.21-.325.48-.246.404-.29.503-.249.542.131.122.898.537 1.126.61a2.43 2.43 0 001.25 0c.14-.045.474-.207.742-.362.626-.36.708-.392.981-.39.253 0 .411.069 1.05.45.495.294.778.38 1.25.38.488 0 .748-.083 1.368-.439.626-.36.71-.393.973-.392.268.002.37.043.954.39.255.152.545.303.645.335.444.146.975.148 1.405.005.108-.035.412-.189.678-.341.62-.356.703-.39.966-.389.268.002.37.043.955.39.254.152.544.303.644.335.462.152 1.03.147 1.449-.012.19-.072.876-.444 1.03-.56.068-.05.055-.083-.214-.549-.157-.272-.3-.496-.316-.496-.017 0-.21.104-.43.232-.715.417-.922.41-1.708-.057-.596-.354-.855-.45-1.289-.476-.557-.034-.8.044-1.622.518-.753.434-.944.429-1.748-.048l-.499-.297.01-4.165.011-4.164.094-.206c.122-.271.444-.566.717-.656a1.24 1.24 0 011.255.26c.352.32.39.45.407 1.412l.016.81h1.164v-.817c0-.938-.027-1.11-.24-1.557A2.514 2.514 0 0012.952.12c-.232-.088-.325-.1-.772-.103-.432-.002-.546.011-.766.087-.45.156-.833.42-1.14.787-.185.222-.436.736-.492 1.01-.029.137-.043 1.05-.043 2.686v2.478H4.814l.012-2.47.01-2.471.103-.215c.184-.387.487-.62.906-.698.422-.078.848.07 1.141.395.268.298.301.437.322 1.348l.017.79h1.171l-.015-.927c-.015-.881-.021-.94-.116-1.19a2.407 2.407 0 00-.638-.962A2.27 2.27 0 006.669.073C6.31-.018 5.796-.025 5.48.058zM9.73 9.279l-.01 1.003-.225.051c-.256.058-.39.12-.987.466-.751.433-.946.428-1.738-.042a5.76 5.76 0 00-.723-.373c-.273-.097-.822-.14-1.064-.084l-.166.038V8.277H9.74l-.01 1.002zm-4.718 4.922c-.26.044-.614.197-1.109.48-.781.447-.975.458-1.59.094a37.34 37.34 0 00-.431-.252c-.053-.028-.117.054-.367.474-.166.28-.295.514-.287.521.09.077.88.511 1.04.57.333.125.71.17 1.025.12.372-.057.61-.153 1.135-.454.58-.334.668-.369.931-.368.25 0 .413.067.98.405.632.376 1.094.496 1.602.417.372-.057.61-.153 1.135-.454.58-.334.668-.369.931-.368.251 0 .413.067.98.405 1.034.615 1.672.596 2.827-.087.463-.273.584-.319.85-.319.242 0 .39.065 1.11.484.803.468 1.485.482 2.303.05.495-.263.733-.412.717-.45-.05-.118-.564-.98-.585-.98a2.536 2.536 0 00-.332.18c-.469.278-.676.364-.877.364-.254.001-.422-.067-.996-.405-.76-.446-1.227-.54-1.869-.376-.305.078-.363.106-1.108.528-.437.247-.67.301-.956.222-.08-.022-.387-.182-.684-.356-.661-.387-1.015-.495-1.51-.459-.417.03-.683.128-1.29.475-.595.339-.674.372-.892.372-.256 0-.383-.052-.956-.388-.705-.412-1.182-.535-1.727-.445zm-.233 3.825c-.21.056-.442.172-1.07.536-.572.331-.83.321-1.468-.056-.217-.128-.41-.225-.427-.214-.018.011-.16.235-.318.498l-.285.477.09.06a8.7 8.7 0 001.016.56c.181.071.292.085.703.085.578 0 .674-.03 1.39-.44.604-.343.693-.377.977-.374.253.002.262.006 1.051.462.545.315.675.352 1.23.352.578 0 .675-.03 1.391-.44.604-.343.692-.377.977-.374.252.002.262.006 1.05.462.546.315.675.352 1.231.352.578 0 .674-.03 1.39-.44.603-.343.693-.377.973-.374.249.003.45.085.869.353.702.447 1.325.584 1.936.425.38-.099 1.334-.622 1.299-.712-.01-.027-.143-.26-.295-.517l-.277-.467-.3.178c-.866.512-1.01.513-1.87.004-.608-.359-.908-.459-1.377-.459-.553 0-.741.068-1.66.6-.598.345-.823.325-1.612-.14-.607-.36-.907-.46-1.376-.46-.554 0-.742.068-1.661.6-.597.345-.818.326-1.61-.14-.623-.366-.912-.46-1.396-.457a2.849 2.849 0 00-.571.06z"/></symbol><symbol viewBox="0 0 20 20" id="sea" xmlns="http://www.w3.org/2000/svg"><path fill-rule="evenodd" clip-rule="evenodd" d="M9.414 3.074v1.074h1.172V2H9.414v1.074zm-3.28-.173c-.268.13-.494.243-.502.251-.017.017.84 1.818.888 1.867.034.035 1.058-.435 1.058-.485 0-.074-.882-1.87-.918-1.87-.021 0-.258.107-.526.237zm6.868.417c-.33.686-.58 1.218-.58 1.237 0 .022 1.055.504 1.07.488.032-.034.883-1.826.883-1.86 0-.034-.962-.52-1.027-.52-.017 0-.173.295-.346.655zm-9.954 2.05c-.194.242-.348.452-.343.467.016.044 1.586 1.282 1.625 1.282.02 0 .138-.127.263-.283l.359-.447.132-.164-.81-.647c-.446-.355-.825-.646-.842-.646-.017 0-.19.197-.384.439zm12.714.191c-.43.345-.787.643-.794.66-.007.02.15.237.348.484.354.442.361.449.444.383 1.242-.988 1.545-1.235 1.545-1.265 0-.053-.665-.87-.717-.88-.025-.006-.397.273-.826.618zm-6.504-.332c-.813.151-1.244.285-1.778.551a5.735 5.735 0 00-2.928 3.384c-.132.406-.255 1.02-.255 1.278 0 .14-.006.146-.238.233a4.08 4.08 0 00-.557.284c-.73.447-1.25.454-1.962.025a5.429 5.429 0 00-.507-.272 2.939 2.939 0 00-.88-.194H0v1.211h.17c.233 0 .43.075.856.328.539.32.768.387 1.38.405.655.02.982-.06 1.508-.368.557-.326.599-.34 1.005-.358.458-.02.582.016 1.077.306.576.336.795.402 1.41.42.63.02.985-.062 1.449-.333.623-.365.663-.38 1.064-.395.458-.017.584.019 1.077.308.576.336.795.402 1.41.42.63.02.985-.062 1.449-.333.623-.365.663-.38 1.064-.395.458-.017.584.019 1.077.308.576.336.795.402 1.41.42.655.02.982-.06 1.509-.368.503-.295.604-.337.86-.357l.225-.018v-1.201h-.154c-.41 0-.92.173-1.422.484-.662.41-1.207.398-1.926-.043a4.057 4.057 0 00-.552-.282l-.232-.087-.026-.309c-.035-.415-.214-1.11-.405-1.567-.713-1.706-2.219-2.964-4.067-3.398-.263-.062-.505-.082-1.099-.092a11.49 11.49 0 00-.86.005zm1.308 1.191a4.45 4.45 0 012.543 1.215c.42.403.667.73.91 1.203.254.491.407.988.487 1.57l.02.143-.185.04c-.251.054-.508.168-.881.393-.702.423-1.218.423-1.92 0-.573-.345-.974-.466-1.54-.466-.567 0-1.016.137-1.576.484-.653.404-1.192.399-1.884-.018-.37-.223-.586-.32-.863-.385l-.202-.049.019-.143c.137-1.029.543-1.892 1.222-2.6 1.026-1.07 2.4-1.564 3.85-1.387zM1.328 8.933c-.072.312-.123.572-.114.58.022.016 1.96.456 2.012.456.04 0 .32-1.12.287-1.146A59.175 59.175 0 001.5 8.367c-.023 0-.101.255-.173.566zm16.145-.337c-.52.121-.954.23-.967.243-.02.02.207 1.083.24 1.127.007.01.47-.087 1.028-.213.841-.19 1.015-.241 1.015-.297 0-.036-.044-.257-.098-.49a194.53 194.53 0 01-.118-.51c-.012-.053-.047-.087-.087-.085-.038.002-.493.103-1.013.225zM0 13.903v.597h.11c.2 0 .53.122.85.315.417.25.641.344.987.411.746.144 1.394.018 2.086-.407.38-.233.52-.284.852-.308.38-.027.655.05 1.075.304.416.25.64.344.987.411.746.144 1.394.018 2.086-.407.38-.233.52-.284.852-.308.38-.027.655.05 1.075.304.416.25.64.344.987.411.746.144 1.394.018 2.086-.407.38-.233.52-.284.852-.308.38-.027.655.05 1.075.304.416.25.64.344.987.411.746.144 1.394.018 2.086-.407.344-.21.503-.275.758-.305l.209-.025v-1.183l-.303.026c-.392.034-.804.179-1.21.427-.435.265-.58.311-.987.311-.407 0-.527-.038-1.011-.326-.443-.263-.767-.376-1.18-.412-.697-.06-1.224.066-1.848.44-.424.255-.566.298-.985.298-.381 0-.509-.042-.987-.326-.443-.263-.767-.376-1.18-.412-.69-.059-1.236.069-1.822.427-.435.265-.58.311-.987.311-.407 0-.527-.038-1.011-.326-.443-.263-.767-.376-1.18-.412-.69-.059-1.236.069-1.822.427-.435.265-.58.311-.987.311-.407 0-.527-.038-1.011-.326-.443-.263-.767-.376-1.18-.412L0 13.306v.597zm5 2.804v.605h.155c.222 0 .45.088.862.331.431.255.734.362 1.164.41.644.074 1.196-.051 1.802-.41.465-.274.637-.33 1.017-.33.38 0 .552.056 1.017.33.431.255.734.362 1.164.41.644.074 1.196-.051 1.802-.41.411-.243.64-.33.862-.33H15V16.09l-.273.025c-.402.037-.81.182-1.26.449-.46.271-.7.338-1.102.306-.313-.024-.46-.078-.832-.307-.582-.358-1.066-.487-1.688-.452-.49.028-.875.155-1.378.453-.46.271-.7.338-1.102.306-.313-.024-.46-.078-.832-.307a4.948 4.948 0 00-.464-.251c-.223-.1-.717-.211-.93-.211H5v.605z"/></symbol><symbol viewBox="0 0 20 20" id="square" xmlns="http://www.w3.org/2000/svg"><g clip-path="url(#la)"><path fill-rule="evenodd" clip-rule="evenodd" d="M.224.083C-.001.251 0 .24 0 2.053 0 3.525.007 3.73.064 3.827c.124.21.222.236.89.236h.609v11.875H.302l-.151.151-.152.152v1.707c0 1.667.002 1.71.081 1.822.165.232.15.23 1.972.23 1.472 0 1.678-.007 1.774-.064.21-.124.236-.222.236-.89v-.608h11.875v1.259l.151.151.152.152h1.707c1.667 0 1.71-.002 1.822-.081.232-.165.23-.15.23-1.972 0-1.472-.007-1.678-.064-1.774-.124-.21-.222-.235-.89-.235h-.608V4.062h1.259l.151-.151.152-.152V.312l-.156-.156L19.687 0h-1.703c-1.506 0-1.715.007-1.81.064-.21.124-.236.222-.236.89v.609H4.062V.302l-.15-.15L3.759 0 2.046.001C.374.002.329.004.224.083zm2.862 1.948v1.055H.977V.977h2.109V2.03zm15.937 0v1.055h-2.109V.977h2.109V2.03zm-3.085 1.117c0 .871.043.914.914.914h.57v11.876h-.57c-.871 0-.915.043-.915.914v.57H4.063v-.57c0-.871-.043-.915-.914-.915h-.57V4.063h.57c.871 0 .914-.043.914-.914v-.57h11.876v.57zM3.085 17.968v1.055H.977v-2.109h2.109v1.055zm15.937 0v1.055h-2.109v-2.109h2.109v1.055z"/></g><defs><clipPath id="la"><path d="M0 0h20v20H0z"/></clipPath></defs></symbol><symbol viewBox="0 0 24 24" id="telegram" xmlns="http://www.w3.org/2000/svg"><path d="M20.446 3.002a2.389 2.389 0 00-.755.181h-.003c-.23.092-1.325.556-2.988 1.259l-5.965 2.53a17641.01 17641.01 0 00-8.485 3.602l.051-.02s-.29.096-.593.306a1.646 1.646 0 00-.474.46c-.148.22-.268.557-.224.903.073.588.452.941.723 1.135.274.197.536.29.536.29h.007l3.944 1.338c.177.572 1.203 3.967 1.449 4.749.145.467.287.76.464.982.085.114.186.21.306.286a.895.895 0 00.199.086l-.041-.01c.012.003.022.013.031.016.032.01.054.013.095.02.625.19 1.127-.201 1.127-.201l.028-.022 2.329-2.136 3.904 3.016.088.038c.814.36 1.638.16 2.073-.194.439-.355.61-.81.61-.81l.028-.073 3.017-15.567c.085-.384.107-.743.012-1.093a1.469 1.469 0 00-.63-.852 1.503 1.503 0 00-.862-.22zm-.083 1.669c-.003.05.007.044-.015.143v.01l-2.989 15.403c-.012.023-.035.07-.094.118-.064.05-.114.083-.376-.022l-4.775-3.688-2.884 2.648.606-3.897s7.48-7.022 7.8-7.324c.323-.302.216-.365.216-.365.022-.369-.486-.108-.486-.108l-9.837 6.138-.003-.016-4.715-1.599v-.003l-.012-.003c.003 0 .025-.01.025-.01l.025-.012.025-.01 8.49-3.602c2.142-.909 4.3-1.824 5.96-2.53a851 851 0 012.957-1.246c.067-.025.035-.025.082-.025z"/></symbol><symbol viewBox="0 0 24 24" id="viber" xmlns="http://www.w3.org/2000/svg"><path d="M8.022 6.29a.81.81 0 00-.53.104H7.48a4.06 4.06 0 00-.987.812c-.236.273-.364.549-.398.815-.02.158-.007.317.04.468l.018.01A11.66 11.66 0 007.19 10.74c.547.994 1.22 1.914 2.001 2.736l.024.033.037.027.023.027.027.024a13.37 13.37 0 002.743 2.01c1.138.62 1.829.914 2.243 1.035v.006c.122.037.233.054.344.054.353-.026.688-.17.95-.407.32-.284.59-.619.802-.99v-.007c.199-.374.132-.728-.155-.967a11.948 11.948 0 00-1.853-1.33c-.441-.24-.89-.095-1.071.148l-.388.488c-.198.242-.56.209-.56.209l-.01.006c-2.691-.687-3.41-3.412-3.41-3.412s-.033-.371.216-.56l.485-.39c.233-.19.394-.637.145-1.079-.38-.66-.825-1.28-1.327-1.853a.737.737 0 00-.435-.26l.002.002zm4.548-1.185a.493.493 0 000 .986c1.246 0 2.282.407 3.1 1.187.421.427.749.933.964 1.486.216.556.314 1.148.29 1.741a.493.493 0 10.984.042 5.28 5.28 0 00-.355-2.14 5.364 5.364 0 00-1.187-1.827l-.01-.01c-1.015-.97-2.302-1.465-3.786-1.465z"/><path d="M12.536 6.726a.493.493 0 000 .986h.016c.9.063 1.554.363 2.013.855.47.507.713 1.136.695 1.915a.493.493 0 00.985.023c.024-1.023-.305-1.905-.958-2.609-.668-.716-1.583-1.095-2.685-1.169h-.066z"/><path d="M12.518 8.377a.493.493 0 10-.052.984c.413.022.676.145.84.312.167.168.291.437.314.858a.493.493 0 00.984-.053c-.032-.591-.217-1.114-.597-1.498-.38-.385-.9-.572-1.49-.603z"/><path fill-rule="evenodd" clip-rule="evenodd" d="M7.136 2.526a21.833 21.833 0 019.526 0l.334.075a5.081 5.081 0 013.816 3.708 19.435 19.435 0 010 9.561 5.081 5.081 0 01-3.816 3.709l-.334.075a21.8 21.8 0 01-5.99.49l-2.616 2.34a.74.74 0 01-1.222-.428l-.432-2.584a5.081 5.081 0 01-3.416-3.602 19.434 19.434 0 010-9.56A5.08 5.08 0 016.802 2.6l.334-.074zm9.203 1.443a20.354 20.354 0 00-8.88 0l-.334.074a3.602 3.602 0 00-2.706 2.63 17.956 17.956 0 000 8.833 3.602 3.602 0 002.706 2.63l.088.02a.74.74 0 01.568.599l.29 1.733 1.845-1.652a.739.739 0 01.545-.186 20.355 20.355 0 005.878-.44l.334-.074a3.602 3.602 0 002.706-2.63 17.957 17.957 0 000-8.833 3.602 3.602 0 00-2.706-2.63l-.334-.074z"/></symbol><symbol viewBox="0 0 24 24" id="vk" xmlns="http://www.w3.org/2000/svg"><path d="M21.579 6.855c.14-.465 0-.806-.662-.806h-2.193c-.558 0-.813.295-.953.619 0 0-1.115 2.719-2.695 4.482-.51.513-.743.675-1.021.675-.139 0-.341-.162-.341-.627V6.855c0-.558-.161-.806-.626-.806H9.642c-.348 0-.558.258-.558.504 0 .528.79.65.871 2.138v3.228c0 .707-.127.836-.407.836-.743 0-2.551-2.73-3.624-5.853-.209-.607-.42-.852-.98-.852H2.752c-.627 0-.752.295-.752.619 0 .582.743 3.462 3.461 7.27 1.812 2.602 4.363 4.012 6.687 4.012 1.393 0 1.565-.313 1.565-.853v-1.966c0-.626.133-.752.574-.752.324 0 .882.164 2.183 1.417 1.486 1.486 1.732 2.153 2.567 2.153h2.192c.626 0 .939-.313.759-.931-.197-.615-.907-1.51-1.849-2.57-.512-.603-1.277-1.253-1.51-1.578-.325-.42-.231-.604 0-.976.001 0 2.672-3.761 2.95-5.04z"/></symbol><symbol viewBox="0 0 24 24" id="whatsapp" xmlns="http://www.w3.org/2000/svg"><path fill-rule="evenodd" clip-rule="evenodd" d="M19.086 4.907a9.896 9.896 0 00-3.23-2.156A9.934 9.934 0 0012.043 2c-5.488 0-9.957 4.446-9.959 9.91a9.86 9.86 0 001.33 4.955L2 22l5.279-1.379a10 10 0 004.759 1.207h.004c5.488 0 9.956-4.446 9.958-9.91a9.816 9.816 0 00-2.914-7.011zm-7.044 15.248h-.003a8.29 8.29 0 01-4.213-1.149l-.302-.179-3.132.818.835-3.04-.197-.31a8.194 8.194 0 01-1.265-4.384c.002-4.542 3.715-8.237 8.28-8.237a8.257 8.257 0 015.852 2.415 8.158 8.158 0 012.422 5.828c-.003 4.542-3.716 8.238-8.277 8.238zm4.54-6.17c-.25-.125-1.472-.723-1.7-.806-.228-.083-.393-.124-.56.124-.166.247-.643.804-.788.97-.145.166-.29.186-.539.062-.248-.124-1.05-.385-2.001-1.229-.74-.657-1.24-1.467-1.384-1.715-.146-.249-.016-.382.11-.506.111-.11.248-.29.372-.434.124-.145.165-.247.248-.413.084-.165.043-.31-.02-.434s-.56-1.343-.768-1.839c-.2-.48-.406-.416-.56-.423-.158-.006-.316-.01-.475-.009a.92.92 0 00-.665.31c-.228.248-.87.846-.87 2.065 0 1.219.892 2.397 1.016 2.563.124.165 1.755 2.666 4.25 3.739.595.255 1.059.407 1.42.522.595.189 1.137.161 1.567.098.478-.07 1.472-.598 1.679-1.177.207-.578.207-1.074.145-1.178-.062-.103-.23-.166-.477-.29z"/></symbol><symbol viewBox="0 0 24 24" id="zoom" xmlns="http://www.w3.org/2000/svg"><g clip-path="url(#qa)"><path fill-rule="evenodd" clip-rule="evenodd" d="M2.024.096C1.366.273.658.831.332 1.43.008 2.025 0 2.119 0 5.487V8.58l.131.195c.414.614 1.17.614 1.584 0l.13-.195V5.602c0-2.973.001-2.978.13-3.235a.783.783 0 01.388-.387c.257-.13.262-.13 3.236-.13h2.978l.195-.131c.614-.414.614-1.17 0-1.583L8.577.004l-3.12.004c-2.542.003-3.179.02-3.433.088zm13.203.037c-.617.416-.619 1.171-.004 1.586l.195.131h2.973c2.889 0 2.98.003 3.22.12.144.07.3.206.378.331l.132.212.029 3.067c.028 2.998.031 3.07.15 3.23.43.581 1.16.564 1.567-.038L24 8.574l-.017-3.232c-.016-3.21-.017-3.235-.147-3.557A3.029 3.029 0 0022.22.167c-.33-.133-.335-.134-3.564-.15L15.425 0l-.198.133zM.457 14.9a1.44 1.44 0 00-.326.326L0 15.42v3.093c0 3.404.006 3.476.355 4.084.226.395.648.818 1.043 1.044.61.348.681.355 4.085.355h3.094l.195-.132c.614-.413.614-1.17 0-1.583l-.195-.131H2.614l-.251-.133a.881.881 0 01-.384-.384l-.133-.25V15.42l-.131-.195c-.202-.299-.476-.457-.792-.457a.79.79 0 00-.466.131zm22.154-.001a1.542 1.542 0 00-.312.293c-.118.159-.121.23-.15 3.229l-.028 3.067-.132.212a1.005 1.005 0 01-.379.332c-.24.116-.33.119-3.22.119h-2.972l-.195.131c-.615.415-.613 1.17.004 1.586l.198.133 3.232-.017c3.23-.016 3.233-.017 3.564-.15a3.062 3.062 0 001.613-1.614c.132-.327.133-.34.15-3.56L24 15.425l-.133-.198c-.308-.456-.859-.6-1.256-.33z"/></g><defs><clipPath id="qa"><path d="M0 0h24v24H0z"/></clipPath></defs></symbol></svg>