<svg width="20" height="20" viewBox="0 0 20 20" fill="none" xmlns="http://www.w3.org/2000/svg">
<g clip-path="url(#clip0_41_658)">
<path fill-rule="evenodd" clip-rule="evenodd" d="M3.10146 0.0771272C2.2666 0.296117 1.61007 0.910454 1.29823 1.76449L1.1936 2.05112L1.18286 6.29161L1.17208 10.5321L0.99565 10.6258C0.218827 11.0381 -0.181712 12.0172 0.0798587 12.8645C0.22367 13.3304 0.585854 13.774 1.00389 13.9963L1.16571 14.0824L1.18411 14.9249C1.19965 15.6355 1.21602 15.8162 1.28886 16.0799C1.64522 17.3705 2.60203 18.3744 3.85114 18.7685C4.21656 18.8837 4.66061 18.9521 5.04362 18.9521H5.31421L5.31429 19.255C5.31437 19.7466 5.47966 19.9674 5.86918 19.9963C6.02858 20.0081 6.10498 19.9933 6.20313 19.9316C6.41947 19.7957 6.48564 19.6419 6.48579 19.2745L6.48595 18.9521H10.0012H13.5164L13.5165 19.2745C13.5167 19.6419 13.5829 19.7957 13.7992 19.9316C13.8974 19.9933 13.9737 20.0081 14.1331 19.9963C14.5227 19.9674 14.688 19.7466 14.688 19.255L14.6881 18.9521H14.9587C16.0237 18.9521 17.05 18.518 17.763 17.7658C18.0808 17.4304 18.2769 17.1414 18.4774 16.7127C18.7482 16.1337 18.7974 15.8763 18.8185 14.9271L18.8372 14.087L19.0716 13.9507C19.6395 13.6206 20 12.9832 20 12.309C20 11.4656 19.4498 10.7216 18.6414 10.4717C18.3945 10.3954 18.2602 10.3942 10.3667 10.3942H2.34307L2.35471 6.33987C2.36553 2.57117 2.37123 2.2732 2.43544 2.10974C2.60374 1.68122 2.97976 1.3455 3.41834 1.23206C3.69577 1.16035 5.00639 1.1475 5.25562 1.21405C5.37229 1.24523 5.48462 1.33175 5.69924 1.55578C6.19153 2.06961 6.16161 1.99001 6.14228 2.73498L6.12556 3.37976L6.00304 3.45811C5.63874 3.69113 5.67862 4.28272 6.07119 4.46912C6.19024 4.52563 6.4831 4.53254 8.75721 4.53246C11.6069 4.53243 11.4815 4.54419 11.6736 4.259C11.751 4.14403 11.7631 4.08554 11.7496 3.89202C11.7349 3.68273 11.7192 3.64857 11.5766 3.51547L11.4198 3.36909L11.3936 2.80782C11.3638 2.17113 11.3002 1.85281 11.1324 1.50103C10.3751 -0.086451 8.27984 -0.503603 7.00675 0.679662L6.74986 0.918426L6.45189 0.62429C5.88532 0.064896 5.66081 -0.00126217 4.33932 0.00170772C3.53227 0.00350528 3.33671 0.0154239 3.10146 0.0771272ZM9.03257 1.21581C9.50189 1.31545 9.84845 1.59052 10.0529 2.02569C10.1675 2.26968 10.1759 2.31849 10.1902 2.82337L10.2054 3.3612L8.76553 3.35092L7.32569 3.34068L7.33155 2.83267C7.33858 2.22084 7.41084 1.98458 7.68386 1.68079C7.89485 1.44597 8.10814 1.31319 8.40073 1.23452C8.66589 1.16325 8.77029 1.16016 9.03257 1.21581ZM6.06483 5.76985C5.52575 6.0357 5.72412 6.87754 6.32573 6.87703C6.94031 6.87653 7.14806 6.04761 6.60234 5.77333C6.43353 5.68845 6.23254 5.68716 6.06483 5.76985ZM8.4083 5.76985C7.86923 6.0357 8.0676 6.87754 8.66921 6.87703C9.28379 6.87653 9.49154 6.04761 8.94582 5.77333C8.77701 5.68845 8.57602 5.68716 8.4083 5.76985ZM10.7518 5.76985C10.4758 5.906 10.3535 6.287 10.497 6.56379C10.7795 7.10857 11.6019 6.90267 11.6024 6.28704C11.6027 5.85461 11.1447 5.57611 10.7518 5.76985ZM6.06483 8.1145C5.52575 8.38034 5.72412 9.22219 6.32573 9.22168C6.94031 9.22117 7.14806 8.39226 6.60234 8.11798C6.43353 8.0331 6.23254 8.03181 6.06483 8.1145ZM8.4083 8.1145C7.86923 8.38034 8.0676 9.22219 8.66921 9.22168C9.28379 9.22117 9.49154 8.39226 8.94582 8.11798C8.77701 8.0331 8.57602 8.03181 8.4083 8.1145ZM10.7518 8.1145C10.4758 8.25064 10.3535 8.63165 10.497 8.90844C10.7795 9.45321 11.6019 9.24732 11.6024 8.63169C11.6027 8.19926 11.1447 7.92075 10.7518 8.1145ZM18.3001 11.6101C18.6264 11.7007 18.866 12.0869 18.8082 12.4291C18.7743 12.63 18.5985 12.8647 18.4129 12.9569C18.2655 13.0301 18.0673 13.0319 10.0012 13.0319C1.93499 13.0319 1.73685 13.0301 1.58941 12.9569C1.16172 12.7445 1.05674 12.1683 1.38146 11.8157C1.62448 11.5519 0.992057 11.5701 9.98164 11.5684C15.8218 11.5673 18.189 11.5792 18.3001 11.6101ZM17.6449 14.8783C17.6179 15.6294 17.5692 15.8594 17.3372 16.3335C17.1103 16.7969 16.6788 17.2279 16.2114 17.4577C15.5944 17.7611 16.0054 17.7433 9.89458 17.7316L4.43541 17.7212L4.14892 17.6165C3.7265 17.4621 3.45544 17.2877 3.12224 16.9558C2.89289 16.7273 2.78771 16.5839 2.6637 16.3305C2.43091 15.8549 2.38295 15.6277 2.35702 14.8783L2.33436 14.2238H10.0014H17.6684L17.6449 14.8783Z" fill="#1E2831"/>
</g>
<defs>
<clipPath id="clip0_41_658">
<rect width="20" height="20" fill="white"/>
</clipPath>
</defs>
</svg>
