<svg width="20" height="20" viewBox="0 0 20 20" fill="none" xmlns="http://www.w3.org/2000/svg">
<path fill-rule="evenodd" clip-rule="evenodd" d="M3.14277 3.05907C2.56727 3.24099 2.15678 3.63984 1.92993 4.23761C1.86336 4.41301 1.85688 4.609 1.84449 6.82303L1.83105 9.21864L1.68679 9.2747C0.86639 9.59335 0.288505 10.2342 0.0727508 11.0648C0.00759076 11.3156 0.000715368 11.5244 9.03317e-05 13.2702C-0.000573769 15.181 0.000207529 15.2 0.0847436 15.3504C0.234323 15.6165 0.381362 15.6585 1.16418 15.6585H1.83547V16.2321C1.83547 16.725 1.84641 16.8281 1.91301 16.9646C2.12892 17.4068 2.76025 17.4194 2.97803 16.9859C3.03413 16.8743 3.04636 16.7434 3.0464 16.2542L3.04648 15.6585H10H16.9535L16.9536 16.2542C16.9536 16.7434 16.9659 16.8743 17.022 16.9859C17.2398 17.4194 17.8711 17.4068 18.087 16.9646C18.1536 16.8281 18.1645 16.725 18.1645 16.2321V15.6585H18.8358C19.6186 15.6585 19.7657 15.6165 19.9153 15.3504C19.9998 15.2 20.0006 15.181 19.9999 13.2702C19.9993 11.5244 19.9924 11.3156 19.9272 11.0648C19.7115 10.2342 19.1336 9.59335 18.3132 9.2747L18.1689 9.21864L18.1555 6.82303C18.1431 4.609 18.1366 4.41301 18.0701 4.23761C17.8397 3.6307 17.4278 3.23525 16.8402 3.05692C16.5857 2.97965 3.38743 2.98172 3.14277 3.05907ZM16.6841 4.30121C16.9618 4.48681 16.9534 4.40516 16.9534 6.89823L16.9535 9.13469H16.274H15.5944L15.5768 8.36316C15.5617 7.69836 15.5476 7.55964 15.4749 7.36037C15.234 6.69974 14.7555 6.26968 14.0818 6.10819C13.8436 6.05111 13.6192 6.04463 12.3629 6.05865C11.1771 6.0719 10.8855 6.08588 10.7364 6.13674C10.4924 6.22003 10.3222 6.30976 10.1465 6.44785L10 6.56298L9.85351 6.44785C9.67779 6.30976 9.50763 6.22003 9.26355 6.13674C9.11452 6.08588 8.8229 6.0719 7.63705 6.05865C6.38077 6.04463 6.15638 6.05111 5.9182 6.10819C5.24449 6.26968 4.76599 6.69974 4.52512 7.36037C4.45242 7.55964 4.43831 7.69836 4.42316 8.36316L4.40558 9.13469H3.72605H3.04648L3.04655 6.89823C3.04659 4.40516 3.03816 4.48681 3.31594 4.30121L3.44869 4.21253H10H16.5513L16.6841 4.30121ZM9.02701 7.35021C9.14233 7.41096 9.2314 7.49795 9.2968 7.6139C9.3886 7.77656 9.39528 7.82743 9.40809 8.46082L9.42176 9.13469H7.52326H5.62475L5.62647 8.49989C5.62873 7.66293 5.6885 7.49213 6.03493 7.33306C6.17673 7.26794 6.31448 7.26122 7.52302 7.26044C8.84138 7.25958 8.85658 7.26048 9.02701 7.35021ZM13.9651 7.33306C14.3115 7.49213 14.3713 7.66293 14.3735 8.49989L14.3753 9.13469H12.4767H10.5782L10.5919 8.46082C10.6047 7.82743 10.6114 7.77656 10.7032 7.6139C10.7686 7.49795 10.8577 7.41096 10.973 7.35021C11.1434 7.26048 11.1586 7.25958 12.477 7.26044C13.6855 7.26122 13.8233 7.26794 13.9651 7.33306ZM18.0278 10.4612C18.2774 10.5839 18.5514 10.8578 18.6741 11.1075L18.77 11.3028L18.7815 12.8751L18.7929 14.4475H10.0017H1.21043V12.9506C1.21043 11.2868 1.21907 11.2161 1.4626 10.8861C1.61796 10.6756 1.89371 10.4734 2.12439 10.4009C2.25334 10.3604 3.80539 10.352 10.0586 10.3579L17.8325 10.3652L18.0278 10.4612Z" fill="#1E2831"/>
</svg>
