<svg width="24" height="24" viewBox="0 0 24 24" fill="none" xmlns="http://www.w3.org/2000/svg">
<path fill-rule="evenodd" clip-rule="evenodd" d="M7.40305 3.05284C7.24979 3.13239 7.10255 3.28002 7.04705 3.40975C6.98196 3.56192 6.98579 3.85461 7.05472 3.99289C7.08559 4.05478 8.88568 5.88181 11.0549 8.0529L14.999 12.0004L11.0549 15.9479C8.88568 18.119 7.08559 19.946 7.05472 20.0079C6.99054 20.1367 6.98094 20.4243 7.03604 20.57C7.16528 20.9122 7.62094 21.0959 7.97563 20.949C8.13367 20.8835 16.5689 12.4693 16.6519 12.2943C16.7197 12.1516 16.7197 11.8492 16.6519 11.7065C16.5689 11.5314 8.13367 3.1173 7.97563 3.05182C7.80785 2.98233 7.53802 2.98279 7.40305 3.05284Z" fill="white"/>
</svg>
