<svg width="24" height="24" viewBox="0 0 24 24" fill="none" xmlns="http://www.w3.org/2000/svg">
<path fill-rule="evenodd" clip-rule="evenodd" d="M16.597 3.05284C16.7503 3.13239 16.8975 3.28002 16.953 3.40975C17.0181 3.56192 17.0143 3.85461 16.9453 3.99289C16.9145 4.05478 15.1144 5.88181 12.9451 8.0529L9.00105 12.0004L12.9451 15.9479C15.1144 18.119 16.9145 19.946 16.9453 20.0079C17.0095 20.1367 17.0191 20.4243 16.964 20.57C16.8348 20.9122 16.3791 21.0959 16.0244 20.949C15.8664 20.8835 7.43117 12.4693 7.34811 12.2943C7.28037 12.1516 7.28037 11.8492 7.34811 11.7065C7.43117 11.5314 15.8664 3.1173 16.0244 3.05182C16.1922 2.98233 16.462 2.98279 16.597 3.05284Z" fill="white"/>
</svg>
