<svg width="20" height="20" viewBox="0 0 20 20" fill="none" xmlns="http://www.w3.org/2000/svg">
<path fill-rule="evenodd" clip-rule="evenodd" d="M9.04583 0.0614901C5.91958 0.485982 3.42747 2.89528 2.86833 6.03368C2.60641 7.50379 2.88696 9.1902 3.70665 11.0727C4.73684 13.4387 6.69212 16.4403 8.91993 19.0757C9.19012 19.3954 9.44388 19.6992 9.4838 19.751C9.58759 19.8854 9.83106 19.9985 10.0166 19.9985C10.2022 19.9985 10.4457 19.8854 10.5495 19.751C10.5894 19.6992 10.8432 19.3954 11.1134 19.0757C13.7694 15.9336 15.9174 12.4559 16.7561 9.93993C17.3349 8.2034 17.412 6.92258 17.0278 5.42821C16.4456 3.16395 14.76 1.28688 12.5694 0.463404C11.47 0.0501229 10.198 -0.0949943 9.04583 0.0614901ZM10.5049 3.65184C10.7909 3.68028 11.3335 3.83922 11.5984 3.97215C12.5476 4.44833 13.2606 5.32106 13.5379 6.34618C13.6634 6.81001 13.6638 7.66196 13.5386 8.12352C13.3547 8.80239 13.0183 9.37712 12.5302 9.8468C11.8283 10.5222 10.9938 10.8579 10.0166 10.8579C9.0395 10.8579 8.20497 10.5222 7.50309 9.8468C7.01497 9.37712 6.67864 8.80239 6.49466 8.12352C6.36954 7.66196 6.36993 6.81001 6.4954 6.34618C6.89395 4.87305 8.14177 3.79313 9.62602 3.6368C9.95032 3.60266 10.0226 3.60391 10.5049 3.65184Z" fill="#008FEA"/>
</svg>
