<svg width="20" height="20" viewBox="0 0 20 20" fill="none" xmlns="http://www.w3.org/2000/svg">
<path fill-rule="evenodd" clip-rule="evenodd" d="M5.48121 0.0578312C4.79938 0.236876 4.2034 0.718822 3.88781 1.34626C3.61414 1.89039 3.63133 1.56397 3.61633 6.50576L3.60281 10.9647L3.44422 11.0281C3.03949 11.19 2.78613 11.1477 2.23902 10.8266C2.03492 10.7068 1.85676 10.6028 1.84313 10.5955C1.82945 10.5881 1.6832 10.8041 1.51805 11.0755C1.2723 11.4793 1.22719 11.5776 1.26945 11.6171C1.39996 11.7394 2.16734 12.1544 2.39527 12.2261C2.74383 12.3356 3.29668 12.3356 3.64527 12.2261C3.78492 12.1822 4.11891 12.0199 4.38746 11.8654C5.01258 11.5059 5.09504 11.4731 5.36832 11.4744C5.62051 11.4756 5.77938 11.5437 6.41871 11.9249C6.91273 12.2195 7.19617 12.3059 7.66871 12.3059C8.15602 12.3059 8.41613 12.2222 9.03641 11.866C9.66207 11.5067 9.74543 11.4731 10.0089 11.4743C10.277 11.4756 10.3783 11.517 10.9634 11.8647C11.2179 12.016 11.5079 12.1666 11.6079 12.1995C12.0516 12.3455 12.5832 12.3473 13.0135 12.2044C13.1206 12.1688 13.4253 12.0151 13.6905 11.8628C14.3101 11.5069 14.3943 11.4731 14.6574 11.4743C14.9255 11.4756 15.0268 11.517 15.6118 11.8647C15.8663 12.016 16.1563 12.1666 16.2564 12.1995C16.7175 12.3512 17.2861 12.3464 17.7049 12.1873C17.8953 12.115 18.5805 11.7426 18.7359 11.6271C18.8027 11.5774 18.7895 11.5438 18.5211 11.0784C18.3638 10.8057 18.2214 10.5823 18.2048 10.5819C18.188 10.5815 17.9947 10.686 17.7751 10.814C17.0604 11.2307 16.8529 11.2238 16.0669 10.7567C15.4711 10.4026 15.2122 10.307 14.7781 10.2808C14.2214 10.2471 13.9779 10.3249 13.1564 10.7988C12.4031 11.2334 12.2117 11.228 11.4081 10.7505L10.9092 10.454L10.9198 6.2895L10.9304 2.12498L11.0235 1.91914C11.1461 1.64795 11.468 1.35314 11.7405 1.26252C12.1914 1.11261 12.6522 1.20788 12.9961 1.52207C13.3479 1.84364 13.3854 1.97351 13.4035 2.93544L13.4188 3.74591H14.0008H14.5828V2.92759C14.5828 1.98972 14.5563 1.81833 14.3427 1.37095C14.0723 0.804634 13.5745 0.357216 12.9516 0.120677C12.7199 0.0327164 12.6271 0.0204129 12.1804 0.0182647C11.7484 0.0161555 11.634 0.0291621 11.4138 0.105248C10.9641 0.260663 10.5808 0.525247 10.2743 0.891774C10.0886 1.1139 9.83813 1.6276 9.7816 1.9023C9.75348 2.03897 9.73902 2.95146 9.73902 4.58759V7.06591H7.27672H4.81437L4.82555 4.59544L4.83668 2.12498L4.93875 1.91015C5.12262 1.52316 5.42613 1.28916 5.84461 1.21182C6.26672 1.13378 6.69348 1.28158 6.98625 1.60721C7.25418 1.90515 7.28738 2.04436 7.30762 2.95497L7.32516 3.74591H7.9107H8.49621L8.48059 2.81827C8.46574 1.93687 8.45996 1.8775 8.36477 1.62729C8.21406 1.23123 8.03043 0.954464 7.72703 0.666327C7.4034 0.358935 7.08273 0.179265 6.66887 0.0734156C6.31074 -0.0181381 5.79629 -0.0248952 5.48121 0.0578312ZM9.72992 9.2794L9.71949 10.2821L9.49527 10.333C9.23863 10.3913 9.10594 10.4539 8.50797 10.7988C7.75691 11.2321 7.56203 11.2273 6.77004 10.7567C6.50137 10.597 6.17617 10.4291 6.04738 10.3836C5.77418 10.287 5.22477 10.2438 4.98316 10.3L4.81715 10.3385V9.30764V8.27673H7.27875H9.74035L9.72992 9.2794ZM5.01246 14.2015C4.75156 14.2452 4.39773 14.3981 3.90297 14.6812C3.12188 15.128 2.92848 15.1393 2.31234 14.7748C2.1109 14.6556 1.91711 14.5425 1.88172 14.5234C1.82852 14.4946 1.76504 14.5767 1.51516 14.9969C1.34891 15.2764 1.21965 15.5109 1.22793 15.518C1.31828 15.5953 2.10875 16.0291 2.26742 16.0884C2.60066 16.2131 2.97809 16.2573 3.29281 16.2084C3.665 16.1507 3.9032 16.0552 4.42801 15.7535C5.00852 15.4198 5.09578 15.3853 5.35902 15.3858C5.60957 15.3862 5.77176 15.4533 6.33902 15.7909C6.97098 16.1671 7.43254 16.2874 7.94125 16.2084C8.31344 16.1507 8.55164 16.0552 9.07645 15.7535C9.65695 15.4198 9.74422 15.3853 10.0075 15.3858C10.258 15.3862 10.4202 15.4533 10.9875 15.7909C12.0209 16.4061 12.6589 16.3865 13.8141 15.7042C14.2766 15.431 14.3982 15.3854 14.6636 15.3854C14.9061 15.3854 15.0541 15.4499 15.7742 15.8694C16.5765 16.3369 17.2586 16.3513 18.0769 15.9183C18.5717 15.6564 18.8104 15.5072 18.7943 15.4696C18.7433 15.3505 18.2296 14.489 18.2091 14.4882C18.1947 14.4875 18.0453 14.5687 17.877 14.6686C17.408 14.9468 17.2006 15.0331 16.9998 15.0335C16.7462 15.034 16.5785 14.9658 16.0038 14.6281C15.2449 14.1822 14.7772 14.0881 14.1351 14.2523C13.8302 14.3303 13.7722 14.3579 13.0267 14.7799C12.5902 15.027 12.3576 15.0811 12.0712 15.002C11.9911 14.9799 11.6835 14.82 11.3875 14.6465C10.7256 14.2587 10.3716 14.1511 9.87617 14.187C9.45992 14.2172 9.19406 14.3151 8.58668 14.6617C7.99219 15.001 7.91328 15.0339 7.6952 15.0339C7.43937 15.0339 7.31234 14.9824 6.73863 14.6463C6.03449 14.2337 5.55656 14.1106 5.01246 14.2015ZM4.77871 18.026C4.56988 18.0821 4.33746 18.1985 3.70859 18.5622C3.13652 18.893 2.87957 18.8831 2.24148 18.5059C2.02422 18.3775 1.83191 18.2814 1.81414 18.2923C1.79637 18.3033 1.6534 18.5271 1.49641 18.7896L1.21094 19.267L1.3002 19.3279C1.51945 19.4778 2.12164 19.8084 2.31715 19.8863C2.49797 19.9583 2.6093 19.9718 3.02027 19.9718C3.59766 19.9718 3.69422 19.9413 4.41066 19.5328C5.0141 19.1887 5.10254 19.1547 5.38711 19.1577C5.63957 19.1603 5.64934 19.1645 6.43824 19.6201C6.98336 19.9348 7.11297 19.9718 7.66871 19.9718C8.24609 19.9718 8.34266 19.9413 9.0591 19.5328C9.66254 19.1887 9.75098 19.1547 10.0355 19.1577C10.288 19.1603 10.2978 19.1645 11.0867 19.6201C11.6318 19.9348 11.7614 19.9718 12.3171 19.9718C12.8945 19.9718 12.9911 19.9413 13.7075 19.5328C14.3104 19.189 14.3998 19.1546 14.6804 19.1583C14.9287 19.1615 15.1298 19.2431 15.549 19.5106C16.2506 19.9583 16.874 20.0953 17.4854 19.9361C17.8644 19.8374 18.8186 19.3141 18.784 19.224C18.7736 19.1968 18.6407 18.9643 18.4886 18.7074L18.2121 18.2401L17.9111 18.4183C17.0458 18.9304 16.9019 18.9307 16.0415 18.4223C15.4342 18.0634 15.1341 17.9633 14.665 17.9633C14.1118 17.9633 13.9239 18.0311 13.0043 18.5629C12.4074 18.908 12.1817 18.8883 11.3931 18.4223C10.7858 18.0634 10.4856 17.9633 10.0166 17.9633C9.4634 17.9633 9.27543 18.0311 8.35586 18.5629C7.75941 18.9077 7.53766 18.8886 6.74676 18.4238C6.12254 18.0569 5.83426 17.9624 5.35016 17.9659C5.15367 17.9673 4.89652 17.9943 4.77871 18.026Z" fill="#1E2831"/>
</svg>
