<svg width="20" height="20" viewBox="0 0 20 20" fill="none" xmlns="http://www.w3.org/2000/svg">
<path fill-rule="evenodd" clip-rule="evenodd" d="M9.41406 3.07422V4.14844H10H10.5859V3.07422V2H10H9.41406V3.07422ZM6.13383 2.90086C5.86586 3.0309 5.63984 3.14402 5.6316 3.15227C5.61508 3.16875 6.47219 4.96957 6.52016 5.01914C6.55383 5.05395 7.57812 4.58406 7.57812 4.53383C7.57812 4.46016 6.69644 2.66406 6.66039 2.66426C6.63879 2.66434 6.40184 2.77082 6.13383 2.90086ZM13.002 3.31836C12.6713 4.00418 12.4219 4.53563 12.4219 4.55457C12.4219 4.57684 13.4774 5.05902 13.492 5.0434C13.5245 5.00852 14.375 3.21699 14.375 3.1834C14.375 3.14941 13.4132 2.66254 13.3482 2.66355C13.3313 2.66383 13.1755 2.95848 13.002 3.31836ZM3.04781 5.36891C2.85387 5.61047 2.69957 5.82027 2.705 5.83512C2.7209 5.87871 4.29098 7.11719 4.33035 7.11719C4.35008 7.11719 4.46824 6.98977 4.59293 6.83398C4.71766 6.6782 4.87914 6.47707 4.9518 6.38695L5.08395 6.22312L4.27363 5.57641C3.82797 5.2207 3.44918 4.92969 3.43188 4.92969C3.41461 4.92969 3.24176 5.12734 3.04781 5.36891ZM15.7617 5.55898C15.332 5.9041 14.975 6.20152 14.9682 6.21984C14.9615 6.2382 15.1179 6.45559 15.3159 6.70293C15.67 7.14535 15.6772 7.15156 15.7596 7.08609C17.0021 6.0984 17.3047 5.85066 17.3047 5.82133C17.3047 5.76805 16.6395 4.95055 16.5879 4.94035C16.5632 4.93547 16.1914 5.21383 15.7617 5.55898ZM9.25781 5.2275C8.44539 5.37848 8.01359 5.5123 7.48047 5.77828C6.07043 6.48176 5.03805 7.67465 4.55234 9.16164C4.41953 9.56824 4.29688 10.1818 4.29688 10.4396C4.29688 10.5808 4.29129 10.5863 4.05887 10.6732C3.92797 10.7222 3.6775 10.85 3.50223 10.9573C2.77258 11.4041 2.25207 11.4106 1.54023 10.9821C1.36688 10.8777 1.13879 10.7554 1.03336 10.7102C0.805039 10.6123 0.367891 10.5156 0.153711 10.5156H0V11.1211V11.7266H0.170859C0.403047 11.7266 0.599609 11.802 1.02566 12.0545C1.56504 12.3741 1.7943 12.4416 2.40559 12.4604C3.06078 12.4805 3.38797 12.4007 3.91445 12.0921C4.47074 11.7661 4.51266 11.7511 4.91934 11.734C5.37719 11.7148 5.50066 11.7498 5.99609 12.0395C6.57156 12.3761 6.7907 12.4415 7.40559 12.4604C8.03664 12.4798 8.39086 12.3982 8.85492 12.1267C9.47797 11.7621 9.51797 11.7473 9.91902 11.7323C10.3773 11.7152 10.5027 11.7509 10.9961 12.0395C11.5716 12.3761 11.7907 12.4415 12.4056 12.4604C13.0366 12.4798 13.3909 12.3982 13.8549 12.1267C14.478 11.7621 14.518 11.7473 14.919 11.7323C15.3773 11.7152 15.5027 11.7509 15.9961 12.0395C16.5716 12.3761 16.7907 12.4415 17.4056 12.4604C18.0608 12.4805 18.388 12.4007 18.9145 12.0921C19.4176 11.7972 19.5186 11.7553 19.7754 11.735L20 11.7172V11.1164V10.5156H19.8463C19.4365 10.5156 18.9263 10.6894 18.4243 10.9999C17.7618 11.4097 17.217 11.3977 16.4978 10.9573C16.3225 10.85 16.0745 10.7231 15.9465 10.6752L15.7139 10.5882L15.6881 10.2793C15.6535 9.86422 15.4737 9.16914 15.2828 8.71223C14.5698 7.00562 13.0643 5.74762 11.216 5.31387C10.9533 5.25223 10.7109 5.23195 10.1172 5.22207C9.69824 5.21508 9.31152 5.21754 9.25781 5.2275ZM10.5664 6.41832C11.5186 6.535 12.4079 6.95981 13.109 7.63293C13.5293 8.03637 13.7762 8.36258 14.0197 8.83594C14.2725 9.32746 14.4264 9.82441 14.5058 10.4056L14.5255 10.5495L14.3414 10.5889C14.0898 10.6429 13.8329 10.7575 13.4598 10.9821C12.7577 11.4048 12.2423 11.4048 11.5402 10.9821C10.9673 10.6371 10.566 10.5156 10 10.5156C9.43293 10.5156 8.98434 10.6535 8.4243 10.9999C7.77141 11.4038 7.23215 11.3986 6.54023 10.9821C6.16945 10.7589 5.95355 10.6625 5.6768 10.5965L5.47469 10.5483L5.49379 10.405C5.63078 9.37598 6.03656 8.51262 6.71582 7.805C7.74242 6.73547 9.11652 6.24062 10.5664 6.41832ZM1.32816 8.93348C1.25641 9.24492 1.20508 9.50543 1.21406 9.51238C1.23621 9.52938 3.17324 9.96875 3.22613 9.96875C3.26629 9.96875 3.54609 8.84965 3.5125 8.82332C3.49035 8.80602 1.55418 8.36684 1.50078 8.36703C1.47758 8.36711 1.39992 8.62203 1.32816 8.93348ZM17.4733 8.59555C16.9538 8.71703 16.5186 8.82676 16.5063 8.83941C16.4867 8.85953 16.713 9.92223 16.7463 9.96609C16.7532 9.97539 17.2158 9.87949 17.774 9.75301C18.6151 9.5625 18.7891 9.51164 18.7891 9.45641C18.7891 9.41973 18.745 9.19922 18.6911 8.96637C18.6372 8.73348 18.5841 8.50344 18.5732 8.45508C18.5614 8.4032 18.5255 8.36871 18.4856 8.37094C18.4484 8.37301 17.9929 8.47406 17.4733 8.59555ZM0 13.9029V14.5H0.110078C0.31 14.5 0.639922 14.6222 0.959766 14.8148C1.37668 15.0658 1.60117 15.1593 1.9468 15.226C2.69344 15.37 3.34145 15.2436 4.03266 14.8193C4.41238 14.5862 4.55383 14.535 4.88477 14.5112C5.26465 14.4838 5.54008 14.5615 5.95977 14.8145C6.37625 15.0656 6.6009 15.1593 6.9468 15.226C7.69344 15.37 8.34144 15.2436 9.03266 14.8193C9.41238 14.5862 9.55383 14.535 9.88477 14.5112C10.2646 14.4838 10.5401 14.5615 10.9598 14.8145C11.3763 15.0656 11.6009 15.1593 11.9468 15.226C12.6934 15.37 13.3414 15.2436 14.0327 14.8193C14.4124 14.5862 14.5538 14.535 14.8848 14.5112C15.2646 14.4838 15.5401 14.5615 15.9598 14.8145C16.3763 15.0656 16.6009 15.1593 16.9468 15.226C17.6934 15.37 18.3414 15.2436 19.0327 14.8193C19.3767 14.6081 19.5364 14.5438 19.7907 14.5139L20 14.4893V13.8975V13.3057L19.6971 13.3318C19.305 13.3655 18.8927 13.5109 18.4873 13.7587C18.0523 14.0245 17.9071 14.0703 17.5 14.0703C17.093 14.0703 16.9733 14.0317 16.4887 13.744C16.0456 13.4809 15.7216 13.3677 15.3097 13.3323C14.6119 13.2724 14.0848 13.3978 13.4613 13.7721C13.0373 14.0266 12.8945 14.0698 12.4756 14.0701C12.095 14.0704 11.9673 14.0282 11.4887 13.744C11.0456 13.4809 10.7216 13.3677 10.3097 13.3323C9.61949 13.273 9.07273 13.4009 8.4873 13.7587C8.05234 14.0245 7.90715 14.0703 7.5 14.0703C7.09297 14.0703 6.97328 14.0317 6.48871 13.744C6.04559 13.4809 5.72164 13.3677 5.30973 13.3323C4.61949 13.273 4.07273 13.4009 3.4873 13.7587C3.05234 14.0245 2.90715 14.0703 2.5 14.0703C2.09297 14.0703 1.97328 14.0317 1.48871 13.744C1.04559 13.4809 0.721641 13.3677 0.309727 13.3323L0 13.3057V13.9029ZM5 16.707V17.3125H5.15488C5.37699 17.3125 5.60586 17.4003 6.01723 17.6434C6.44805 17.898 6.75109 18.0049 7.18074 18.0539C7.82465 18.1273 8.37656 18.0016 8.98277 17.6434C9.44777 17.3686 9.62031 17.3125 10 17.3125C10.3797 17.3125 10.5522 17.3686 11.0172 17.6434C11.448 17.898 11.7511 18.0049 12.1807 18.0539C12.8246 18.1273 13.3766 18.0016 13.9828 17.6434C14.3941 17.4003 14.623 17.3125 14.8451 17.3125H15V16.7014V16.0904L14.7275 16.1157C14.3245 16.1531 13.9165 16.2984 13.4666 16.5646C13.0077 16.8362 12.7679 16.9029 12.3648 16.8713C12.0523 16.8468 11.9057 16.7925 11.5327 16.5635C10.951 16.2064 10.4666 16.0769 9.8452 16.1124C9.35477 16.1404 8.97035 16.2665 8.46664 16.5646C8.00766 16.8362 7.76793 16.9029 7.36477 16.8713C7.05234 16.8468 6.9057 16.7925 6.53266 16.5635C6.38793 16.4747 6.17934 16.3619 6.06906 16.3129C5.84629 16.2139 5.35156 16.1016 5.13836 16.1016H5V16.707Z" fill="#1E2831"/>
</svg>
