<svg width="20" height="20" viewBox="0 0 20 20" fill="none" xmlns="http://www.w3.org/2000/svg">
<g clip-path="url(#clip0_41_648)">
<path fill-rule="evenodd" clip-rule="evenodd" d="M0.223516 0.0833984C-0.00140602 0.251172 2.14478e-07 0.238828 2.14478e-07 2.05258C2.14478e-07 3.52457 0.00742209 3.73102 0.0639065 3.82656C0.18793 4.03656 0.285703 4.0625 0.953281 4.0625H1.5625V10V15.9375H0.932891H0.303321L0.151641 16.0891L2.14478e-07 16.2408V17.9484C2.14478e-07 19.6149 0.00195334 19.6586 0.0812111 19.77C0.24625 20.0018 0.231367 20 2.05258 20C3.52457 20 3.73102 19.9926 3.82656 19.9361C4.03656 19.8121 4.0625 19.7143 4.0625 19.0467V18.4375H10H15.9375V19.0671V19.6967L16.0891 19.8484L16.2408 20H17.9484C19.6149 20 19.6586 19.998 19.77 19.9188C20.0018 19.7537 20 19.7686 20 17.9474C20 16.4754 19.9926 16.269 19.9361 16.1734C19.8121 15.9634 19.7143 15.9375 19.0467 15.9375H18.4375V10V4.0625H19.0671H19.6967L19.8484 3.91086L20 3.75918V2.03586V0.3125L19.8438 0.15625L19.6875 0H17.9845C16.4782 0 16.2691 0.00738281 16.1734 0.0639063C15.9634 0.18793 15.9375 0.285703 15.9375 0.953281V1.5625H10H4.0625V0.932891V0.30332L3.91086 0.151641L3.75918 0L2.04563 0.00125C0.374102 0.00246094 0.329375 0.00445313 0.223516 0.0833984ZM3.08594 2.03125V3.08594H2.03125H0.976563V2.03125V0.976562H2.03125H3.08594V2.03125ZM19.0234 2.03125V3.08594H17.9688H16.9141V2.03125V0.976562H17.9688H19.0234V2.03125ZM15.9375 3.14828C15.9375 4.01906 15.9809 4.0625 16.8517 4.0625H17.4219V10V15.9375H16.8517C15.9809 15.9375 15.9375 15.9809 15.9375 16.8517V17.4219H10H4.0625V16.8517C4.0625 15.9809 4.01906 15.9375 3.14828 15.9375H2.57813V10V4.0625H3.14828C4.01906 4.0625 4.0625 4.01906 4.0625 3.14828V2.57812H10H15.9375V3.14828ZM3.08594 17.9688V19.0234H2.03125H0.976563V17.9688V16.9141H2.03125H3.08594V17.9688ZM19.0234 17.9688V19.0234H17.9688H16.9141V17.9688V16.9141H17.9688H19.0234V17.9688Z" fill="#1E2831"/>
</g>
<defs>
<clipPath id="clip0_41_648">
<rect width="20" height="20" fill="white"/>
</clipPath>
</defs>
</svg>
