<svg width="24" height="24" viewBox="0 0 24 24" fill="none" xmlns="http://www.w3.org/2000/svg">
<path d="M8.02154 6.28976C7.83845 6.26301 7.65172 6.29976 7.49242 6.3939H7.47884C7.10901 6.61068 6.77586 6.88467 6.49176 7.20568C6.25567 7.47865 6.12759 7.75485 6.09396 8.02071C6.0739 8.17918 6.08749 8.33765 6.13471 8.48901L6.15152 8.49936C6.41738 9.28074 6.76473 10.0324 7.18906 10.74C7.73565 11.7341 8.40832 12.6536 9.19038 13.4755L9.21366 13.5091L9.25054 13.5363L9.27382 13.5634L9.30098 13.5868C10.1259 14.3711 11.0475 15.0469 12.0436 15.5977C13.182 16.2174 13.8729 16.5105 14.2874 16.6321V16.6385C14.4091 16.6755 14.5197 16.6922 14.631 16.6922C14.9843 16.6663 15.3188 16.5229 15.5811 16.2847C15.9007 16.0006 16.1716 15.666 16.3833 15.2944V15.2879C16.5818 14.9141 16.5145 14.5602 16.228 14.3209C15.6541 13.8193 15.0336 13.3738 14.3748 12.9904C13.9336 12.7511 13.4854 12.8959 13.3037 13.1385L12.9162 13.6268C12.7176 13.8694 12.3566 13.8358 12.3566 13.8358L12.3463 13.8423C9.6548 13.1547 8.93682 10.4295 8.93682 10.4295C8.93682 10.4295 8.90318 10.0589 9.15222 9.87002L9.63734 9.47932C9.86956 9.29045 10.0313 8.84283 9.78223 8.40104C9.40151 7.74137 8.95694 7.12066 8.45492 6.54785C8.34517 6.41281 8.1912 6.32094 8.02024 6.28847L8.02154 6.28976Z" fill="white"/>
<path d="M12.5696 5.10498C12.2975 5.10498 12.0768 5.32563 12.0768 5.59781C12.0768 5.86999 12.2975 6.09064 12.5696 6.09064C13.816 6.09064 14.8516 6.49803 15.6698 7.27811C16.091 7.7053 16.4188 8.21094 16.6341 8.76428C16.8501 9.3197 16.9484 9.91195 16.9232 10.5052C16.9116 10.7771 17.1227 11.0069 17.3946 11.0185C17.6666 11.0301 17.8964 10.819 17.9079 10.547C17.939 9.81723 17.818 9.08906 17.5526 8.40694C17.2873 7.72484 16.8834 7.10328 16.3659 6.58L16.356 6.57053C15.3408 5.59962 14.0539 5.10498 12.5696 5.10498Z" fill="white"/>
<path d="M12.5361 6.72607C12.264 6.72607 12.0433 6.94672 12.0433 7.2189C12.0433 7.49108 12.264 7.71173 12.5361 7.71173H12.5522C13.4516 7.77511 14.106 8.07489 14.5648 8.56697C15.0345 9.07376 15.2777 9.70323 15.2597 10.4821C15.2534 10.7541 15.4689 10.9799 15.741 10.9862C16.0131 10.9925 16.2388 10.777 16.2451 10.5049C16.2688 9.48226 15.9399 8.60045 15.2872 7.89637L15.2863 7.89544C14.6194 7.17977 13.7044 6.80117 12.6021 6.72718L12.5857 6.72607H12.5361Z" fill="white"/>
<path d="M12.5177 8.37667C12.2458 8.36237 12.0139 8.57111 11.9996 8.84292C11.9853 9.11472 12.1941 9.34666 12.4658 9.36097C12.8785 9.38269 13.1415 9.50645 13.3069 9.67346C13.4731 9.84119 13.5973 10.1098 13.6199 10.5309C13.6346 10.8027 13.8668 11.0112 14.1386 10.9965C14.4103 10.9819 14.6188 10.7498 14.6042 10.4779C14.5724 9.88651 14.3873 9.36365 14.0073 8.9799C13.6266 8.59544 13.1066 8.40767 12.5177 8.37667Z" fill="white"/>
<path fill-rule="evenodd" clip-rule="evenodd" d="M7.13617 2.52582C10.2726 1.82473 13.5252 1.82473 16.6617 2.52582L16.9959 2.60052C18.8655 3.01843 20.341 4.45238 20.8123 6.30925C21.6084 9.44644 21.6084 12.7328 20.8123 15.87C20.341 17.7269 18.8654 19.1608 16.9959 19.5787L16.6617 19.6535C14.6915 20.0938 12.6755 20.2576 10.6713 20.1447L8.05616 22.4846C7.85535 22.6642 7.57268 22.7204 7.31843 22.6312C7.06418 22.542 6.87862 22.3215 6.83413 22.0557L6.40161 19.472C4.72363 18.9506 3.42266 17.5921 2.98562 15.87C2.18949 12.7328 2.18949 9.44644 2.98562 6.30925C3.45684 4.45238 4.93243 3.01843 6.80201 2.60052L7.13617 2.52582ZM16.3391 3.9687C13.4151 3.31509 10.3828 3.31509 7.4587 3.9687L7.12453 4.0434C5.79899 4.33969 4.75278 5.35639 4.41868 6.67292C3.68311 9.57145 3.68311 12.6078 4.41868 15.5063C4.75278 16.8228 5.79898 17.8395 7.12453 18.1358L7.21281 18.1555C7.50643 18.2212 7.73097 18.4582 7.78065 18.7549L8.0707 20.4877L9.91622 18.8364C10.0652 18.7031 10.2619 18.6358 10.4614 18.65C12.4263 18.789 14.4064 18.6426 16.3391 18.2105L16.6733 18.1358C17.9989 17.8395 19.0451 16.8228 19.3792 15.5063C20.1147 12.6078 20.1147 9.57145 19.3792 6.67292C19.0451 5.35639 17.9989 4.3397 16.6733 4.0434L16.3391 3.9687Z" fill="white"/>
</svg>
