<svg width="24" height="24" viewBox="0 0 24 24" fill="none" xmlns="http://www.w3.org/2000/svg">
<g clip-path="url(#clip0_41_595)">
<path fill-rule="evenodd" clip-rule="evenodd" d="M2.02364 0.0960794C1.36572 0.272955 0.657742 0.830977 0.331899 1.42954C0.00767174 2.02522 0 2.11882 0 5.48679V8.58036L0.131168 8.77494C0.544744 9.38856 1.30106 9.38856 1.71464 8.77494L1.84581 8.58036V5.60224C1.84581 2.62851 1.84598 2.62373 1.97559 2.3668C2.07042 2.1788 2.17471 2.07453 2.36275 1.97972C2.61972 1.85013 2.62451 1.84996 5.5988 1.84996H8.57747L8.77209 1.71882C9.38582 1.30532 9.38582 0.54914 8.77209 0.135641L8.57747 0.00449826L5.45678 0.00830464C2.91482 0.0113612 2.27813 0.0276819 2.02364 0.0960794ZM15.2267 0.133392C14.6096 0.54914 14.6081 1.30422 15.2234 1.71882L15.418 1.84996H18.3907C21.2795 1.84996 21.3704 1.8533 21.6102 1.9694C21.755 2.03952 21.9114 2.17643 21.9889 2.301L22.1209 2.51317L22.1497 5.57998C22.1779 8.5784 22.1812 8.65043 22.2992 8.80954C22.7307 9.39144 23.4607 9.37379 23.8666 8.77165L24 8.57373L23.9833 5.34163C23.9668 2.13255 23.9657 2.10717 23.8356 1.78543C23.5478 1.07412 22.9274 0.452138 22.2214 0.167072C21.8905 0.0335066 21.8862 0.0333335 18.6574 0.0166667L15.4247 0L15.2267 0.133392ZM0.456953 14.8993C0.349896 14.9714 0.203269 15.118 0.131168 15.2251L0 15.4196V18.5132C0 21.9167 0.00622959 21.9887 0.35451 22.5973C0.580507 22.9923 1.00343 23.4151 1.39849 23.6411C2.0072 23.9893 2.07919 23.9955 5.48332 23.9955H8.57747L8.77209 23.8644C9.38582 23.4509 9.38582 22.6947 8.77209 22.2812L8.57747 22.15H5.59562H2.61384L2.36263 22.0172C2.19097 21.9264 2.06944 21.8049 1.97865 21.6333L1.84581 21.3822V18.4009V15.4196L1.71464 15.2251C1.51322 14.9262 1.23946 14.7682 0.922904 14.7682C0.736189 14.7682 0.590832 14.8091 0.456953 14.8993ZM22.6106 14.898C22.5057 14.9693 22.3656 15.101 22.2992 15.1905C22.1812 15.3496 22.1779 15.4216 22.1497 18.42L22.1209 21.4868L21.9889 21.699C21.9114 21.8236 21.755 21.9605 21.6102 22.0306C21.3704 22.1467 21.2795 22.15 18.3907 22.15H15.418L15.2234 22.2812C14.6081 22.6958 14.6096 23.4509 15.2267 23.8666L15.4247 24L18.6574 23.9833C21.8862 23.9667 21.8905 23.9665 22.2214 23.8329C22.9178 23.5517 23.5516 22.9173 23.834 22.2188C23.9662 21.8917 23.9667 21.8788 23.9833 18.6584L24 15.4263L23.8666 15.2283C23.5591 14.7721 23.0083 14.6272 22.6106 14.898Z" fill="white"/>
</g>
<defs>
<clipPath id="clip0_41_595">
<rect width="24" height="24" fill="white"/>
</clipPath>
</defs>
</svg>
