<?xml version="1.0" standalone="no"?>
<!DOCTYPE svg PUBLIC "-//W3C//DTD SVG 20010904//EN"
 "http://www.w3.org/TR/2001/REC-SVG-20010904/DTD/svg10.dtd">
<svg version="1.0" xmlns="http://www.w3.org/2000/svg"
 width="310.000000pt" height="310.000000pt" viewBox="0 0 310.000000 310.000000"
 preserveAspectRatio="xMidYMid meet">
<metadata>
Created by potrace 1.14, written by Peter Selinger 2001-2017
</metadata>
<g transform="translate(0.000000,310.000000) scale(0.100000,-0.100000)"
fill="#000000" stroke="none">
<path d="M2715 3036 c-251 -142 -404 -284 -489 -453 -30 -60 -74 -191 -82
-243 -3 -19 -9 -51 -14 -70 -12 -50 -23 -136 -35 -285 -6 -76 -10 -87 -77
-205 -55 -95 -259 -425 -320 -514 -14 -21 -20 4 -6 26 29 45 97 224 111 296
19 90 19 235 1 322 -8 36 -36 144 -63 240 -65 225 -62 210 -66 383 -1 82 -5
150 -8 153 -2 2 -50 -87 -105 -198 -208 -417 -221 -549 -90 -903 53 -145 138
-395 138 -408 0 -29 -340 -375 -480 -488 -81 -66 -283 -208 -330 -233 -8 -5
55 62 140 147 105 106 164 172 183 209 32 63 65 164 72 222 3 22 8 58 11 78 2
21 7 154 9 295 2 142 8 290 14 328 6 39 11 73 11 78 0 10 -53 -18 -125 -66
-75 -51 -206 -183 -268 -270 -95 -133 -163 -282 -192 -424 -30 -143 -28 -168
20 -410 36 -177 43 -229 33 -240 -45 -55 -336 -207 -600 -314 -93 -37 -108
-46 -108 -66 0 -20 5 -23 38 -23 56 0 436 162 554 236 l37 24 68 -43 c103 -66
203 -109 333 -142 89 -23 157 -29 305 -28 303 1 593 99 819 278 11 8 17 17 14
20 -2 3 -54 19 -114 36 -60 17 -149 43 -199 59 -212 69 -282 83 -420 84 -187
1 -220 -8 -465 -127 -132 -64 -287 -123 -297 -113 -2 1 63 47 144 101 255 172
447 320 597 464 63 60 202 212 226 248 l15 21 86 -42 c114 -56 209 -78 339
-81 259 -6 510 89 768 289 100 77 169 156 177 203 l7 42 -149 -4 c-367 -11
-464 -18 -608 -47 -195 -38 -327 -108 -457 -240 -63 -64 -92 -87 -102 -81 -12
6 2 33 65 128 131 197 228 358 293 488 69 137 92 161 233 233 182 93 243 149
304 279 43 92 69 189 99 380 28 173 55 278 91 349 34 69 32 63 17 69 -7 2 -54
-19 -103 -47z"/>
</g>
</svg>
